Recursive-Sans Casual Bold.ufo
<glyph name="exclam" format="2">
  <advance width="350.0"/>
  <unicode hex="0021"/>
  <outline>
    <contour>
      <point x="228.35849056603772" y="282.45283018867923" type="line"/>
      <point x="242.99999999999997" y="349.41509433962267"/>
      <point x="255.18867924528303" y="452.4339622641509"/>
      <point x="255.188679245283" y="520.0943396226415" type="curve"/>
      <point x="255.188679245283" y="646.2830188679245" type="line" smooth="yes"/>
      <point x="255.188679245283" y="690.811320754717"/>
      <point x="206.5849056603774" y="710.0"/>
      <point x="143.9811320754717" y="710.0" type="curve"/>
      <point x="120.79245283018868" y="710.0"/>
      <point x="103.0" y="708.8490566037735"/>
      <point x="82.11320754716984" y="703.3018867924528" type="curve"/>
      <point x="90.50943396226417" y="667.3018867924528"/>
      <point x="94.20754716981133" y="631.0566037735849"/>
      <point x="94.20754716981133" y="591.5094339622641" type="curve" smooth="yes"/>
      <point x="94.20754716981133" y="525.0377358490566" type="line"/>
      <point x="94.20754716981132" y="435.3207547169811"/>
      <point x="105.84905660377359" y="332.1320754716981"/>
      <point x="125.73584905660377" y="311.188679245283" type="curve" smooth="yes"/>
      <point x="142.9245283018868" y="293.0943396226415"/>
      <point x="172.1509433962264" y="282.45283018867923"/>
      <point x="215.01886792452828" y="282.45283018867923" type="curve"/>
    </contour>
    <component base="period"/>
  </outline>
</glyph>
<glyph name="numbersign" format="2">
  <advance width="600.0"/>
  <unicode hex="0023"/>
  <outline>
    <contour>
      <point x="212.90566037735852" y="715.8490566037735" type="curve"/>
      <point x="195.9245283018868" y="513.8490566037735"/>
      <point x="145.54716981132077" y="240.69811320754718"/>
      <point x="17.169811320754725" y="-7.207547169811322" type="curve"/>
      <point x="26.71698113207549" y="-14.452830188679247"/>
      <point x="37.66037735849058" y="-18.30188679245283"/>
      <point x="63.49056603773586" y="-18.30188679245283" type="curve"/>
      <point x="98.47169811320757" y="-19.150943396226417"/>
      <point x="123.9056603773585" y="-11.754716981132077"/>
      <point x="148.18867924528303" y="36.415094339622634" type="curve" smooth="yes"/>
      <point x="256.377358490566" y="258.49056603773585"/>
      <point x="302.3584905660377" y="493.9433962264151"/>
      <point x="315.0943396226415" y="657.5471698113207" type="curve" smooth="yes"/>
      <point x="320.18867924528297" y="710.5094339622641"/>
      <point x="296.6981132075471" y="720.0"/>
      <point x="257.9811320754717" y="720.0" type="curve" smooth="yes"/>
      <point x="243.18867924528303" y="720.0"/>
      <point x="227.54716981132077" y="719.6981132075472"/>
    </contour>
    <contour>
      <point x="421.49056603773585" y="714.1509433962265" type="curve"/>
      <point x="403.66037735849056" y="512.7547169811321"/>
      <point x="354.1320754716981" y="239.8490566037736"/>
      <point x="224.9056603773585" y="-8.905660377358492" type="curve"/>
      <point x="234.45283018867923" y="-16.150943396226417"/>
      <point x="245.39622641509436" y="-20.0"/>
      <point x="271.22641509433964" y="-20.0" type="curve"/>
      <point x="306.20754716981133" y="-20.0"/>
      <point x="330.79245283018867" y="-12.60377358490566"/>
      <point x="354.22641509433964" y="33.867924528301884" type="curve" smooth="yes"/>
      <point x="464.1132075471698" y="257.64150943396226"/>
      <point x="510.0943396226415" y="493.09433962264154"/>
      <point x="523.6792452830189" y="657.5471698113207" type="curve" smooth="yes"/>
      <point x="527.9245283018868" y="708.811320754717"/>
      <point x="504.4339622641509" y="719.1509433962265"/>
      <point x="465.7169811320755" y="719.1509433962265" type="curve" smooth="yes"/>
      <point x="450.9245283018868" y="719.1509433962265"/>
      <point x="435.2830188679245" y="718.0"/>
    </contour>
    <contour>
      <point x="582.9245283018868" y="424.5283018867924" type="line"/>
      <point x="582.9245283018868" y="430.0754716981132"/>
      <point x="582.9245283018868" y="435.77358490566036"/>
      <point x="582.9245283018868" y="442.1698113207547" type="curve" smooth="yes"/>
      <point x="582.9245283018868" y="485.3396226415095"/>
      <point x="573.9811320754717" y="509.9245283018868"/>
      <point x="559.1886792452831" y="524.7169811320755" type="curve" smooth="yes"/>
      <point x="546.0" y="537.9056603773586"/>
      <point x="528.4150943396227" y="542.4528301886793"/>
      <point x="488.6037735849057" y="542.4528301886793" type="curve"/>
      <point x="80.0" y="542.4528301886793" type="line"/>
      <point x="72.35849056603773" y="524.1698113207548"/>
      <point x="68.9622641509434" y="504.03773584905656"/>
      <point x="68.9622641509434" y="487.45283018867923" type="curve" smooth="yes"/>
      <point x="68.9622641509434" y="440.8301886792453"/>
      <point x="84.15094339622641" y="424.5283018867924"/>
      <point x="134.41509433962264" y="424.5283018867924" type="curve" smooth="yes"/>
    </contour>
    <contour>
      <point x="16.226415094339625" y="275.47169811320754" type="line"/>
      <point x="16.226415094339625" y="269.92452830188677"/>
      <point x="16.226415094339625" y="264.22641509433964"/>
      <point x="16.226415094339625" y="257.8301886792453" type="curve" smooth="yes"/>
      <point x="16.226415094339625" y="214.66037735849056"/>
      <point x="25.169811320754718" y="190.07547169811323"/>
      <point x="39.9622641509434" y="175.28301886792454" type="curve" smooth="yes"/>
      <point x="53.15094339622641" y="162.0943396226415"/>
      <point x="70.73584905660377" y="157.54716981132077"/>
      <point x="110.54716981132074" y="157.54716981132077" type="curve"/>
      <point x="553.9622641509434" y="157.54716981132077" type="line"/>
      <point x="557.3584905660377" y="175.83018867924528"/>
      <point x="559.9056603773585" y="195.96226415094338"/>
      <point x="559.9056603773585" y="212.54716981132074" type="curve" smooth="yes"/>
      <point x="559.9056603773585" y="259.1698113207547"/>
      <point x="544.7169811320755" y="275.47169811320754"/>
      <point x="494.45283018867923" y="275.47169811320754" type="curve"/>
    </contour>
  </outline>
</glyph>
<glyph name="percent" format="2">
  <advance width="600.0"/>
  <unicode hex="0025"/>
  <outline>
    <contour>
      <point x="169.16981132075472" y="710.0" type="curve" smooth="yes"/>
      <point x="75.16981132075472" y="710.0"/>
      <point x="12.16981132075472" y="637.0"/>
      <point x="12.16981132075472" y="529.0" type="curve" smooth="yes"/>
      <point x="12.16981132075472" y="523.0" type="line" smooth="yes"/>
      <point x="12.16981132075472" y="420.0"/>
      <point x="69.16981132075472" y="356.0"/>
      <point x="162.16981132075472" y="356.0" type="curve" smooth="yes"/>
      <point x="259.1698113207547" y="356.0"/>
      <point x="321.1698113207547" y="425.39622641509436"/>
      <point x="321.1698113207547" y="534.4905660377359" type="curve" smooth="yes"/>
      <point x="321.1698113207547" y="540.4905660377359" type="line" smooth="yes"/>
      <point x="321.1698113207547" y="639.8490566037736"/>
      <point x="257.47169811320754" y="710.0"/>
    </contour>
    <contour>
      <point x="97.67924528301887" y="523.0943396226415" type="curve" smooth="yes"/>
      <point x="97.67924528301887" y="527.3962264150944" type="line" smooth="yes"/>
      <point x="97.67924528301887" y="586.3207547169811"/>
      <point x="127.39622641509435" y="626.8867924528303"/>
      <point x="170.62264150943398" y="626.8867924528303" type="curve" smooth="yes"/>
      <point x="181.83018867924528" y="626.8867924528303"/>
      <point x="189.8867924528302" y="625.7358490566038"/>
      <point x="196.9433962264151" y="623.433962264151" type="curve" smooth="yes"/>
      <point x="211.32075471698113" y="600.8301886792452"/>
      <point x="213.9811320754717" y="577.5094339622641"/>
      <point x="213.9811320754717" y="554.2830188679245" type="curve" smooth="yes"/>
      <point x="213.9811320754717" y="549.9811320754717" type="line" smooth="yes"/>
      <point x="213.9811320754717" y="494.20754716981133"/>
      <point x="189.41509433962267" y="464.88679245283015"/>
      <point x="140.13207547169813" y="464.88679245283015" type="curve" smooth="yes"/>
      <point x="133.37735849056605" y="464.88679245283015"/>
      <point x="121.56603773584906" y="465.8867924528302"/>
      <point x="108.2075471698113" y="470.9433962264151" type="curve" smooth="yes"/>
      <point x="99.73584905660377" y="487.1509433962264"/>
      <point x="97.67924528301887" y="505.22641509433964"/>
    </contour>
    <contour>
      <point x="435.8301886792453" y="344.0" type="curve" smooth="yes"/>
      <point x="341.8301886792453" y="344.0"/>
      <point x="278.8301886792453" y="271.0"/>
      <point x="278.8301886792453" y="163.0" type="curve" smooth="yes"/>
      <point x="278.8301886792453" y="157.0" type="line" smooth="yes"/>
      <point x="278.8301886792453" y="54.0"/>
      <point x="335.8301886792453" y="-10.0"/>
      <point x="428.8301886792453" y="-10.0" type="curve" smooth="yes"/>
      <point x="525.8301886792452" y="-10.0"/>
      <point x="587.8301886792452" y="59.39622641509434"/>
      <point x="587.8301886792452" y="168.49056603773585" type="curve" smooth="yes"/>
      <point x="587.8301886792452" y="174.49056603773585" type="line" smooth="yes"/>
      <point x="587.8301886792452" y="273.84905660377353"/>
      <point x="524.132075471698" y="344.0"/>
    </contour>
    <contour>
      <point x="364.3396226415094" y="157.0943396226415" type="curve" smooth="yes"/>
      <point x="364.3396226415094" y="161.39622641509433" type="line" smooth="yes"/>
      <point x="364.3396226415094" y="220.32075471698113"/>
      <point x="394.0566037735849" y="260.8867924528302"/>
      <point x="437.2830188679245" y="260.8867924528302" type="curve" smooth="yes"/>
      <point x="448.49056603773585" y="260.8867924528302"/>
      <point x="456.5471698113207" y="259.7358490566038"/>
      <point x="463.6037735849057" y="257.433962264151" type="curve" smooth="yes"/>
      <point x="477.9811320754717" y="234.83018867924528"/>
      <point x="480.64150943396226" y="211.50943396226415"/>
      <point x="480.64150943396226" y="188.2830188679245" type="curve" smooth="yes"/>
      <point x="480.64150943396226" y="183.9811320754717" type="line" smooth="yes"/>
      <point x="480.64150943396226" y="128.2075471698113"/>
      <point x="456.07547169811323" y="98.88679245283018"/>
      <point x="406.79245283018867" y="98.88679245283018" type="curve" smooth="yes"/>
      <point x="400.0377358490566" y="98.88679245283018"/>
      <point x="388.2264150943396" y="99.88679245283018"/>
      <point x="374.86792452830184" y="104.94339622641508" type="curve" smooth="yes"/>
      <point x="366.39622641509436" y="121.15094339622641"/>
      <point x="364.3396226415094" y="139.22641509433961"/>
    </contour>
    <component base="fraction"/>
  </outline>
</glyph>
<glyph name="ampersand" format="2">
  <advance width="600.0"/>
  <unicode hex="0026"/>
  <outline>
    <contour>
      <point x="263.11320754716985" y="383.5660377358491" type="curve" smooth="yes"/>
      <point x="241.39622641509433" y="430.64150943396226"/>
      <point x="228.88679245283018" y="476.41509433962267"/>
      <point x="228.88679245283018" y="521.0188679245283" type="curve" smooth="yes"/>
      <point x="228.88679245283018" y="529.2264150943397"/>
      <point x="229.88679245283018" y="541.0377358490566"/>
      <point x="232.18867924528303" y="548.9433962264151" type="curve"/>
      <point x="252.18867924528303" y="564.6226415094341"/>
      <point x="290.0943396226415" y="574.9433962264152"/>
      <point x="339.8679245283019" y="574.9433962264152" type="curve" smooth="yes"/>
      <point x="392.2830188679245" y="574.9433962264152"/>
      <point x="440.6792452830189" y="563.7358490566038"/>
      <point x="479.566037735849" y="538.5849056603773" type="curve"/>
      <point x="485.566037735849" y="538.5849056603773" type="line"/>
      <point x="492.66037735849056" y="554.0754716981132"/>
      <point x="497.05660377358487" y="574.5094339622642"/>
      <point x="497.05660377358487" y="596.9433962264151" type="curve" smooth="yes"/>
      <point x="497.05660377358487" y="630.2264150943397"/>
      <point x="490.3584905660377" y="652.8679245283018"/>
      <point x="469.3207547169811" y="673.9056603773585" type="curve" smooth="yes"/>
      <point x="444.6792452830189" y="698.5471698113208"/>
      <point x="399.4339622641509" y="710.0"/>
      <point x="342.1320754716981" y="710.0" type="curve" smooth="yes"/>
      <point x="196.2075471698113" y="710.0"/>
      <point x="104.16981132075472" y="611.1886792452831"/>
      <point x="104.16981132075472" y="529.2641509433962" type="curve" smooth="yes"/>
      <point x="104.16981132075472" y="523.7169811320755" type="line" smooth="yes"/>
      <point x="104.16981132075472" y="469.50943396226415"/>
      <point x="123.9245283018868" y="405.45283018867923"/>
      <point x="162.62264150943398" y="334.6037735849057" type="curve" smooth="yes"/>
      <point x="208.9811320754717" y="251.2830188679245"/>
      <point x="273.09433962264154" y="164.01886792452828"/>
      <point x="339.0" y="97.96226415094338" type="curve" smooth="yes"/>
      <point x="428.0566037735849" y="8.90566037735849"/>
      <point x="467.50943396226415" y="-10.0"/>
      <point x="514.6981132075472" y="-10.0" type="curve" smooth="yes"/>
      <point x="532.6981132075472" y="-10.0"/>
      <point x="548.0943396226415" y="-5.150943396226415"/>
      <point x="558.6415094339623" y="5.094339622641509" type="curve" smooth="yes"/>
      <point x="572.5849056603773" y="18.735849056603772"/>
      <point x="581.2830188679245" y="44.16981132075471"/>
      <point x="581.2830188679245" y="82.0943396226415" type="curve" smooth="yes"/>
      <point x="581.2830188679245" y="106.52830188679243"/>
      <point x="578.5849056603773" y="128.4150943396226"/>
      <point x="573.188679245283" y="144.05660377358487" type="curve"/>
      <point x="567.1886792452831" y="144.05660377358487" type="line"/>
      <point x="555.6415094339623" y="135.99999999999997"/>
      <point x="543.7924528301887" y="133.39622641509433"/>
      <point x="522.9433962264151" y="133.39622641509433" type="curve" smooth="yes"/>
      <point x="484.50943396226415" y="133.39622641509433"/>
      <point x="436.8301886792453" y="156.188679245283"/>
      <point x="395.92452830188677" y="196.94339622641508" type="curve" smooth="yes"/>
      <point x="344.24528301886795" y="247.47169811320748"/>
      <point x="292.6792452830188" y="319.9433962264151"/>
    </contour>
    <contour>
      <point x="195.47169811320757" y="-9.150943396226415" type="curve" smooth="yes"/>
      <point x="272.4716981132076" y="-9.150943396226415"/>
      <point x="325.1698113207547" y="27.886792452830186"/>
      <point x="344.8867924528302" y="86.07547169811319" type="curve"/>
      <point x="389.5660377358491" y="86.07547169811319" type="line"/>
      <point x="322.8490566037736" y="152.1509433962264" type="line"/>
      <point x="297.28301886792457" y="119.52830188679243"/>
      <point x="271.71698113207543" y="110.1698113207547"/>
      <point x="227.0377358490566" y="110.1698113207547" type="curve" smooth="yes"/>
      <point x="178.75471698113205" y="110.1698113207547"/>
      <point x="152.2830188679245" y="148.58490566037736"/>
      <point x="152.2830188679245" y="197.81132075471697" type="curve" smooth="yes"/>
      <point x="152.2830188679245" y="200.81132075471697" type="line" smooth="yes"/>
      <point x="152.2830188679245" y="254.94339622641508"/>
      <point x="185.2075471698113" y="279.811320754717"/>
      <point x="221.0" y="282.6792452830189" type="curve"/>
      <point x="169.32075471698113" y="370.1320754716981" type="line"/>
      <point x="156.9245283018868" y="337.0" type="line"/>
      <point x="84.71698113207547" y="325.188679245283"/>
      <point x="26.716981132075475" y="271.5849056603774"/>
      <point x="26.716981132075475" y="172.3396226415094" type="curve" smooth="yes"/>
      <point x="26.716981132075475" y="167.64150943396226" type="line" smooth="yes"/>
      <point x="26.716981132075475" y="63.0"/>
      <point x="97.45283018867924" y="-9.150943396226415"/>
    </contour>
    <contour>
      <point x="417.8301886792453" y="414.50943396226415" type="curve"/>
      <point x="417.8301886792453" y="404.3584905660377"/>
      <point x="417.8301886792453" y="394.9622641509434"/>
      <point x="417.8301886792453" y="383.1132075471698" type="curve" smooth="yes"/>
      <point x="417.8301886792453" y="316.73584905660374"/>
      <point x="403.92452830188677" y="256.52830188679246"/>
      <point x="357.9245283018868" y="193.77358490566039" type="curve"/>
      <point x="424.188679245283" y="138.1320754716981" type="line"/>
      <point x="424.188679245283" y="179.77358490566039" type="line"/>
      <point x="505.50943396226415" y="216.77358490566039"/>
      <point x="555.7358490566037" y="287.47169811320754"/>
      <point x="555.7358490566037" y="342.90566037735846" type="curve" smooth="yes"/>
      <point x="555.7358490566037" y="347.7547169811321" type="line" smooth="yes"/>
      <point x="555.7358490566037" y="394.07547169811323"/>
      <point x="513.867924528302" y="418.7547169811321"/>
      <point x="455.24528301886795" y="418.7547169811321" type="curve"/>
      <point x="438.81132075471703" y="418.7547169811321"/>
      <point x="426.622641509434" y="417.0566037735849"/>
    </contour>
  </outline>
</glyph>
<glyph name="seven" format="2">
  <advance width="600.0"/>
  <unicode hex="0037"/>
  <outline>
    <contour>
      <point x="89.81132075471699" y="720.0" type="curve"/>
      <point x="74.66037735849056" y="671.0754716981132"/>
      <point x="62.41509433962265" y="568.0566037735849"/>
      <point x="62.41509433962265" y="506.45283018867923" type="curve" smooth="yes"/>
      <point x="62.41509433962265" y="457.1320754716981"/>
      <point x="93.24528301886792" y="449.433962264151"/>
      <point x="143.50943396226415" y="449.433962264151" type="curve" smooth="yes"/>
      <point x="164.2452830188679" y="449.433962264151"/>
      <point x="182.1320754716981" y="451.2830188679245"/>
      <point x="195.62264150943395" y="454.8301886792453" type="curve"/>
      <point x="195.62264150943395" y="488.2641509433962"/>
      <point x="214.2264150943396" y="654.2264150943396"/>
      <point x="214.2264150943396" y="670.6792452830189" type="curve" smooth="yes"/>
      <point x="214.2264150943396" y="701.9622641509434"/>
      <point x="147.58490566037736" y="720.0"/>
    </contour>
    <contour>
      <point x="353.09433962264154" y="-1.2075471698113223" type="curve"/>
      <point x="353.0943396226415" y="101.35849056603774"/>
      <point x="368.4528301886793" y="185.56603773584908"/>
      <point x="436.0566037735849" y="316.20754716981133" type="curve" smooth="yes"/>
      <point x="511.0188679245283" y="462.6792452830189"/>
      <point x="545.6226415094341" y="538.811320754717"/>
      <point x="545.6226415094341" y="586.3207547169811" type="curve" smooth="yes"/>
      <point x="545.6226415094341" y="595.0188679245283" type="line"/>
      <point x="545.6226415094341" y="658.4716981132076"/>
      <point x="526.2830188679246" y="700.0"/>
      <point x="476.3207547169811" y="700.0" type="curve"/>
      <point x="100.0" y="700.0" type="line"/>
      <point x="100.0" y="673.0188679245283"/>
      <point x="120.88679245283019" y="571.8867924528302"/>
      <point x="156.92452830188677" y="571.8867924528302" type="curve" smooth="yes"/>
      <point x="245.16981132075472" y="571.8867924528302" type="line" smooth="yes"/>
      <point x="340.52830188679246" y="571.8867924528302"/>
      <point x="398.6981132075472" y="579.6792452830189"/>
      <point x="443.71698113207543" y="601.2641509433963" type="curve"/>
      <point x="412.24528301886795" y="610.1698113207548" type="line"/>
      <point x="418.2830188679245" y="563.3207547169812" type="line"/>
      <point x="426.0566037735849" y="625.8113207547169" type="line"/>
      <point x="414.5094339622642" y="568.9245283018868"/>
      <point x="395.50943396226415" y="509.47169811320754"/>
      <point x="339.0566037735849" y="417.60377358490564" type="curve" smooth="yes"/>
      <point x="254.37735849056605" y="279.8301886792453"/>
      <point x="207.8490566037736" y="170.9811320754717"/>
      <point x="207.8490566037736" y="66.24528301886791" type="curve" smooth="yes"/>
      <point x="207.8490566037736" y="14.679245283018863"/>
      <point x="244.16981132075472" y="-10.0"/>
      <point x="301.07547169811323" y="-10.0" type="curve" smooth="yes"/>
      <point x="323.50943396226415" y="-10.0"/>
      <point x="342.1509433962264" y="-6.452830188679246"/>
    </contour>
  </outline>
</glyph>
<glyph name="equal" format="2">
  <advance width="600.0"/>
  <unicode hex="003D"/>
  <outline>
    <contour>
      <point x="51.50943396226415" y="492.45283018867923" type="line"/>
      <point x="51.50943396226415" y="486.90566037735846"/>
      <point x="51.50943396226415" y="481.20754716981133"/>
      <point x="51.50943396226415" y="474.811320754717" type="curve" smooth="yes"/>
      <point x="51.50943396226415" y="378.8867924528302"/>
      <point x="69.15094339622641" y="357.54716981132077"/>
      <point x="147.33962264150944" y="357.54716981132077" type="curve"/>
      <point x="552.4339622641509" y="357.54716981132077" type="line"/>
      <point x="555.9811320754717" y="376.28301886792457"/>
      <point x="558.6792452830189" y="396.86792452830184"/>
      <point x="558.6792452830189" y="414.0566037735849" type="curve" smooth="yes"/>
      <point x="558.6792452830189" y="473.66037735849056"/>
      <point x="541.6792452830189" y="492.45283018867923"/>
      <point x="490.2075471698113" y="492.45283018867923" type="curve" smooth="yes"/>
    </contour>
    <contour>
      <point x="57.75471698113208" y="242.45283018867923" type="line"/>
      <point x="54.20754716981132" y="223.8679245283019"/>
      <point x="51.50943396226415" y="203.28301886792454"/>
      <point x="51.50943396226415" y="185.94339622641508" type="curve" smooth="yes"/>
      <point x="51.50943396226415" y="126.33962264150944"/>
      <point x="68.50943396226415" y="107.54716981132076"/>
      <point x="119.98113207547169" y="107.54716981132076" type="curve"/>
      <point x="558.6792452830189" y="107.54716981132076" type="line"/>
      <point x="558.6792452830189" y="113.09433962264153"/>
      <point x="558.6792452830189" y="118.7924528301887"/>
      <point x="558.6792452830189" y="125.18867924528303" type="curve" smooth="yes"/>
      <point x="558.6792452830189" y="221.1132075471698"/>
      <point x="541.0377358490566" y="242.45283018867923"/>
      <point x="462.8490566037736" y="242.45283018867923" type="curve" smooth="yes"/>
    </contour>
  </outline>
</glyph>
<glyph name="at" format="2">
  <advance width="1050.0"/>
  <unicode hex="0040"/>
  <outline>
    <contour>
      <point x="528.0" y="745.9811320754717" type="curve" smooth="yes"/>
      <point x="247.26415094339623" y="745.9811320754717"/>
      <point x="53.773584905660385" y="547.3962264150944"/>
      <point x="53.773584905660385" y="255.0188679245283" type="curve" smooth="yes"/>
      <point x="53.773584905660385" y="242.0188679245283" type="line" smooth="yes"/>
      <point x="53.773584905660385" y="-12.39622641509434"/>
      <point x="250.79450775266037" y="-181.0"/>
      <point x="545.0" y="-181.0" type="curve" smooth="yes"/>
      <point x="652.2641509433962" y="-181.0"/>
      <point x="732.0188679245283" y="-150.8490566037736"/>
      <point x="776.4150943396227" y="-107.30188679245282" type="curve" smooth="yes"/>
      <point x="803.0566037735849" y="-80.66037735849056"/>
      <point x="817.0" y="-51.62264150943396"/>
      <point x="817.0" y="-19.037735849056602" type="curve" smooth="yes"/>
      <point x="817.0" y="-14.037735849056613" type="line"/>
      <point x="813.0" y="-14.037735849056613" type="line"/>
      <point x="745.3962264150944" y="-55.60377358490567"/>
      <point x="631.2075471698113" y="-74.56603773584906"/>
      <point x="528.811320754717" y="-74.56603773584906" type="curve" smooth="yes"/>
      <point x="416.9598031173019" y="-74.56603773584906"/>
      <point x="335.6981132075472" y="-58.30188679245284"/>
      <point x="249.3396226415094" y="-12.886792452830194" type="curve" smooth="yes"/>
      <point x="196.16981132075472" y="49.37735849056603"/>
      <point x="173.39622641509433" y="131.60377358490567"/>
      <point x="173.39622641509433" y="231.0188679245283" type="curve" smooth="yes"/>
      <point x="173.39622641509433" y="241.0188679245283" type="line" smooth="yes"/>
      <point x="173.39622641509433" y="482.1320754716981"/>
      <point x="324.8679245283019" y="645.4905660377358"/>
      <point x="547.0" y="645.4905660377358" type="curve" smooth="yes"/>
      <point x="632.0" y="645.4905660377358"/>
      <point x="708.8490566037736" y="632.0377358490566"/>
      <point x="785.1320754716982" y="596.4150943396226" type="curve" smooth="yes"/>
      <point x="846.7358490566038" y="529.4150943396227"/>
      <point x="876.6037735849056" y="452.79245283018867"/>
      <point x="876.6037735849056" y="365.3207547169811" type="curve" smooth="yes"/>
      <point x="876.6037735849056" y="352.3207547169811" type="line" smooth="yes"/>
      <point x="876.6037735849056" y="229.45283018867923"/>
      <point x="820.2264150943397" y="146.83018867924528"/>
      <point x="719.622641509434" y="118.90566037735849" type="curve"/>
      <point x="713.9245283018868" y="118.90566037735849" type="line"/>
      <point x="704.9056603773585" y="135.11320754716982"/>
      <point x="702.1509433962265" y="153.9811320754717"/>
      <point x="706.3962264150944" y="190.5283018867924" type="curve" smooth="yes"/>
      <point x="715.7358490566038" y="254.47169811320754"/>
      <point x="752.4716981132076" y="347.50943396226415"/>
      <point x="756.622641509434" y="423.0" type="curve" smooth="yes"/>
      <point x="760.0754716981132" y="481.0"/>
      <point x="726.6981132075472" y="510.0"/>
      <point x="650.0566037735849" y="510.0" type="curve" smooth="yes"/>
      <point x="639.0566037735849" y="510.0" type="line"/>
      <point x="639.0566037735849" y="479.0"/>
      <point x="635.0566037735849" y="447.0"/>
      <point x="627.5094339622641" y="415.6981132075472" type="curve" smooth="yes"/>
      <point x="612.566037735849" y="350.75471698113205"/>
      <point x="580.9811320754717" y="256.1698113207547"/>
      <point x="579.9811320754717" y="185.52830188679246" type="curve" smooth="yes"/>
      <point x="578.9811303811623" y="110.09416002584152"/>
      <point x="622.1698113207548" y="38.00000000000001"/>
      <point x="713.9433962264151" y="38.00000000000001" type="curve" smooth="yes"/>
      <point x="717.9433962264151" y="38.00000000000001" type="line" smooth="yes"/>
      <point x="866.4565532908114" y="38.00000000000001"/>
      <point x="996.2264150943396" y="169.64150943396226"/>
      <point x="996.2264150943396" y="341.9811320754717" type="curve" smooth="yes"/>
      <point x="996.2264150943396" y="353.9811320754717" type="line" smooth="yes"/>
      <point x="996.2264150943396" y="578.0943396226414"/>
      <point x="793.9622641509434" y="745.9811320754717"/>
    </contour>
    <contour>
      <point x="418.64150943396226" y="37.490566037735846" type="curve" smooth="yes"/>
      <point x="494.6981132075472" y="37.490566037735846"/>
      <point x="541.4756147094189" y="76.0826667914264"/>
      <point x="579.2264150943397" y="140.69811320754718" type="curve"/>
      <point x="602.3207547169811" y="140.69811320754718" type="line"/>
      <point x="631.6415094339624" y="291.188679245283" type="line"/>
      <point x="589.4905660377359" y="204.73584905660374"/>
      <point x="522.7735849056604" y="150.69811320754715"/>
      <point x="439.9622641509434" y="154.32075471698113" type="curve" smooth="yes"/>
      <point x="431.03773584905656" y="170.43396226415092"/>
      <point x="426.377358490566" y="186.75471698113205"/>
      <point x="426.377358490566" y="215.60377358490567" type="curve" smooth="yes"/>
      <point x="426.377358490566" y="224.60377358490564" type="line" smooth="yes"/>
      <point x="426.377358490566" y="307.33962264150944"/>
      <point x="476.73584905660374" y="404.9245283018868"/>
      <point x="557.377358490566" y="404.9245283018868" type="curve" smooth="yes"/>
      <point x="592.9056603773585" y="404.9245283018868"/>
      <point x="617.5283018867925" y="383.9056603773585"/>
      <point x="635.2075471698114" y="352.622641509434" type="curve"/>
      <point x="654.0943396226415" y="443.49056603773585" type="line"/>
      <point x="628.0566037735849" y="443.49056603773585" type="line"/>
      <point x="610.9433962264152" y="490.8867924528302"/>
      <point x="573.6792452830189" y="519.0"/>
      <point x="525.811320754717" y="519.0" type="curve"/>
      <point x="406.0377358490566" y="519.0"/>
      <point x="302.50943396226415" y="383.6981132075472"/>
      <point x="302.50943396226415" y="226.60377358490567" type="curve" smooth="yes"/>
      <point x="302.50943396226415" y="218.60377358490567" type="line" smooth="yes"/>
      <point x="302.50943396226415" y="104.33962264150942"/>
      <point x="350.0188679245283" y="37.490566037735846"/>
    </contour>
  </outline>
</glyph>
<glyph name="B" format="2">
  <advance width="600.0"/>
  <unicode hex="0042"/>
  <outline>
    <contour>
      <point x="275.8490566037736" y="-10.0" type="curve"/>
      <point x="415.1509433962264" y="-10.0"/>
      <point x="529.0943396226414" y="63.283018867924525"/>
      <point x="529.0943396226414" y="194.22641509433961" type="curve" smooth="yes"/>
      <point x="529.0943396226414" y="200.9433962264151" type="line" smooth="yes"/>
      <point x="529.0943396226414" y="249.66037735849056"/>
      <point x="494.4339622641509" y="296.50943396226415"/>
      <point x="441.90566037735846" y="320.0" type="curve"/>
      <point x="441.90566037735846" y="338.24528301886795" type="line"/>
      <point x="255.4716981132075" y="354.9622641509434" type="line"/>
      <point x="255.4716981132075" y="325.6792452830189" type="line"/>
      <point x="286.3018867924528" y="325.6792452830189" type="line"/>
      <point x="371.5849056603774" y="299.1509433962264"/>
      <point x="394.188679245283" y="266.0377358490566"/>
      <point x="394.188679245283" y="222.41509433962264" type="curve" smooth="yes"/>
      <point x="394.188679245283" y="213.50943396226413" type="line" smooth="yes"/>
      <point x="394.188679245283" y="147.32075471698113"/>
      <point x="343.64150943396226" y="117.26415094339622"/>
      <point x="269.9056603773585" y="117.26415094339622" type="curve" smooth="yes"/>
      <point x="249.30188679245282" y="117.26415094339622"/>
      <point x="235.43396226415092" y="119.32075471698111"/>
      <point x="222.1698113207547" y="124.67924528301887" type="curve"/>
      <point x="222.1698113207547" y="242.90566037735852"/>
      <point x="222.1698113207547" y="360.3207547169811"/>
      <point x="222.1698113207547" y="476.43396226415103" type="curve" smooth="yes"/>
      <point x="222.1698113207547" y="520.811320754717"/>
      <point x="211.67924528301884" y="554.0943396226415"/>
      <point x="189.49056603773582" y="575.0377358490566" type="curve"/>
      <point x="200.09433962264148" y="606.7358490566038" type="line"/>
      <point x="78.77358490566039" y="606.7358490566038" type="line"/>
      <point x="78.77358490566039" y="439.6792452830189"/>
      <point x="78.77358490566039" y="280.7358490566038"/>
      <point x="78.77358490566039" y="115.188679245283" type="curve"/>
      <point x="78.77358490566039" y="89.15094339622641"/>
      <point x="88.56603773584906" y="68.41509433962264"/>
      <point x="109.30188679245283" y="47.679245283018865" type="curve" smooth="yes"/>
      <point x="140.9811320754717" y="16.0"/>
      <point x="200.66037735849056" y="-10.0"/>
    </contour>
    <contour>
      <point x="25.377358490566042" y="700.0" type="curve"/>
      <point x="21.981132075471706" y="685.1132075471698"/>
      <point x="20.283018867924536" y="670.0754716981132"/>
      <point x="20.283018867924536" y="650.0943396226415" type="curve" smooth="yes"/>
      <point x="20.283018867924536" y="591.9811320754718"/>
      <point x="32.37735849056604" y="565.0943396226415"/>
      <point x="61.716981132075475" y="565.0943396226415" type="curve" smooth="yes"/>
      <point x="82.41509433962266" y="565.0943396226415"/>
      <point x="167.16981132075472" y="585.0943396226415"/>
      <point x="276.41509433962267" y="585.0943396226415" type="curve" smooth="yes"/>
      <point x="324.8301886792453" y="585.0943396226415"/>
      <point x="363.433962264151" y="580.6415094339623"/>
      <point x="391.7547169811321" y="570.2264150943396" type="curve" smooth="yes"/>
      <point x="399.47169811320754" y="553.4150943396227"/>
      <point x="402.8301886792453" y="536.245283018868"/>
      <point x="402.8301886792453" y="512.1698113207548" type="curve" smooth="yes"/>
      <point x="402.8301886792453" y="503.5660377358491" type="line" smooth="yes"/>
      <point x="402.8301886792453" y="421.6792452830189"/>
      <point x="346.2830188679245" y="381.3962264150943"/>
      <point x="256.79245283018867" y="381.3962264150943" type="curve" smooth="yes"/>
      <point x="228.3396226415094" y="381.3962264150943"/>
      <point x="219.67924528301884" y="383.84905660377353"/>
      <point x="201.67924528301884" y="394.5471698113207" type="curve"/>
      <point x="201.67924528301884" y="296.0" type="line" smooth="yes"/>
      <point x="228.1698113207547" y="297.0566037735849" type="line"/>
      <point x="240.1698113207547" y="285.0566037735849"/>
      <point x="256.62264150943395" y="279.9056603773585"/>
      <point x="280.3207547169811" y="279.9056603773585" type="curve" smooth="yes"/>
      <point x="424.6981132075472" y="279.9056603773585"/>
      <point x="537.7358490566038" y="371.188679245283"/>
      <point x="537.7358490566038" y="502.96226415094344" type="curve" smooth="yes"/>
      <point x="537.7358490566038" y="512.2264150943397" type="line" smooth="yes"/>
      <point x="537.7358490566038" y="605.8490566037736"/>
      <point x="455.5471698113207" y="720.0"/>
      <point x="295.1509433962264" y="720.0" type="curve" smooth="yes"/>
      <point x="208.77358490566039" y="720.0"/>
      <point x="113.39622641509436" y="714.4528301886793"/>
    </contour>
  </outline>
</glyph>
<glyph name="D" format="2">
  <advance width="650.0"/>
  <unicode hex="0044"/>
  <anchor x="310.3018867924528" y="711.0" name="top"/>
  <anchor x="304.6037735849057" y="0.0" name="bottom"/>
  <outline>
    <contour>
      <point x="596.2264150943396" y="398.0188679245283" type="curve" smooth="yes"/>
      <point x="596.2264150943396" y="416.0943396226415" type="line" smooth="yes"/>
      <point x="596.2264150943396" y="621.5094339622642"/>
      <point x="473.07547169811323" y="720.0"/>
      <point x="304.188679245283" y="720.0" type="curve"/>
      <point x="209.83018867924528" y="720.0"/>
      <point x="117.0377358490566" y="714.4528301886793"/>
      <point x="29.62264150943397" y="700.0" type="curve"/>
      <point x="26.22641509433963" y="685.1132075471697"/>
      <point x="24.52830188679246" y="670.0754716981132"/>
      <point x="24.52830188679246" y="650.0943396226415" type="curve"/>
      <point x="24.52830188679246" y="591.9811320754718"/>
      <point x="36.62264150943397" y="565.0943396226415"/>
      <point x="65.9622641509434" y="565.0943396226415" type="curve" smooth="yes"/>
      <point x="86.66037735849058" y="565.0943396226415"/>
      <point x="160.37735849056605" y="585.0943396226415"/>
      <point x="284.41509433962267" y="585.0943396226415" type="curve" smooth="yes"/>
      <point x="348.2830188679245" y="585.0943396226415"/>
      <point x="390.6981132075472" y="575.7358490566037"/>
      <point x="430.3018867924528" y="553.3207547169812" type="curve" smooth="yes"/>
      <point x="447.07547169811323" y="516.4528301886793"/>
      <point x="454.52830188679246" y="474.6792452830189"/>
      <point x="454.52830188679246" y="401.188679245283" type="curve" smooth="yes"/>
      <point x="454.52830188679246" y="391.188679245283" type="line" smooth="yes"/>
      <point x="454.52830188679246" y="221.49056603773585"/>
      <point x="360.54716981132077" y="129.1509433962264"/>
      <point x="245.99999999999997" y="129.1509433962264" type="curve" smooth="yes"/>
      <point x="237.77358490566036" y="129.1509433962264"/>
      <point x="228.58490566037733" y="129.9056603773585"/>
      <point x="222.16981132075472" y="131.11320754716982" type="curve"/>
      <point x="222.16981132075472" y="252.28301886792454"/>
      <point x="222.16981132075472" y="374.0566037735849"/>
      <point x="222.16981132075472" y="493.41509433962267" type="curve" smooth="yes"/>
      <point x="222.16981132075472" y="531.0"/>
      <point x="210.67924528301887" y="556.4905660377358"/>
      <point x="186.79245283018867" y="574.8867924528303" type="curve"/>
      <point x="196.69811320754715" y="603.3396226415094" type="line"/>
      <point x="78.77358490566039" y="603.3396226415094" type="line"/>
      <point x="78.77358490566039" y="440.13207547169816"/>
      <point x="78.77358490566039" y="277.1698113207547"/>
      <point x="78.77358490566039" y="103.33962264150942" type="curve"/>
      <point x="78.77358490566039" y="74.90566037735849"/>
      <point x="84.16981132075472" y="65.2075471698113"/>
      <point x="108.15094339622641" y="41.226415094339615" type="curve" smooth="yes"/>
      <point x="142.88679245283018" y="6.792452830188678"/>
      <point x="204.32075471698113" y="-10.0"/>
      <point x="262.58490566037733" y="-10.0" type="curve" smooth="yes"/>
      <point x="441.54716981132077" y="-10.0"/>
      <point x="596.2264150943396" y="142.35849056603774"/>
    </contour>
  </outline>
</glyph>
<glyph name="H" format="2">
  <advance width="650.0"/>
  <unicode hex="0048"/>
  <anchor x="309.79245283018867" y="711.0" name="top"/>
  <anchor x="322.9811320754717" y="0.0" name="bottom"/>
  <outline>
    <contour>
      <point x="68.18867924528303" y="701.0566037735849" type="curve"/>
      <point x="76.73584905660378" y="667.7547169811321"/>
      <point x="80.28301886792454" y="631.0566037735849"/>
      <point x="80.28301886792454" y="591.5094339622641" type="curve" smooth="yes"/>
      <point x="80.28301886792454" y="428.7735849056604"/>
      <point x="80.28301886792454" y="266.58490566037733"/>
      <point x="80.28301886792454" y="103.84905660377356" type="curve" smooth="yes"/>
      <point x="80.28301886792454" y="16.226415094339618"/>
      <point x="109.32075471698114" y="-8.30188679245283"/>
      <point x="166.9811320754717" y="-8.30188679245283" type="curve" smooth="yes"/>
      <point x="187.81132075471697" y="-8.30188679245283"/>
      <point x="204.54716981132074" y="-5.754716981132076"/>
      <point x="223.67924528301884" y="-1.5094339622641524" type="curve"/>
      <point x="223.67924528301884" y="203.20754716981133"/>
      <point x="223.67924528301884" y="408.77358490566036"/>
      <point x="223.67924528301884" y="613.4905660377359" type="curve" smooth="yes"/>
      <point x="223.67924528301884" y="670.8679245283018"/>
      <point x="194.84905660377356" y="708.3018867924528"/>
      <point x="127.64150943396226" y="708.3018867924528" type="curve" smooth="yes"/>
      <point x="105.50943396226415" y="708.3018867924528"/>
      <point x="88.62264150943396" y="705.6037735849056"/>
    </contour>
    <contour>
      <point x="28.773584905660382" y="384.90566037735846" type="line"/>
      <point x="28.773584905660382" y="362.16981132075466" type="line" smooth="yes"/>
      <point x="28.773584905660382" y="295.1698113207547"/>
      <point x="37.622641509433976" y="250.0"/>
      <point x="83.18867924528301" y="250.0" type="curve"/>
      <point x="464.7169811320755" y="250.0" type="line"/>
      <point x="464.7169811320755" y="372.3207547169811" type="line"/>
      <point x="430.622641509434" y="357.32075471698107" type="line"/>
      <point x="407.28301886792457" y="376.6603773584905"/>
      <point x="379.7924528301887" y="384.90566037735846"/>
      <point x="339.66037735849056" y="384.90566037735846" type="curve"/>
    </contour>
    <contour>
      <point x="588.4150943396227" y="-1.0566037735849072" type="curve"/>
      <point x="579.8679245283018" y="34.79245283018868"/>
      <point x="579.7169811320755" y="71.49056603773585"/>
      <point x="579.7169811320755" y="111.0377358490566" type="curve" smooth="yes"/>
      <point x="579.7169811320755" y="289.90566037735846"/>
      <point x="579.7169811320755" y="470.7735849056604"/>
      <point x="579.7169811320755" y="615.6792452830189" type="curve" smooth="yes"/>
      <point x="579.7169811320755" y="689.7169811320755"/>
      <point x="546.433962264151" y="708.3018867924528"/>
      <point x="490.47169811320754" y="708.3018867924528" type="curve" smooth="yes"/>
      <point x="470.4905660377359" y="708.3018867924528"/>
      <point x="453.75471698113205" y="705.7547169811321"/>
      <point x="436.3207547169812" y="701.5094339622641" type="curve"/>
      <point x="436.3207547169812" y="496.79245283018867"/>
      <point x="436.3207547169812" y="300.566037735849"/>
      <point x="436.3207547169812" y="101.79245283018867" type="curve" smooth="yes"/>
      <point x="436.3207547169812" y="28.226415094339618"/>
      <point x="471.54716981132077" y="-8.30188679245283"/>
      <point x="528.9622641509434" y="-8.30188679245283" type="curve" smooth="yes"/>
      <point x="551.0943396226415" y="-8.30188679245283"/>
      <point x="567.9811320754717" y="-5.603773584905661"/>
    </contour>
  </outline>
</glyph>
<glyph name="K" format="2">
  <advance width="600.0"/>
  <unicode hex="004B"/>
  <anchor x="322.75471698113205" y="-1.0" name="bottom"/>
  <outline>
    <contour>
      <point x="337.86792452830184" y="373.4339622641509" type="curve"/>
      <point x="236.24528301886792" y="259.0566037735849" type="line"/>
      <point x="272.47169811320754" y="259.0566037735849" type="line"/>
      <point x="306.7547169811321" y="167.811320754717"/>
      <point x="328.7735849056604" y="126.66037735849056"/>
      <point x="365.0566037735849" y="65.28301886792453" type="curve" smooth="yes"/>
      <point x="400.50943396226415" y="3.396226415094338"/>
      <point x="437.15094339622647" y="-20.0"/>
      <point x="485.33962264150944" y="-20.0" type="curve" smooth="yes"/>
      <point x="510.4339622641509" y="-20.0"/>
      <point x="529.377358490566" y="-14.150943396226415"/>
      <point x="542.4716981132076" y="-1.0566037735849072" type="curve" smooth="yes"/>
      <point x="557.1132075471698" y="13.584905660377355"/>
      <point x="565.2075471698114" y="40.415094339622634"/>
      <point x="565.2075471698114" y="72.64150943396226" type="curve" smooth="yes"/>
      <point x="565.2075471698114" y="103.86792452830187"/>
      <point x="563.3584905660377" y="121.66037735849055"/>
      <point x="558.811320754717" y="142.54716981132074" type="curve"/>
      <point x="553.1132075471698" y="142.54716981132074" type="line"/>
      <point x="542.9622641509435" y="134.49056603773585"/>
      <point x="531.3584905660377" y="131.0377358490566"/>
      <point x="513.2075471698113" y="131.0377358490566" type="curve" smooth="yes"/>
      <point x="489.11320754716985" y="131.0377358490566"/>
      <point x="467.5660377358491" y="145.58490566037733"/>
      <point x="447.26415094339626" y="182.67924528301884" type="curve" smooth="yes"/>
      <point x="411.1320754716981" y="246.2641509433962"/>
      <point x="374.0" y="309.8490566037736"/>
    </contour>
    <contour>
      <point x="429.07547169811323" y="710.0" type="curve"/>
      <point x="411.433962264151" y="710.0" type="line"/>
      <point x="395.39622641509436" y="614.3018867924528"/>
      <point x="363.9622641509434" y="535.8867924528302"/>
      <point x="327.16981132075466" y="478.92452830188677" type="curve" smooth="yes"/>
      <point x="291.90566037735846" y="420.64150943396226"/>
      <point x="254.64150943396226" y="377.39622641509436"/>
      <point x="214.77358490566036" y="344.3018867924528" type="curve"/>
      <point x="185.07547169811318" y="344.3018867924528" type="line"/>
      <point x="185.07547169811318" y="221.37735849056602" type="line"/>
      <point x="304.9811320754717" y="262.81132075471703"/>
      <point x="456.60377358490564" y="383.6037735849057"/>
      <point x="511.92452830188677" y="510.83018867924534" type="curve" smooth="yes"/>
      <point x="542.2830188679245" y="577.188679245283"/>
      <point x="548.132075471698" y="611.622641509434"/>
      <point x="548.132075471698" y="647.3962264150944" type="curve" smooth="yes"/>
      <point x="548.132075471698" y="681.5660377358491"/>
      <point x="507.4716981132076" y="710.0"/>
    </contour>
    <contour>
      <point x="56.67924528301888" y="701.0566037735849" type="curve"/>
      <point x="65.22641509433963" y="667.7547169811321"/>
      <point x="68.77358490566039" y="631.0566037735849"/>
      <point x="68.77358490566039" y="591.5094339622641" type="curve" smooth="yes"/>
      <point x="68.77358490566039" y="428.7735849056604"/>
      <point x="68.77358490566039" y="266.58490566037733"/>
      <point x="68.77358490566039" y="103.84905660377356" type="curve" smooth="yes"/>
      <point x="68.77358490566039" y="16.226415094339618"/>
      <point x="97.81132075471699" y="-8.30188679245283"/>
      <point x="155.47169811320754" y="-8.30188679245283" type="curve" smooth="yes"/>
      <point x="176.30188679245282" y="-8.30188679245283"/>
      <point x="189.64150943396223" y="-5.754716981132076"/>
      <point x="208.77358490566036" y="-1.5094339622641524" type="curve"/>
      <point x="208.77358490566036" y="203.20754716981133"/>
      <point x="208.77358490566036" y="408.77358490566036"/>
      <point x="208.77358490566036" y="613.4905660377359" type="curve" smooth="yes"/>
      <point x="208.77358490566036" y="669.9622641509434"/>
      <point x="184.3962264150943" y="708.3018867924528"/>
      <point x="116.1320754716981" y="708.3018867924528" type="curve"/>
      <point x="94.0" y="708.3018867924528"/>
      <point x="77.11320754716981" y="705.6037735849056"/>
    </contour>
  </outline>
</glyph>
<glyph name="P" format="2">
  <advance width="600.0"/>
  <unicode hex="0050"/>
  <outline>
    <contour>
      <point x="232.56603773584905" y="-0.30188679245283057" type="curve"/>
      <point x="224.0188679245283" y="31.30188679245283"/>
      <point x="222.16981132075472" y="65.45283018867924"/>
      <point x="222.16981132075472" y="97.35849056603774" type="curve" smooth="yes"/>
      <point x="222.16981132075472" y="230.0"/>
      <point x="222.16981132075472" y="360.33962264150944"/>
      <point x="222.16981132075472" y="490.8679245283019" type="curve" smooth="yes"/>
      <point x="222.16981132075472" y="531.4148799313585"/>
      <point x="212.59629086850944" y="559.1483894783208"/>
      <point x="187.7924528301887" y="575.0377358490565" type="curve"/>
      <point x="198.39622641509433" y="605.0377358490566" type="line"/>
      <point x="78.77358490566039" y="605.0377358490566" type="line"/>
      <point x="78.77358490566039" y="434.79245283018867"/>
      <point x="78.77358490566039" y="266.0"/>
      <point x="78.77358490566039" y="95.75471698113206" type="curve" smooth="yes"/>
      <point x="78.77358490566039" y="24.037735849056602"/>
      <point x="110.84905660377359" y="-5.849056603773585"/>
      <point x="185.0" y="-5.849056603773585" type="curve" smooth="yes"/>
      <point x="204.58490566037736" y="-5.849056603773585"/>
      <point x="216.377358490566" y="-4.0"/>
    </contour>
    <contour>
      <point x="25.377358490566042" y="700.0" type="curve"/>
      <point x="21.981132075471706" y="685.1132075471698"/>
      <point x="20.283018867924536" y="670.0754716981132"/>
      <point x="20.283018867924536" y="650.0943396226415" type="curve"/>
      <point x="20.283018867924536" y="591.9811320754717"/>
      <point x="32.37735849056604" y="565.0943396226415"/>
      <point x="61.716981132075475" y="565.0943396226415" type="curve" smooth="yes"/>
      <point x="83.26415094339623" y="565.0943396226415"/>
      <point x="170.56603773584905" y="585.0943396226415"/>
      <point x="281.39622641509436" y="585.0943396226415" type="curve"/>
      <point x="333.52830188679246" y="585.0943396226415"/>
      <point x="368.0377358490566" y="577.1886792452831"/>
      <point x="396.9056603773585" y="560.1698113207548" type="curve" smooth="yes"/>
      <point x="402.47169811320754" y="543.1509433962265"/>
      <point x="404.5283018867925" y="524.0754716981132"/>
      <point x="404.5283018867925" y="502.8490566037736" type="curve" smooth="yes"/>
      <point x="404.5283018867925" y="487.8490566037736" type="line" smooth="yes"/>
      <point x="404.5283018867925" y="351.49056603773585"/>
      <point x="349.79245283018867" y="290.188679245283"/>
      <point x="274.566037735849" y="290.188679245283" type="curve" smooth="yes"/>
      <point x="245.01886792452828" y="290.188679245283"/>
      <point x="222.37735849056602" y="293.8867924528302"/>
      <point x="199.1320754716981" y="300.8867924528302" type="curve"/>
      <point x="199.1320754716981" y="211.9811320754717" type="line" smooth="yes"/>
      <point x="228.16981132075472" y="213.0377358490566" type="line"/>
      <point x="247.66037735849054" y="180.81132075471697"/>
      <point x="275.9433962264151" y="162.0754716981132"/>
      <point x="310.4339622641509" y="162.0754716981132" type="curve" smooth="yes"/>
      <point x="433.0754716981132" y="162.0754716981132"/>
      <point x="546.2264150943397" y="271.8490566037736"/>
      <point x="546.2264150943397" y="490.64150943396226" type="curve" smooth="yes"/>
      <point x="546.2264150943397" y="500.20754716981133" type="line" smooth="yes"/>
      <point x="546.2264150943397" y="622.3207547169811"/>
      <point x="445.4150943396226" y="720.0"/>
      <point x="291.9811320754717" y="720.0" type="curve"/>
      <point x="206.66037735849056" y="720.0"/>
      <point x="112.18867924528304" y="714.3018867924528"/>
    </contour>
  </outline>
</glyph>
<glyph name="R" format="2">
  <advance width="600.0"/>
  <unicode hex="0052"/>
  <anchor x="297.6037735849057" y="711.0" name="top"/>
  <anchor x="297.6037735849057" y="-1.0" name="bottom"/>
  <outline>
    <contour>
      <point x="407.0754716981132" y="285.0566037735849" type="curve"/>
      <point x="311.2830188679245" y="225.39622641509433" type="line"/>
      <point x="324.1698113207547" y="167.54716981132077"/>
      <point x="343.8490566037736" y="117.18867924528301"/>
      <point x="374.566037735849" y="60.18867924528301" type="curve" smooth="yes"/>
      <point x="406.0754716981132" y="2.547169811320755"/>
      <point x="446.5660377358491" y="-20.0"/>
      <point x="497.3018867924528" y="-20.0" type="curve" smooth="yes"/>
      <point x="519.3018867924528" y="-20.0"/>
      <point x="534.6981132075471" y="-15.0"/>
      <point x="548.6415094339623" y="-1.0566037735849072" type="curve" smooth="yes"/>
      <point x="562.5849056603773" y="12.886792452830186"/>
      <point x="570.8301886792452" y="40.71698113207546"/>
      <point x="570.8301886792452" y="85.67924528301884" type="curve" smooth="yes"/>
      <point x="570.8301886792452" y="106.01886792452828"/>
      <point x="568.8301886792452" y="123.35849056603772"/>
      <point x="564.1320754716982" y="142.69811320754715" type="curve"/>
      <point x="558.132075471698" y="142.69811320754715" type="line"/>
      <point x="546.7358490566037" y="134.64150943396226"/>
      <point x="539.377358490566" y="131.88679245283018"/>
      <point x="522.5283018867924" y="131.88679245283018" type="curve" smooth="yes"/>
      <point x="494.4339622641509" y="131.88679245283018"/>
      <point x="472.2830188679245" y="145.73584905660374"/>
      <point x="451.5283018867924" y="182.67924528301884" type="curve"/>
      <point x="431.5471698113207" y="215.50943396226413"/>
      <point x="417.7169811320755" y="248.83018867924528"/>
    </contour>
    <contour>
      <point x="25.377358490566042" y="700.0" type="curve"/>
      <point x="21.981132075471706" y="684.2641509433963"/>
      <point x="20.283018867924536" y="669.2264150943397"/>
      <point x="20.283018867924536" y="650.0943396226414" type="curve"/>
      <point x="20.283018867924536" y="593.6792452830189"/>
      <point x="32.67924528301887" y="565.0943396226415"/>
      <point x="61.41509433962264" y="565.0943396226415" type="curve" smooth="yes"/>
      <point x="86.16981132075472" y="565.0943396226415"/>
      <point x="171.75471698113208" y="585.0943396226415"/>
      <point x="281.3962264150943" y="585.0943396226415" type="curve"/>
      <point x="325.9811320754717" y="585.0943396226415"/>
      <point x="355.54716981132077" y="580.188679245283"/>
      <point x="385.4150943396226" y="566.5660377358491" type="curve" smooth="yes"/>
      <point x="392.6792452830189" y="547.2075471698113"/>
      <point x="396.0377358490566" y="528.188679245283"/>
      <point x="396.0377358490566" y="503.75471698113205" type="curve" smooth="yes"/>
      <point x="396.0377358490566" y="488.9056603773585" type="line" smooth="yes"/>
      <point x="396.0377358490566" y="367.5283018867924"/>
      <point x="339.0188679245283" y="305.8867924528302"/>
      <point x="255.88679245283018" y="305.8867924528302" type="curve"/>
      <point x="218.69811320754715" y="305.8867924528302"/>
      <point x="207.94339622641508" y="307.8867924528302"/>
      <point x="192.33962264150944" y="313.188679245283" type="curve"/>
      <point x="192.33962264150944" y="210.8490566037736" type="line" smooth="yes"/>
      <point x="228.16981132075472" y="211.90566037735852" type="line"/>
      <point x="242.01886792452828" y="197.50943396226415"/>
      <point x="263.66037735849056" y="191.50943396226415"/>
      <point x="290.9622641509434" y="191.50943396226415" type="curve" smooth="yes"/>
      <point x="412.7547169811321" y="191.50943396226415"/>
      <point x="537.7358490566038" y="308.3054467781793"/>
      <point x="537.7358490566038" y="496.64150943396226" type="curve" smooth="yes"/>
      <point x="537.7358490566038" y="509.6037735849057" type="line" smooth="yes"/>
      <point x="537.7358490566038" y="611.4690026953868"/>
      <point x="462.62264150943395" y="720.0"/>
      <point x="278.3018867924528" y="720.0" type="curve"/>
      <point x="197.32075471698116" y="720.0"/>
      <point x="107.9433962264151" y="713.4528301886793"/>
    </contour>
    <contour>
      <point x="233.1698113207547" y="-0.45283018867924607" type="curve"/>
      <point x="224.01886792452828" y="29.641509433962263"/>
      <point x="222.1698113207547" y="60.018867924528294"/>
      <point x="222.1698113207547" y="93.58490566037736" type="curve"/>
      <point x="222.1698113207547" y="226.8301886792453"/>
      <point x="222.1698113207547" y="359.5849056603774"/>
      <point x="222.1698113207547" y="490.86792452830196" type="curve"/>
      <point x="222.1698113207547" y="531.8677101200378"/>
      <point x="212.2944040760566" y="559.2993328745473"/>
      <point x="187.79245283018867" y="575.0377358490565" type="curve" smooth="yes"/>
      <point x="198.54716981132074" y="604.8867924528302" type="line"/>
      <point x="78.77358490566039" y="604.8867924528302" type="line"/>
      <point x="78.77358490566039" y="434.188679245283"/>
      <point x="78.77358490566039" y="264.188679245283"/>
      <point x="78.77358490566039" y="93.49056603773585" type="curve" smooth="yes"/>
      <point x="78.77358490566039" y="23.433962264150942"/>
      <point x="111.75471698113208" y="-6.150943396226415"/>
      <point x="184.8490566037736" y="-6.150943396226415" type="curve" smooth="yes"/>
      <point x="204.73584905660377" y="-6.150943396226415"/>
      <point x="216.67924528301887" y="-4.30188679245283"/>
    </contour>
  </outline>
</glyph>
<glyph name="S" format="2">
  <advance width="600.0"/>
  <unicode hex="0053"/>
  <anchor x="320.2830188679245" y="711.0" name="top"/>
  <anchor x="304.24528301886795" y="-1.0" name="bottom"/>
  <anchor x="400.05660377358487" y="710.8490566037736" name="dot"/>
  <outline>
    <contour>
      <point x="369.50943396226415" y="720.0" type="curve" smooth="yes"/>
      <point x="217.47169811320754" y="720.0"/>
      <point x="77.26415094339623" y="578.2830188679246"/>
      <point x="77.26415094339623" y="445.64150943396226" type="curve" smooth="yes"/>
      <point x="77.26415094339623" y="433.09433962264154" type="line" smooth="yes"/>
      <point x="77.26415094339623" y="373.58490566037733"/>
      <point x="108.13207547169812" y="323.2452830188679"/>
      <point x="259.1132075471698" y="267.3018867924528" type="curve" smooth="yes"/>
      <point x="350.2075471698113" y="233.60377358490567" type="line" smooth="yes"/>
      <point x="398.64150943396226" y="215.64150943396226"/>
      <point x="427.69811320754724" y="189.0377358490566"/>
      <point x="429.0566037735849" y="154.83018867924528" type="curve" smooth="yes"/>
      <point x="429.0566037735849" y="150.1320754716981" type="line" smooth="yes"/>
      <point x="401.86792452830196" y="128.0377358490566"/>
      <point x="357.54716981132077" y="116.1132075471698"/>
      <point x="304.24528301886795" y="116.1132075471698" type="curve" smooth="yes"/>
      <point x="199.69811320754715" y="116.1132075471698"/>
      <point x="126.20754716981132" y="147.1132075471698"/>
      <point x="71.16981132075473" y="204.71698113207546" type="curve"/>
      <point x="65.16981132075473" y="204.71698113207546" type="line"/>
      <point x="61.169811320754725" y="190.32075471698113"/>
      <point x="58.320754716981135" y="170.83018867924525"/>
      <point x="58.320754716981135" y="146.49056603773585" type="curve" smooth="yes"/>
      <point x="58.320754716981135" y="95.67924528301886"/>
      <point x="72.50943396226415" y="58.35849056603774"/>
      <point x="92.30188679245283" y="38.56603773584906" type="curve"/>
      <point x="125.66037735849056" y="5.207547169811322"/>
      <point x="209.69811320754715" y="-18.79245283018868"/>
      <point x="304.24528301886795" y="-18.79245283018868" type="curve" smooth="yes"/>
      <point x="471.20754716981133" y="-18.79245283018868"/>
      <point x="550.3207547169811" y="50.39622641509433"/>
      <point x="550.3207547169811" y="158.52830188679243" type="curve" smooth="yes"/>
      <point x="550.3207547169811" y="172.86792452830187" type="line" smooth="yes"/>
      <point x="550.3207547169811" y="223.67924528301884"/>
      <point x="520.3962264150944" y="286.3584905660377"/>
      <point x="393.47169811320754" y="332.0" type="curve" smooth="yes"/>
      <point x="300.8301886792453" y="365.54716981132077" type="line" smooth="yes"/>
      <point x="232.71698113207546" y="390.1698113207547"/>
      <point x="213.86792452830187" y="407.7358490566038"/>
      <point x="212.16981132075472" y="439.33962264150944" type="curve" smooth="yes"/>
      <point x="212.16981132075472" y="443.79245283018867" type="line" smooth="yes"/>
      <point x="212.16981132075472" y="511.28301886792457"/>
      <point x="305.35849056603774" y="585.0943396226415"/>
      <point x="375.4528301886793" y="585.0943396226415" type="curve" smooth="yes"/>
      <point x="395.35849056603774" y="585.0943396226415"/>
      <point x="408.37735849056605" y="582.0943396226415"/>
      <point x="425.6792452830189" y="570.7358490566038" type="curve"/>
      <point x="404.377358490566" y="619.1132075471698" type="line"/>
      <point x="398.50943396226415" y="568.1320754716982"/>
      <point x="390.566037735849" y="541.4528301886792"/>
      <point x="390.566037735849" y="499.94339622641513" type="curve" smooth="yes"/>
      <point x="390.566037735849" y="449.8679245283019"/>
      <point x="422.0943396226415" y="432.1698113207547"/>
      <point x="477.5094339622641" y="432.1698113207547" type="curve" smooth="yes"/>
      <point x="497.09433962264154" y="432.1698113207547"/>
      <point x="513.8301886792453" y="436.5660377358491"/>
      <point x="525.4716981132076" y="441.11320754716985" type="curve"/>
      <point x="525.4716981132076" y="474.6792452830189"/>
      <point x="525.4716981132076" y="512.3396226415094"/>
      <point x="525.4716981132076" y="549.3018867924528" type="curve"/>
      <point x="525.4716981132076" y="595.7358490566037"/>
      <point x="518.622641509434" y="635.9811320754717"/>
      <point x="486.1320754716981" y="668.4716981132076" type="curve" smooth="yes"/>
      <point x="454.3962264150943" y="700.2075471698114"/>
      <point x="419.9056603773585" y="720.0"/>
    </contour>
  </outline>
</glyph>
<glyph name="W" format="2">
  <advance width="900.0"/>
  <unicode hex="0057"/>
  <anchor x="449.0" y="711.0" name="top"/>
  <outline>
    <contour>
      <point x="34.981132075471706" y="700.9056603773585" type="curve"/>
      <point x="40.22641509433963" y="666.9056603773585"/>
      <point x="43.07547169811321" y="623.8679245283018"/>
      <point x="43.377358490566046" y="576.7735849056604" type="curve" smooth="yes"/>
      <point x="47.792452830188694" y="224.03773584905662"/>
      <point x="126.41509433962264" y="93.64150943396227"/>
      <point x="206.79245283018867" y="15.924528301886795" type="curve" smooth="yes"/>
      <point x="223.05660377358492" y="-1.0566037735849072"/>
      <point x="242.0" y="-8.30188679245283"/>
      <point x="267.3962264150943" y="-8.30188679245283" type="curve" smooth="yes"/>
      <point x="288.73584905660374" y="-8.30188679245283"/>
      <point x="302.52830188679246" y="-7.301886792452831"/>
      <point x="311.22641509433964" y="-5.301886792452831" type="curve"/>
      <point x="368.9433962264151" y="62.54716981132077"/>
      <point x="426.50943396226415" y="178.0188679245283"/>
      <point x="452.0" y="314.622641509434" type="curve"/>
      <point x="417.5660377358491" y="280.94339622641513" type="line"/>
      <point x="478.18867924528297" y="280.94339622641513" type="line"/>
      <point x="446.1509433962264" y="314.622641509434" type="line"/>
      <point x="467.0" y="177.30188679245285"/>
      <point x="512.5283018867925" y="83.24528301886794"/>
      <point x="571.3207547169811" y="18.150943396226417" type="curve" smooth="yes"/>
      <point x="590.9622641509434" y="-3.301886792452831"/>
      <point x="601.2641509433963" y="-8.30188679245283"/>
      <point x="634.4528301886793" y="-8.30188679245283" type="curve" smooth="yes"/>
      <point x="651.1509433962264" y="-8.30188679245283"/>
      <point x="672.7358490566038" y="-7.301886792452831"/>
      <point x="679.7358490566038" y="-5.301886792452831" type="curve"/>
      <point x="781.1698113207547" y="88.62264150943398"/>
      <point x="859.2075471698113" y="335.0943396226416"/>
      <point x="861.622641509434" y="600.9433962264151" type="curve"/>
      <point x="861.7735849056603" y="688.9622641509434"/>
      <point x="839.6415094339623" y="708.3018867924528"/>
      <point x="772.7924528301887" y="708.3018867924528" type="curve"/>
      <point x="756.0" y="708.3018867924528"/>
      <point x="737.1132075471697" y="705.6037735849056"/>
      <point x="720.0754716981132" y="701.0566037735849" type="curve"/>
      <point x="722.6037735849058" y="413.05660377358487"/>
      <point x="680.4150943396227" y="226.03773584905656"/>
      <point x="603.8301886792452" y="111.88679245283015" type="curve"/>
      <point x="638.9811320754717" y="140.22641509433961" type="line"/>
      <point x="574.3396226415094" y="140.22641509433961" type="line"/>
      <point x="628.3207547169811" y="112.58490566037733" type="line"/>
      <point x="570.4150943396227" y="221.24528301886792"/>
      <point x="535.433962264151" y="352.16981132075466"/>
      <point x="516.622641509434" y="559.566037735849" type="curve"/>
      <point x="512.7735849056603" y="605.9433962264151"/>
      <point x="480.1509433962264" y="622.7358490566037"/>
      <point x="426.1698113207547" y="622.7358490566037" type="curve"/>
      <point x="396.622641509434" y="622.7358490566037" type="line"/>
      <point x="374.60377358490564" y="386.1698113207547"/>
      <point x="325.8490566037736" y="219.05660377358487"/>
      <point x="252.45283018867926" y="113.43396226415095" type="curve"/>
      <point x="291.4339622641509" y="140.22641509433961" type="line"/>
      <point x="231.32075471698116" y="140.22641509433961" type="line"/>
      <point x="277.09433962264154" y="112.58490566037733" type="line"/>
      <point x="218.0754716981132" y="225.03773584905656"/>
      <point x="193.49056603773585" y="365.0943396226415"/>
      <point x="189.71698113207546" y="603.6415094339624" type="curve" smooth="yes"/>
      <point x="189.56603773584905" y="684.4716981132076"/>
      <point x="168.98113207547166" y="708.3018867924528"/>
      <point x="92.24528301886792" y="708.3018867924528" type="curve" smooth="yes"/>
      <point x="75.15094339622641" y="708.3018867924528"/>
      <point x="56.9622641509434" y="705.4528301886793"/>
    </contour>
  </outline>
</glyph>
<glyph name="Y" format="2">
  <advance width="650.0"/>
  <unicode hex="0059"/>
  <anchor x="320.0" y="711.8490566037735" name="top"/>
  <anchor x="322.45283018867923" y="-145.24528301886792" name="dot"/>
  <anchor x="319.9056603773585" y="770.0" name="hook"/>
  <anchor x="325.0" y="-1.0" name="bottom"/>
  <outline>
    <contour>
      <point x="406.33962264150944" y="-1.0566037735849072" type="curve"/>
      <point x="395.2452830188679" y="32.24528301886792"/>
      <point x="391.6981132075471" y="68.94339622641509"/>
      <point x="391.6981132075471" y="108.49056603773585" type="curve"/>
      <point x="391.6981132075471" y="157.54716981132074"/>
      <point x="391.6981132075471" y="206.20754716981133"/>
      <point x="391.6981132075471" y="255.26415094339623" type="curve"/>
      <point x="248.30188679245285" y="255.26415094339623" type="line"/>
      <point x="248.30188679245285" y="198.54716981132074"/>
      <point x="248.30188679245285" y="140.67924528301887"/>
      <point x="248.30188679245285" y="83.96226415094338" type="curve" smooth="yes"/>
      <point x="248.30188679245285" y="27.49056603773585"/>
      <point x="269.28301886792457" y="-8.30188679245283"/>
      <point x="346.0377358490566" y="-8.30188679245283" type="curve" smooth="yes"/>
      <point x="368.1698113207547" y="-8.30188679245283"/>
      <point x="383.35849056603774" y="-5.603773584905661"/>
    </contour>
    <contour>
      <point x="48.64150943396226" y="700.9056603773585" type="curve"/>
      <point x="74.41509433962264" y="470.28301886792457"/>
      <point x="140.83018867924528" y="328.62264150943395"/>
      <point x="234.71698113207546" y="236.24528301886792" type="curve"/>
      <point x="271.6792452830189" y="199.2830188679245"/>
      <point x="301.75471698113205" y="195.73584905660377"/>
      <point x="365.77358490566036" y="195.73584905660377" type="curve"/>
      <point x="468.45283018867923" y="284.1698113207547"/>
      <point x="568.8490566037736" y="449.0943396226415"/>
      <point x="588.2075471698113" y="643.0943396226415" type="curve"/>
      <point x="591.9056603773586" y="682.1698113207548"/>
      <point x="561.433962264151" y="708.3018867924528"/>
      <point x="510.86792452830196" y="708.3018867924528" type="curve"/>
      <point x="490.37735849056605" y="708.3018867924528"/>
      <point x="471.03773584905656" y="706.3018867924528"/>
      <point x="452.1509433962264" y="700.9056603773585" type="curve"/>
      <point x="433.33962264150944" y="523.7924528301886"/>
      <point x="393.8679245283019" y="419.52830188679246"/>
      <point x="306.3018867924528" y="297.50943396226415" type="curve"/>
      <point x="353.2452830188679" y="323.54716981132077" type="line"/>
      <point x="285.0566037735849" y="323.54716981132077" type="line"/>
      <point x="330.0" y="296.811320754717" type="line"/>
      <point x="253.58490566037733" y="408.8301886792453"/>
      <point x="219.2075471698113" y="505.58490566037733"/>
      <point x="204.4339622641509" y="614.8301886792453" type="curve"/>
      <point x="195.49056603773585" y="690.4150943396227"/>
      <point x="173.75471698113205" y="708.3018867924528"/>
      <point x="107.0566037735849" y="708.3018867924528" type="curve" smooth="yes"/>
      <point x="86.86792452830188" y="708.3018867924528"/>
      <point x="67.37735849056602" y="706.3018867924528"/>
    </contour>
  </outline>
</glyph>
<glyph name="Z" format="2">
  <advance width="600.0"/>
  <unicode hex="005A"/>
  <anchor x="300.0" y="711.0" name="top"/>
  <anchor x="301.35849056603774" y="0.0" name="bottom"/>
  <outline>
    <contour>
      <point x="545.4905660377359" y="0.0" type="line"/>
      <point x="547.4905660377359" y="7.69811320754717"/>
      <point x="548.4905660377359" y="17.24528301886793"/>
      <point x="548.4905660377359" y="29.188679245283012" type="curve" smooth="yes"/>
      <point x="548.4905660377359" y="90.33962264150942"/>
      <point x="532.0" y="134.9056603773585"/>
      <point x="471.7924528301887" y="134.9056603773585" type="curve"/>
      <point x="374.9433962264151" y="134.9056603773585" type="line"/>
      <point x="330.2641509433962" y="134.9056603773585"/>
      <point x="280.64150943396226" y="134.0566037735849"/>
      <point x="194.35849056603774" y="125.66037735849055" type="curve"/>
      <point x="224.0566037735849" y="107.71698113207546" type="line"/>
      <point x="222.54716981132074" y="161.8490566037736" type="line"/>
      <point x="198.05660377358487" y="114.11320754716978" type="line"/>
      <point x="251.92452830188677" y="157.41509433962264"/>
      <point x="304.26415094339626" y="205.8679245283019"/>
      <point x="349.73584905660374" y="255.96226415094338" type="curve" smooth="yes"/>
      <point x="461.1886792452831" y="372.9056603773585"/>
      <point x="547.6415094339623" y="496.8679245283019"/>
      <point x="548.4905660377359" y="552.3584905660377" type="curve"/>
      <point x="548.4905660377359" y="560.4528301886793" type="line" smooth="yes"/>
      <point x="548.4905660377359" y="660.4150943396227"/>
      <point x="529.0377358490566" y="700.0"/>
      <point x="478.1509433962264" y="700.0" type="curve"/>
      <point x="111.50943396226415" y="700.0" type="line"/>
      <point x="95.62264150943398" y="651.4905660377358"/>
      <point x="114.90566037735849" y="569.3396226415094"/>
      <point x="171.41509433962264" y="569.3396226415094" type="curve"/>
      <point x="302.60377358490564" y="569.3396226415094" type="line"/>
      <point x="357.33962264150944" y="569.3396226415094"/>
      <point x="391.7169811320755" y="573.8867924528302"/>
      <point x="433.64150943396226" y="587.6792452830189" type="curve"/>
      <point x="402.6792452830189" y="610.622641509434" type="line"/>
      <point x="407.35849056603774" y="535.4528301886793" type="line"/>
      <point x="419.88679245283026" y="605.5283018867924" type="line"/>
      <point x="391.94339622641513" y="539.4716981132076"/>
      <point x="359.7169811320755" y="479.2641509433962"/>
      <point x="322.07547169811323" y="423.66037735849056" type="curve" smooth="yes"/>
      <point x="249.47169811320754" y="313.4150943396226"/>
      <point x="165.05660377358492" y="223.05660377358487"/>
      <point x="51.509433962264154" y="126.41509433962264" type="curve"/>
      <point x="51.509433962264154" y="112.1698113207547" type="line" smooth="yes"/>
      <point x="51.509433962264154" y="42.47169811320754"/>
      <point x="70.09433962264151" y="0.0"/>
      <point x="132.24528301886792" y="0.0" type="curve" smooth="yes"/>
    </contour>
    <contour>
      <point x="197.73584905660374" y="507.8490566037736" type="curve"/>
      <point x="197.73584905660374" y="611.132075471698"/>
      <point x="223.0377358490566" y="657.2075471698113"/>
      <point x="223.188679245283" y="713.4150943396226" type="curve"/>
      <point x="223.3396226415094" y="740.754716981132"/>
      <point x="192.0566037735849" y="758.4905660377359"/>
      <point x="110.41509433962264" y="758.4905660377359" type="curve"/>
      <point x="82.47169811320755" y="700.2452830188679"/>
      <point x="64.52830188679246" y="630.1509433962265"/>
      <point x="64.52830188679246" y="558.566037735849" type="curve"/>
      <point x="64.52830188679246" y="516.7924528301887"/>
      <point x="86.32075471698114" y="502.4528301886793"/>
      <point x="146.22641509433961" y="502.4528301886793" type="curve" smooth="yes"/>
      <point x="166.50943396226413" y="502.4528301886793"/>
      <point x="184.54716981132074" y="504.3018867924528"/>
    </contour>
  </outline>
</glyph>
<glyph name="c" format="2">
  <advance width="500.0"/>
  <unicode hex="0063"/>
  <anchor x="287.188679245283" y="548.8867924528302" name="top"/>
  <anchor x="289.73584905660374" y="-1.0" name="bottom"/>
  <outline>
    <contour>
      <point x="328.8301886792453" y="549.5849056603773" type="curve" smooth="yes"/>
      <point x="164.69811320754718" y="549.5849056603773"/>
      <point x="53.86792452830189" y="430.433962264151"/>
      <point x="53.86792452830189" y="254.32075471698113" type="curve" smooth="yes"/>
      <point x="53.86792452830189" y="240.16981132075472" type="line" smooth="yes"/>
      <point x="53.86792452830189" y="62.23259723834906"/>
      <point x="162.3365463898868" y="-12.0"/>
      <point x="301.49056603773585" y="-11.69811320754717" type="curve" smooth="yes"/>
      <point x="365.5849056603774" y="-11.69811320754717"/>
      <point x="413.79245283018867" y="0.6603773584905674"/>
      <point x="434.0943396226415" y="20.962264150943398" type="curve" smooth="yes"/>
      <point x="454.58490566037733" y="41.45283018867924"/>
      <point x="463.5283018867924" y="76.28301886792453"/>
      <point x="463.5283018867924" y="122.75471698113208" type="curve" smooth="yes"/>
      <point x="463.5283018867924" y="142.64150943396226"/>
      <point x="462.5283018867924" y="154.43396226415092"/>
      <point x="459.8301886792453" y="167.77358490566036" type="curve"/>
      <point x="454.1320754716981" y="167.77358490566036" type="line"/>
      <point x="408.64150943396226" y="132.16981132075472"/>
      <point x="369.0943396226415" y="118.96226415094338"/>
      <point x="308.98113207547175" y="118.96226415094338" type="curve" smooth="yes"/>
      <point x="269.1698113207547" y="118.96226415094338"/>
      <point x="235.7169811320755" y="126.56603773584904"/>
      <point x="205.66037735849056" y="145.22641509433961" type="curve" smooth="yes"/>
      <point x="194.73584905660377" y="169.188679245283"/>
      <point x="188.77358490566039" y="198.35849056603772"/>
      <point x="188.77358490566039" y="228.9811320754717" type="curve" smooth="yes"/>
      <point x="188.77358490566039" y="240.73584905660377" type="line" smooth="yes"/>
      <point x="188.77358490566039" y="338.64150943396226"/>
      <point x="234.94339622641508" y="411.28301886792457"/>
      <point x="319.13207547169816" y="411.28301886792457" type="curve" smooth="yes"/>
      <point x="370.49056603773585" y="411.28301886792457"/>
      <point x="398.5471698113207" y="402.07547169811323"/>
      <point x="436.54716981132077" y="373.5660377358491" type="curve"/>
      <point x="442.2452830188679" y="373.5660377358491" type="line"/>
      <point x="452.73584905660374" y="397.00000000000006"/>
      <point x="457.1320754716981" y="420.9811320754717"/>
      <point x="457.1320754716981" y="452.05660377358487" type="curve" smooth="yes"/>
      <point x="457.1320754716981" y="488.7358490566038"/>
      <point x="449.88679245283015" y="505.9811320754717"/>
      <point x="434.64150943396226" y="521.2264150943396" type="curve" smooth="yes"/>
      <point x="416.5849056603774" y="539.2830188679246"/>
      <point x="379.9811320754717" y="549.5849056603773"/>
    </contour>
  </outline>
</glyph>
<glyph name="h" format="2">
  <advance width="600.0"/>
  <unicode hex="0068"/>
  <anchor x="135.43396226415095" y="730.0" name="top"/>
  <anchor x="305.1509433962264" y="0.0" name="bottom"/>
  <outline>
    <contour>
      <point x="168.0188679245283" y="-3.3018867924528306" type="curve" smooth="yes"/>
      <point x="181.20754716981133" y="-3.3018867924528306"/>
      <point x="189.45283018867926" y="-3.3018867924528306"/>
      <point x="205.188679245283" y="-0.7547169811320762" type="curve"/>
      <point x="205.188679245283" y="201.07547169811323"/>
      <point x="205.188679245283" y="389.0188679245283"/>
      <point x="205.188679245283" y="594.2452830188679" type="curve" smooth="yes"/>
      <point x="205.188679245283" y="718.1132075471698"/>
      <point x="150.77358490566036" y="755.5471698113207"/>
      <point x="92.26415094339623" y="755.5471698113207" type="curve"/>
      <point x="78.77358490566039" y="755.5471698113207"/>
      <point x="65.13207547169812" y="752.8490566037735"/>
      <point x="51.64150943396227" y="750.0" type="curve"/>
      <point x="64.8867924528302" y="725.5471698113208"/>
      <point x="70.28301886792454" y="687.9245283018868"/>
      <point x="70.28301886792454" y="652.811320754717" type="curve" smooth="yes"/>
      <point x="70.28301886792454" y="440.50943396226415"/>
      <point x="70.28301886792454" y="298.2264150943396"/>
      <point x="70.28301886792454" y="74.88679245283018" type="curve" smooth="yes"/>
      <point x="70.28301886792454" y="33.96226415094339"/>
      <point x="94.22641509433963" y="-3.3018867924528306"/>
    </contour>
    <contour>
      <point x="186.0" y="149.8867924528302" type="line"/>
      <point x="238.24528301886792" y="337.22641509433964"/>
      <point x="301.8301886792453" y="400.39622641509436"/>
      <point x="364.811320754717" y="400.39622641509436" type="curve" smooth="yes"/>
      <point x="380.94339622641513" y="400.39622641509436"/>
      <point x="393.50943396226415" y="392.0188679245283"/>
      <point x="404.4150943396226" y="375.7169811320755" type="curve" smooth="yes"/>
      <point x="387.1698113207547" y="284.33962264150944"/>
      <point x="375.8301886792453" y="206.16981132075472"/>
      <point x="375.8301886792453" y="129.1509433962264" type="curve" smooth="yes"/>
      <point x="375.8301886792453" y="22.452830188679247"/>
      <point x="416.9622641509434" y="-5.396226415094339"/>
      <point x="493.05660377358487" y="-5.396226415094339" type="curve" smooth="yes"/>
      <point x="511.64150943396226" y="-5.396226415094339"/>
      <point x="526.8301886792453" y="-3.547169811320754"/>
      <point x="544.566037735849" y="0.0" type="curve"/>
      <point x="529.3207547169811" y="56.58490566037736"/>
      <point x="524.622641509434" y="92.28301886792454"/>
      <point x="524.622641509434" y="153.71698113207546" type="curve" smooth="yes"/>
      <point x="524.622641509434" y="231.1320754716981"/>
      <point x="524.622641509434" y="308.54716981132077"/>
      <point x="524.622641509434" y="385.9622641509434" type="curve" smooth="yes"/>
      <point x="524.622641509434" y="462.66037735849056"/>
      <point x="474.377358490566" y="549.7358490566038"/>
      <point x="413.20754716981133" y="549.7358490566038" type="curve"/>
      <point x="330.05660377358487" y="549.7358490566038"/>
      <point x="250.9056603773585" y="474.6792452830188"/>
      <point x="212.0377358490566" y="375.566037735849" type="curve"/>
      <point x="185.54716981132074" y="375.566037735849" type="line"/>
    </contour>
  </outline>
</glyph>
<glyph name="k" format="2">
  <advance width="600.0"/>
  <unicode hex="006B"/>
  <anchor x="318.9811320754717" y="-1.0" name="bottom"/>
  <outline>
    <contour>
      <point x="205.188679245283" y="-0.7547169811320762" type="curve"/>
      <point x="205.188679245283" y="201.0754716981132"/>
      <point x="205.188679245283" y="389.0188679245283"/>
      <point x="205.188679245283" y="594.2452830188679" type="curve" smooth="yes"/>
      <point x="205.188679245283" y="718.1132075471698"/>
      <point x="150.77358490566036" y="755.5471698113207"/>
      <point x="92.26415094339623" y="755.5471698113207" type="curve"/>
      <point x="78.77358490566039" y="755.5471698113207"/>
      <point x="65.13207547169812" y="752.8490566037735"/>
      <point x="51.64150943396227" y="750.0" type="curve"/>
      <point x="64.8867924528302" y="725.5471698113208"/>
      <point x="70.28301886792454" y="687.9245283018868"/>
      <point x="70.28301886792454" y="652.811320754717" type="curve" smooth="yes"/>
      <point x="70.28301886792454" y="462.5849056603774"/>
      <point x="70.28301886792454" y="333.88679245283015"/>
      <point x="70.28301886792454" y="134.3207547169811" type="curve" smooth="yes"/>
      <point x="70.28301886792454" y="62.83018867924527"/>
      <point x="94.22641509433963" y="-3.3018867924528306"/>
      <point x="168.0188679245283" y="-3.3018867924528306" type="curve" smooth="yes"/>
      <point x="181.20754716981133" y="-3.3018867924528306"/>
      <point x="189.45283018867926" y="-3.3018867924528306"/>
    </contour>
    <contour>
      <point x="489.94339622641513" y="-10.0" type="curve" smooth="yes"/>
      <point x="524.9622641509434" y="-10.0"/>
      <point x="559.132075471698" y="-3.905660377358492"/>
      <point x="581.1132075471697" y="9.132075471698109" type="curve"/>
      <point x="490.11320754716985" y="96.52830188679243"/>
      <point x="411.3584905660377" y="203.32075471698113"/>
      <point x="351.1509433962264" y="320.3584905660377" type="curve"/>
      <point x="253.4528301886793" y="217.52830188679246" type="line"/>
      <point x="284.0" y="216.77358490566036" type="line"/>
      <point x="295.20754716981133" y="180.67924528301887"/>
      <point x="309.9622641509434" y="147.67924528301887"/>
      <point x="329.37735849056605" y="113.16981132075472" type="curve" smooth="yes"/>
      <point x="349.188679245283" y="78.41509433962264"/>
      <point x="373.3018867924529" y="47.45283018867924"/>
      <point x="397.9622641509434" y="22.792452830188676" type="curve" smooth="yes"/>
      <point x="420.50943396226415" y="0.2452830188679238"/>
      <point x="448.3018867924528" y="-10.0"/>
    </contour>
    <contour>
      <point x="165.45283018867926" y="283.45283018867923" type="line"/>
      <point x="168.0188679245283" y="186.0" type="line"/>
      <point x="305.1320754716981" y="202.41509433962264"/>
      <point x="450.8490566037736" y="302.66037735849056"/>
      <point x="522.8679245283018" y="439.0566037735849" type="curve" smooth="yes"/>
      <point x="538.9056603773585" y="468.5849056603774"/>
      <point x="543.6037735849056" y="483.22641509433964"/>
      <point x="543.6037735849056" y="499.11320754716985" type="curve" smooth="yes"/>
      <point x="543.6037735849056" y="529.3396226415094"/>
      <point x="496.1509433962264" y="548.9811320754717"/>
      <point x="433.0377358490566" y="548.9811320754717" type="curve"/>
      <point x="411.1509433962264" y="548.9811320754717" type="line"/>
      <point x="388.1320754716981" y="481.1132075471698"/>
      <point x="357.0188679245283" y="424.60377358490564"/>
      <point x="314.11320754716985" y="371.35849056603774" type="curve" smooth="yes"/>
      <point x="285.18867924528297" y="336.33962264150944"/>
      <point x="250.41509433962264" y="306.58490566037733"/>
      <point x="210.0377358490566" y="281.188679245283" type="curve"/>
    </contour>
  </outline>
</glyph>
<glyph name="l" format="2">
  <advance width="350.0"/>
  <unicode hex="006C"/>
  <outline>
    <contour>
      <point x="82.54716981132077" y="653.8679245283018" type="curve" smooth="yes"/>
      <point x="82.54716981132077" y="493.9433962264151"/>
      <point x="82.54716981132077" y="324.5283018867924"/>
      <point x="82.54716981132077" y="150.16981132075472" type="curve" smooth="yes"/>
      <point x="82.54716981132077" y="74.50943396226414"/>
      <point x="123.13207547169812" y="-10.0"/>
      <point x="229.45283018867926" y="-10.0" type="curve" smooth="yes"/>
      <point x="258.6981132075472" y="-10.0"/>
      <point x="284.24528301886795" y="-5.849056603773585"/>
      <point x="298.94339622641513" y="8.849056603773585" type="curve" smooth="yes"/>
      <point x="315.73584905660374" y="25.641509433962263"/>
      <point x="325.52830188679246" y="54.018867924528294"/>
      <point x="325.52830188679246" y="97.64150943396226" type="curve" smooth="yes"/>
      <point x="325.52830188679246" y="117.52830188679243"/>
      <point x="324.52830188679246" y="129.47169811320754"/>
      <point x="321.8301886792453" y="141.11320754716982" type="curve"/>
      <point x="315.8301886792453" y="141.11320754716982" type="line"/>
      <point x="299.1320754716981" y="127.9622641509434"/>
      <point x="282.6792452830189" y="120.66037735849055"/>
      <point x="257.07547169811323" y="120.66037735849055" type="curve" smooth="yes"/>
      <point x="241.62264150943395" y="120.66037735849055"/>
      <point x="232.56603773584905" y="124.66037735849055"/>
      <point x="224.96226415094338" y="130.2641509433962" type="curve" smooth="yes"/>
      <point x="219.45283018867923" y="149.56603773584902"/>
      <point x="217.45283018867923" y="172.56603773584902"/>
      <point x="217.45283018867923" y="204.43396226415092" type="curve" smooth="yes"/>
      <point x="217.45283018867923" y="347.0754716981132"/>
      <point x="217.45283018867923" y="495.1132075471698"/>
      <point x="217.45283018867923" y="637.7547169811321" type="curve" smooth="yes"/>
      <point x="217.45283018867923" y="728.4339622641509"/>
      <point x="172.73584905660377" y="756.6037735849056"/>
      <point x="121.50943396226415" y="756.6037735849056" type="curve" smooth="yes"/>
      <point x="102.07547169811322" y="756.6037735849056"/>
      <point x="82.49056603773587" y="754.7547169811321"/>
      <point x="68.15094339622644" y="751.0566037735849" type="curve"/>
      <point x="77.15094339622644" y="726.6037735849058"/>
      <point x="82.54716981132077" y="688.9811320754717"/>
    </contour>
  </outline>
</glyph>
<glyph name="r" format="2">
  <advance width="450.0"/>
  <unicode hex="0072"/>
  <anchor x="242.26415094339626" y="548.8867924528302" name="top"/>
  <anchor x="146.37735849056605" y="-1.0" name="bottom"/>
  <outline>
    <contour>
      <point x="202.28301886792454" y="371.86792452830184" type="line"/>
      <point x="202.28301886792454" y="190.54716981132077" type="line"/>
      <point x="242.42136444040565" y="333.6260065615754"/>
      <point x="287.12092624357547" y="393.75471698113205"/>
      <point x="351.75471698113205" y="393.75471698113205" type="curve" smooth="yes"/>
      <point x="376.50430481772645" y="393.75471698113205"/>
      <point x="390.685271799217" y="388.1338186134812"/>
      <point x="408.3018867924528" y="376.6603773584906" type="curve"/>
      <point x="414.3018867924528" y="376.6603773584906" type="line"/>
      <point x="422.36469752363206" y="398.15826821950947"/>
      <point x="424.54716981132077" y="423.36201534316984"/>
      <point x="424.54716981132077" y="449.96226415094344" type="curve" smooth="yes"/>
      <point x="424.54716981132077" y="500.1686069851321"/>
      <point x="416.60377358490564" y="525.3962264150944"/>
      <point x="400.5660377358491" y="541.4339622641509" type="curve" smooth="yes"/>
      <point x="389.3207547169811" y="552.8301886792452"/>
      <point x="376.94707179616034" y="556.9811320754717"/>
      <point x="358.2452830188679" y="556.9811320754717" type="curve" smooth="yes"/>
      <point x="294.42914492174526" y="556.9811320754717"/>
      <point x="245.90652482669807" y="490.9657219483868"/>
      <point x="214.73584905660374" y="371.86792452830184" type="curve"/>
    </contour>
    <contour>
      <point x="208.58490566037733" y="-0.7547169811320762" type="curve"/>
      <point x="208.58490566037733" y="110.9433962264151"/>
      <point x="208.58490566037733" y="250.50943396226415"/>
      <point x="208.58490566037733" y="382.5849056603774" type="curve" smooth="yes"/>
      <point x="208.58490566037733" y="506.45283018867923"/>
      <point x="160.1132075471698" y="543.8867924528302"/>
      <point x="95.66037735849056" y="543.8867924528302" type="curve"/>
      <point x="82.1698113207547" y="543.8867924528302"/>
      <point x="68.52830188679246" y="541.188679245283"/>
      <point x="55.03773584905661" y="538.3396226415094" type="curve"/>
      <point x="68.28301886792454" y="513.8867924528302"/>
      <point x="73.67924528301887" y="476.26415094339626"/>
      <point x="73.67924528301887" y="441.1509433962264" type="curve" smooth="yes"/>
      <point x="73.67924528301887" y="325.62264150943395"/>
      <point x="73.67924528301887" y="212.49056603773585"/>
      <point x="73.67924528301887" y="78.28301886792451" type="curve" smooth="yes"/>
      <point x="73.67924528301887" y="28.86792452830188"/>
      <point x="96.77358490566039" y="-4.150943396226415"/>
      <point x="169.71698113207546" y="-4.150943396226415" type="curve" smooth="yes"/>
      <point x="182.9056603773585" y="-4.150943396226415"/>
      <point x="192.8490566037736" y="-3.3018867924528306"/>
    </contour>
  </outline>
</glyph>
<glyph name="s" format="2">
  <advance width="550.0"/>
  <unicode hex="0073"/>
  <anchor x="277.54716981132077" y="548.8867924528302" name="top"/>
  <anchor x="277.54716981132077" y="-1.0" name="bottom"/>
  <anchor x="342.4339622641509" y="548.8867924528303" name="dot"/>
  <outline>
    <contour>
      <point x="295.3207547169811" y="123.20754716981129" type="curve" smooth="yes"/>
      <point x="173.71698113207546" y="123.20754716981129"/>
      <point x="135.50943396226415" y="136.9056603773585"/>
      <point x="64.62264150943398" y="178.81132075471697" type="curve"/>
      <point x="58.62264150943397" y="178.81132075471697" type="line"/>
      <point x="55.9245283018868" y="165.62264150943395"/>
      <point x="54.07547169811322" y="151.2830188679245"/>
      <point x="54.07547169811322" y="130.54716981132074" type="curve" smooth="yes"/>
      <point x="54.07547169811322" y="76.49056603773585"/>
      <point x="67.11320754716982" y="48.15094339622642"/>
      <point x="85.05660377358491" y="30.207547169811324" type="curve" smooth="yes"/>
      <point x="113.0566037735849" y="2.056603773584907"/>
      <point x="177.41509433962264" y="-11.69811320754717"/>
      <point x="285.4339622641509" y="-11.69811320754717" type="curve" smooth="yes"/>
      <point x="429.2641509433962" y="-11.69811320754717"/>
      <point x="501.1698113207547" y="45.45283018867924"/>
      <point x="501.1698113207547" y="160.67924528301887" type="curve" smooth="yes"/>
      <point x="501.1698113207547" y="235.2641509433962"/>
      <point x="460.0188679245283" y="288.66037735849056"/>
      <point x="355.2452830188679" y="312.99999999999994" type="curve" smooth="yes"/>
      <point x="298.90566037735846" y="325.7547169811321" type="line" smooth="yes"/>
      <point x="227.77358490566036" y="342.05660377358487"/>
      <point x="213.22641509433961" y="349.03773584905656"/>
      <point x="213.22641509433961" y="370.50943396226415" type="curve" smooth="yes"/>
      <point x="213.22641509433961" y="395.0943396226415"/>
      <point x="248.90566037735846" y="415.1320754716981"/>
      <point x="330.4150943396226" y="415.1320754716981" type="curve" smooth="yes"/>
      <point x="393.71698113207543" y="415.1320754716981"/>
      <point x="425.0188679245283" y="403.433962264151"/>
      <point x="465.62264150943395" y="384.52830188679246" type="curve"/>
      <point x="471.622641509434" y="384.52830188679246" type="line"/>
      <point x="474.47169811320754" y="396.3207547169811"/>
      <point x="476.3207547169811" y="408.4150943396226"/>
      <point x="476.3207547169811" y="420.35849056603774" type="curve" smooth="yes"/>
      <point x="476.3207547169811" y="471.7169811320755"/>
      <point x="465.8301886792453" y="504.09433962264154"/>
      <point x="446.49056603773585" y="523.433962264151" type="curve" smooth="yes"/>
      <point x="430.0943396226415" y="539.8301886792453"/>
      <point x="392.49056603773585" y="550.0377358490566"/>
      <point x="329.5283018867924" y="550.0377358490566" type="curve" smooth="yes"/>
      <point x="180.7924528301887" y="550.0377358490566"/>
      <point x="78.32075471698114" y="482.3207547169811"/>
      <point x="78.32075471698114" y="374.1509433962264" type="curve" smooth="yes"/>
      <point x="78.32075471698114" y="293.811320754717"/>
      <point x="120.26415094339623" y="253.50943396226415"/>
      <point x="234.60377358490567" y="227.56603773584905" type="curve" smooth="yes"/>
      <point x="309.7735849056604" y="210.41509433962267" type="line" smooth="yes"/>
      <point x="364.4339622641509" y="197.56603773584905"/>
      <point x="378.15094339622647" y="176.20754716981133"/>
      <point x="372.41509433962267" y="142.49056603773585" type="curve" smooth="yes"/>
      <point x="355.01886792452837" y="128.83018867924528"/>
      <point x="329.88679245283015" y="123.20754716981129"/>
    </contour>
  </outline>
</glyph>
<glyph name="t" format="2">
  <advance width="500.0"/>
  <unicode hex="0074"/>
  <anchor x="276.9433962264151" y="-1.0" name="bottom"/>
  <anchor x="374.9622641509434" y="711.0" name="caronslovak"/>
  <anchor x="184.18867924528303" y="662.433962264151" name="top"/>
  <outline>
    <contour>
      <point x="27.16981132075472" y="537.8867924528302" type="line"/>
      <point x="25.47169811320755" y="531.4905660377359"/>
      <point x="24.62264150943397" y="522.3962264150944"/>
      <point x="24.62264150943397" y="513.4528301886793" type="curve" smooth="yes"/>
      <point x="24.62264150943397" y="436.26415094339626"/>
      <point x="57.39622641509434" y="402.98113207547175"/>
      <point x="177.52830188679243" y="402.98113207547175" type="curve"/>
      <point x="441.9811320754717" y="402.98113207547175" type="line"/>
      <point x="445.37735849056605" y="417.8679245283019"/>
      <point x="447.92452830188677" y="438.0"/>
      <point x="447.92452830188677" y="457.98113207547175" type="curve" smooth="yes"/>
      <point x="447.92452830188677" y="517.3396226415094"/>
      <point x="432.7358490566038" y="537.8867924528302"/>
      <point x="382.47169811320754" y="537.8867924528302" type="curve"/>
    </contour>
    <contour>
      <point x="442.8301886792453" y="153.71698113207546" type="curve"/>
      <point x="436.8301886792453" y="153.71698113207546" type="line"/>
      <point x="401.88679245283015" y="131.90566037735846"/>
      <point x="361.24528301886795" y="121.69811320754714"/>
      <point x="321.377358490566" y="121.69811320754714" type="curve" smooth="yes"/>
      <point x="298.2641509433962" y="121.69811320754714"/>
      <point x="285.1509433962264" y="124.45283018867921"/>
      <point x="270.2452830188679" y="130.56603773584905" type="curve" smooth="yes"/>
      <point x="265.58490566037733" y="142.9811320754717"/>
      <point x="263.6792452830189" y="157.30188679245282"/>
      <point x="263.6792452830189" y="173.8867924528302" type="curve"/>
      <point x="263.6792452830189" y="322.11320754716985"/>
      <point x="263.6792452830189" y="470.6415094339623"/>
      <point x="263.6792452830189" y="618.867924528302" type="curve" smooth="yes"/>
      <point x="263.6792452830189" y="680.7169811320755"/>
      <point x="225.30188679245282" y="708.9433962264151"/>
      <point x="179.43396226415092" y="708.9433962264151" type="curve" smooth="yes"/>
      <point x="159.15094339622644" y="708.9433962264151"/>
      <point x="138.86792452830187" y="705.3962264150944"/>
      <point x="117.73584905660378" y="700.0" type="curve"/>
      <point x="126.22641509433964" y="667.7924528301886"/>
      <point x="128.77358490566039" y="636.5849056603774"/>
      <point x="128.77358490566039" y="604.377358490566" type="curve" smooth="yes"/>
      <point x="128.77358490566039" y="456.52830188679246"/>
      <point x="128.77358490566039" y="307.9811320754717"/>
      <point x="128.77358490566039" y="160.1320754716981" type="curve" smooth="yes"/>
      <point x="128.77358490566039" y="55.52830188679245"/>
      <point x="206.0" y="-13.207547169811322"/>
      <point x="306.6415094339623" y="-13.207547169811322" type="curve" smooth="yes"/>
      <point x="366.2830188679245" y="-13.207547169811322"/>
      <point x="401.33962264150944" y="-3.452830188679246"/>
      <point x="420.49056603773585" y="20.79245283018868" type="curve" smooth="yes"/>
      <point x="436.73584905660374" y="42.13207547169811"/>
      <point x="446.6792452830189" y="74.1132075471698"/>
      <point x="446.6792452830189" y="118.28301886792451" type="curve" smooth="yes"/>
      <point x="446.6792452830189" y="129.83018867924528"/>
      <point x="445.6792452830189" y="141.77358490566036"/>
    </contour>
  </outline>
</glyph>
<glyph name="v" format="2">
  <advance width="600.0"/>
  <unicode hex="0076"/>
  <outline>
    <contour>
      <point x="97.64150943396226" y="546.132075471698" type="curve" smooth="yes"/>
      <point x="82.30188679245282" y="546.132075471698"/>
      <point x="58.62264150943396" y="543.4339622641509"/>
      <point x="43.735849056603776" y="538.188679245283" type="curve"/>
      <point x="67.44632769451887" y="290.38423397982075"/>
      <point x="121.20591969186793" y="129.45445766662263"/>
      <point x="217.13207547169813" y="33.52830188679245" type="curve" smooth="yes"/>
      <point x="255.20754716981133" y="-4.547169811320755"/>
      <point x="269.35849056603774" y="-10.0"/>
      <point x="301.79245283018867" y="-10.0" type="curve" smooth="yes"/>
      <point x="320.28301886792457" y="-10.0"/>
      <point x="338.9245283018868" y="-8.150943396226415"/>
      <point x="352.3207547169811" y="-5.30188679245283" type="curve"/>
      <point x="459.5848435364434" y="80.92746684275471"/>
      <point x="529.7095114588773" y="241.86240924338676"/>
      <point x="549.0188679245283" y="456.5471698113207" type="curve"/>
      <point x="554.4150943396227" y="514.9056603773585"/>
      <point x="529.8301886792453" y="546.132075471698"/>
      <point x="471.1698113207547" y="546.132075471698" type="curve" smooth="yes"/>
      <point x="451.58490566037733" y="546.132075471698"/>
      <point x="431.3018867924528" y="544.2830188679245"/>
      <point x="412.1698113207547" y="538.188679245283" type="curve"/>
      <point x="415.34882800145283" y="340.0855608334434"/>
      <point x="372.4100875526792" y="210.86377534002827"/>
      <point x="297.75471698113205" y="106.81132075471697" type="curve"/>
      <point x="289.90566037735846" y="106.81132075471697" type="line"/>
      <point x="241.20530138531132" y="186.24977458795283"/>
      <point x="212.22641509433961" y="295.811320754717"/>
      <point x="195.07547169811318" y="487.1698113207547" type="curve"/>
      <point x="190.67924528301884" y="533.3396226415094"/>
      <point x="154.60377358490564" y="546.132075471698"/>
    </contour>
  </outline>
</glyph>
<glyph name="brokenbar" format="2">
  <advance width="350.0"/>
  <unicode hex="00A6"/>
  <outline>
    <contour>
      <point x="94.45283018867926" y="758.3018867924528" type="curve"/>
      <point x="103.00000000000001" y="722.4528301886793"/>
      <point x="106.54716981132077" y="685.7547169811321"/>
      <point x="106.54716981132077" y="646.2075471698113" type="curve" smooth="yes"/>
      <point x="106.54716981132077" y="426.9622641509434" type="line" smooth="yes"/>
      <point x="106.54716981132077" y="386.0377358490566"/>
      <point x="144.0754716981132" y="366.60377358490564"/>
      <point x="217.0188679245283" y="366.60377358490564" type="curve" smooth="yes"/>
      <point x="231.9056603773585" y="366.60377358490564"/>
      <point x="242.69811320754718" y="367.45283018867923"/>
      <point x="249.94339622641508" y="369.1509433962264" type="curve"/>
      <point x="249.94339622641508" y="696.2075471698113" type="line" smooth="yes"/>
      <point x="249.94339622641508" y="720.7547169811321"/>
      <point x="246.2452830188679" y="733.6603773584906"/>
      <point x="235.09433962264148" y="744.811320754717" type="curve" smooth="yes"/>
      <point x="220.75471698113205" y="759.1509433962265"/>
      <point x="198.47169811320754" y="764.6981132075472"/>
      <point x="153.9056603773585" y="764.6981132075472" type="curve" smooth="yes"/>
      <point x="131.77358490566039" y="764.6981132075472"/>
      <point x="114.8867924528302" y="762.8490566037735"/>
    </contour>
    <contour>
      <point x="106.54716981132077" y="228.30188679245282" type="curve"/>
      <point x="106.54716981132077" y="-103.03773584905662" type="line"/>
      <point x="106.54716981132077" y="-143.96226415094338"/>
      <point x="144.0754716981132" y="-163.39622641509433"/>
      <point x="217.0188679245283" y="-163.39622641509433" type="curve" smooth="yes"/>
      <point x="231.9056603773585" y="-163.39622641509433"/>
      <point x="242.69811320754718" y="-162.54716981132074"/>
      <point x="249.94339622641508" y="-160.8490566037736" type="curve"/>
      <point x="249.94339622641508" y="169.67924528301887" type="line" smooth="yes"/>
      <point x="249.94339622641508" y="217.30188679245282"/>
      <point x="223.56603773584905" y="234.69811320754718"/>
      <point x="158.75471698113208" y="234.69811320754718" type="curve"/>
      <point x="139.16981132075472" y="234.69811320754718"/>
      <point x="120.58490566037737" y="232.8490566037736"/>
    </contour>
  </outline>
</glyph>
<glyph name="guillemotleft" format="2">
  <advance width="600.0"/>
  <unicode hex="00AB"/>
  <outline>
    <contour>
      <point x="339.566037735849" y="99.11320754716982" type="line"/>
      <point x="246.4150943396226" y="172.75471698113208"/>
      <point x="196.16981132075472" y="227.64150943396226"/>
      <point x="144.77358490566039" y="300.1509433962264" type="curve"/>
      <point x="191.1320754716981" y="368.1698113207548"/>
      <point x="242.01886792452828" y="421.3018867924528"/>
      <point x="339.566037735849" y="500.8867924528302" type="curve"/>
      <point x="339.566037735849" y="506.8867924528302" type="line"/>
      <point x="312.1320754716981" y="515.2830188679245"/>
      <point x="278.6037735849057" y="518.9811320754717"/>
      <point x="247.16981132075472" y="518.9811320754717" type="curve" smooth="yes"/>
      <point x="212.0943396226415" y="518.9811320754717"/>
      <point x="193.45283018867926" y="515.1320754716982"/>
      <point x="174.60377358490567" y="500.4339622641509" type="curve" smooth="yes"/>
      <point x="116.75471698113209" y="453.0377358490566"/>
      <point x="69.96226415094341" y="392.35849056603774"/>
      <point x="31.698113207547177" y="325.0" type="curve"/>
      <point x="31.698113207547177" y="317.0"/>
      <point x="31.698113207547177" y="309.0"/>
      <point x="31.698113207547177" y="301.0" type="curve" smooth="yes"/>
      <point x="31.698113207547177" y="276.0"/>
      <point x="38.547169811320764" y="253.26415094339623"/>
      <point x="61.54716981132077" y="218.56603773584905" type="curve" smooth="yes"/>
      <point x="109.69811320754718" y="149.16981132075472"/>
      <point x="137.39622641509436" y="124.62264150943398"/>
      <point x="168.39622641509436" y="105.8679245283019" type="curve" smooth="yes"/>
      <point x="192.54716981132077" y="90.26415094339623"/>
      <point x="215.18867924528303" y="81.01886792452831"/>
      <point x="249.16981132075472" y="81.01886792452831" type="curve" smooth="yes"/>
      <point x="283.4528301886793" y="81.01886792452831"/>
      <point x="314.9811320754717" y="84.71698113207547"/>
      <point x="339.566037735849" y="93.11320754716982" type="curve"/>
    </contour>
    <contour>
      <point x="571.0754716981132" y="99.11320754716982" type="line"/>
      <point x="477.9245283018868" y="172.75471698113208"/>
      <point x="427.6792452830189" y="227.64150943396226"/>
      <point x="376.2830188679245" y="300.1509433962264" type="curve"/>
      <point x="422.64150943396226" y="368.1698113207548"/>
      <point x="473.52830188679246" y="421.3018867924528"/>
      <point x="571.0754716981132" y="500.8867924528302" type="curve"/>
      <point x="571.0754716981132" y="506.8867924528302" type="line"/>
      <point x="543.6415094339623" y="515.2830188679245"/>
      <point x="510.11320754716985" y="518.9811320754717"/>
      <point x="478.6792452830189" y="518.9811320754717" type="curve" smooth="yes"/>
      <point x="443.6037735849057" y="518.9811320754717"/>
      <point x="424.96226415094344" y="515.1320754716982"/>
      <point x="406.11320754716985" y="500.4339622641509" type="curve" smooth="yes"/>
      <point x="348.26415094339626" y="453.0377358490566"/>
      <point x="301.4716981132076" y="392.35849056603774"/>
      <point x="263.20754716981133" y="325.0" type="curve"/>
      <point x="263.20754716981133" y="317.0"/>
      <point x="263.20754716981133" y="309.0"/>
      <point x="263.20754716981133" y="301.0" type="curve" smooth="yes"/>
      <point x="263.20754716981133" y="276.0"/>
      <point x="270.0566037735849" y="253.26415094339623"/>
      <point x="293.0566037735849" y="218.56603773584905" type="curve" smooth="yes"/>
      <point x="341.20754716981133" y="149.16981132075472"/>
      <point x="368.9056603773585" y="124.62264150943398"/>
      <point x="399.9056603773585" y="105.8679245283019" type="curve" smooth="yes"/>
      <point x="424.0566037735849" y="90.26415094339623"/>
      <point x="446.6981132075472" y="81.01886792452831"/>
      <point x="480.6792452830189" y="81.01886792452831" type="curve" smooth="yes"/>
      <point x="514.9622641509434" y="81.01886792452831"/>
      <point x="546.4905660377358" y="84.71698113207547"/>
      <point x="571.0754716981132" y="93.11320754716982" type="curve"/>
    </contour>
  </outline>
</glyph>
<glyph name="degree" format="2">
  <advance width="600.0"/>
  <unicode hex="00B0"/>
  <outline>
    <contour>
      <point x="302.1509433962264" y="710.0" type="curve"/>
      <point x="200.2075471698113" y="710.0"/>
      <point x="127.41509433962264" y="637.4528301886792"/>
      <point x="127.41509433962264" y="534.3584905660377" type="curve" smooth="yes"/>
      <point x="127.41509433962264" y="526.6603773584906" type="line" smooth="yes"/>
      <point x="127.41509433962264" y="425.5660377358491"/>
      <point x="199.2075471698113" y="358.1698113207547"/>
      <point x="296.1509433962264" y="358.1698113207547" type="curve"/>
      <point x="398.0943396226415" y="358.1698113207547"/>
      <point x="470.8867924528302" y="430.7169811320755"/>
      <point x="470.8867924528302" y="533.8113207547169" type="curve" smooth="yes"/>
      <point x="470.8867924528302" y="541.5094339622641" type="line" smooth="yes"/>
      <point x="470.8867924528302" y="642.6037735849056"/>
      <point x="399.0943396226415" y="710.0"/>
    </contour>
    <contour>
      <point x="291.1509433962264" y="448.47169811320754" type="curve" smooth="yes"/>
      <point x="272.6037735849057" y="448.47169811320754"/>
      <point x="257.9056603773585" y="451.1698113207547"/>
      <point x="241.66037735849056" y="461.1132075471698" type="curve" smooth="yes"/>
      <point x="228.43396226415092" y="477.5660377358491"/>
      <point x="221.01886792452828" y="499.433962264151"/>
      <point x="221.01886792452828" y="526.3584905660376" type="curve" smooth="yes"/>
      <point x="221.01886792452828" y="534.0566037735849" type="line" smooth="yes"/>
      <point x="221.01886792452828" y="588.9811320754718"/>
      <point x="250.83018867924528" y="619.6981132075472"/>
      <point x="307.1509433962264" y="619.6981132075472" type="curve" smooth="yes"/>
      <point x="322.3018867924528" y="619.6981132075472"/>
      <point x="335.3018867924528" y="617.8490566037735"/>
      <point x="348.15094339622647" y="611.3018867924528" type="curve" smooth="yes"/>
      <point x="366.47169811320754" y="595.6981132075472"/>
      <point x="377.28301886792457" y="572.1320754716982"/>
      <point x="377.28301886792457" y="541.811320754717" type="curve" smooth="yes"/>
      <point x="377.28301886792457" y="534.1132075471697" type="line" smooth="yes"/>
      <point x="377.28301886792457" y="479.18867924528297"/>
      <point x="347.47169811320754" y="448.47169811320754"/>
    </contour>
  </outline>
</glyph>
<glyph name="threesuperior" format="2">
  <advance width="600.0"/>
  <unicode hex="00B3"/>
  <outline>
    <contour>
      <point x="430.39622641509436" y="640.188679245283" type="curve" smooth="yes"/>
      <point x="430.39622641509436" y="647.188679245283" type="line" smooth="yes"/>
      <point x="430.39622641509436" y="694.188679245283"/>
      <point x="382.1509433962264" y="738.6792452830189"/>
      <point x="295.90566037735846" y="738.6792452830189" type="curve" smooth="yes"/>
      <point x="241.8490566037736" y="738.6792452830189"/>
      <point x="210.0943396226415" y="727.3207547169811"/>
      <point x="194.54716981132077" y="711.7735849056603" type="curve" smooth="yes"/>
      <point x="178.1509433962264" y="695.377358490566"/>
      <point x="172.75471698113208" y="679.9811320754717"/>
      <point x="172.75471698113208" y="655.245283018868" type="curve" smooth="yes"/>
      <point x="172.75471698113208" y="641.1509433962265"/>
      <point x="173.9056603773585" y="630.6037735849056"/>
      <point x="178.9056603773585" y="615.8113207547169" type="curve"/>
      <point x="184.9056603773585" y="615.8113207547169" type="line"/>
      <point x="211.0566037735849" y="645.566037735849"/>
      <point x="241.66037735849056" y="656.7169811320755"/>
      <point x="280.0188679245283" y="656.7169811320755" type="curve" smooth="yes"/>
      <point x="312.8867924528302" y="656.7169811320755"/>
      <point x="333.6981132075472" y="646.3584905660377"/>
      <point x="340.79245283018867" y="632.0943396226415" type="curve" smooth="yes"/>
      <point x="324.6981132075472" y="606.2830188679246"/>
      <point x="290.37735849056605" y="589.4339622641509"/>
      <point x="239.54716981132074" y="585.188679245283" type="curve"/>
      <point x="237.39622641509433" y="577.4905660377359"/>
      <point x="236.39622641509433" y="565.6981132075472"/>
      <point x="236.39622641509433" y="554.4528301886793" type="curve" smooth="yes"/>
      <point x="236.39622641509433" y="528.3584905660377"/>
      <point x="243.54716981132074" y="518.2641509433962"/>
      <point x="260.45283018867923" y="516.566037735849" type="curve" smooth="yes"/>
      <point x="311.4339622641509" y="510.62264150943395"/>
      <point x="338.54716981132077" y="495.0188679245283"/>
      <point x="354.5849056603774" y="469.1132075471698" type="curve" smooth="yes"/>
      <point x="345.33962264150944" y="451.33962264150944"/>
      <point x="320.52830188679246" y="442.2830188679245"/>
      <point x="281.811320754717" y="442.2830188679245" type="curve" smooth="yes"/>
      <point x="241.45283018867923" y="442.2830188679245"/>
      <point x="209.30188679245285" y="450.88679245283015"/>
      <point x="178.05660377358492" y="481.188679245283" type="curve"/>
      <point x="172.05660377358492" y="481.188679245283" type="line"/>
      <point x="167.05660377358492" y="467.79245283018867"/>
      <point x="164.05660377358492" y="453.39622641509436"/>
      <point x="164.05660377358492" y="439.1509433962264" type="curve" smooth="yes"/>
      <point x="164.05660377358492" y="411.5660377358491"/>
      <point x="168.05660377358492" y="400.1698113207547"/>
      <point x="181.45283018867926" y="386.7735849056604" type="curve" smooth="yes"/>
      <point x="197.39622641509433" y="371.6792452830189"/>
      <point x="242.33962264150944" y="360.3207547169811"/>
      <point x="294.54716981132077" y="360.3207547169811" type="curve" smooth="yes"/>
      <point x="383.33962264150944" y="360.3207547169811"/>
      <point x="435.39622641509436" y="402.71698113207543"/>
      <point x="435.39622641509436" y="456.0188679245283" type="curve" smooth="yes"/>
      <point x="435.39622641509436" y="461.01886792452825" type="line" smooth="yes"/>
      <point x="435.39622641509436" y="503.0188679245283"/>
      <point x="409.79245283018867" y="542.1509433962265"/>
      <point x="318.7547169811321" y="556.9056603773586" type="curve"/>
      <point x="348.6037735849057" y="539.8490566037735" type="line"/>
      <point x="348.6037735849057" y="569.7547169811321" type="line"/>
      <point x="319.6037735849057" y="547.3018867924528" type="line"/>
      <point x="403.94339622641513" y="565.754716981132"/>
      <point x="430.39622641509436" y="601.7924528301887"/>
    </contour>
  </outline>
</glyph>
<glyph name="mu.math" format="2">
  <advance width="600.0"/>
  <unicode hex="00B5"/>
  <outline>
    <contour>
      <point x="114.35849056603773" y="157.0" type="line"/>
      <point x="85.71698113207547" y="57.52830188679245"/>
      <point x="70.37735849056604" y="-25.962264150943398"/>
      <point x="70.37735849056604" y="-119.01886792452831" type="curve" smooth="yes"/>
      <point x="70.37735849056604" y="-178.9056603773585"/>
      <point x="114.0" y="-204.0"/>
      <point x="161.16981132075472" y="-204.0" type="curve" smooth="yes"/>
      <point x="184.30188679245282" y="-204.0"/>
      <point x="197.64150943396226" y="-200.30188679245282"/>
      <point x="211.98113207547166" y="-194.0566037735849" type="curve"/>
      <point x="211.98113207547166" y="-174.0566037735849"/>
      <point x="211.98113207547166" y="-165.0566037735849"/>
      <point x="211.98113207547166" y="-136.0566037735849" type="curve" smooth="yes"/>
      <point x="211.98113207547166" y="-108.15094339622642"/>
      <point x="206.43396226415092" y="-63.433962264150935"/>
      <point x="178.75471698113205" y="3.471698113207551" type="curve"/>
      <point x="195.1509433962264" y="20.81132075471698" type="line"/>
      <point x="192.58490566037736" y="157.0" type="line"/>
    </contour>
    <contour>
      <point x="112.03773584905659" y="544.132075471698" type="curve" smooth="yes"/>
      <point x="93.45283018867926" y="544.132075471698"/>
      <point x="78.41509433962264" y="542.2830188679245"/>
      <point x="60.9811320754717" y="538.7358490566037" type="curve"/>
      <point x="75.9245283018868" y="482.1509433962264"/>
      <point x="80.47169811320755" y="446.45283018867923"/>
      <point x="80.47169811320755" y="385.0188679245283" type="curve" smooth="yes"/>
      <point x="80.47169811320755" y="307.60377358490564"/>
      <point x="80.47169811320755" y="230.18867924528303"/>
      <point x="80.47169811320755" y="152.77358490566039" type="curve"/>
      <point x="80.47169811320755" y="76.0754716981132"/>
      <point x="168.2830188679245" y="-11.0"/>
      <point x="254.33962264150944" y="-11.0" type="curve" smooth="yes"/>
      <point x="307.6037735849057" y="-11.0"/>
      <point x="354.62264150943395" y="37.75471698113208"/>
      <point x="384.75471698113205" y="135.9245283018868" type="curve"/>
      <point x="400.50943396226415" y="135.9245283018868" type="line"/>
      <point x="400.50943396226415" y="413.4150943396226" type="line"/>
      <point x="358.98113207547175" y="190.50943396226415"/>
      <point x="300.96226415094344" y="138.3396226415094"/>
      <point x="242.39622641509433" y="138.3396226415094" type="curve" smooth="yes"/>
      <point x="225.35849056603774" y="138.3396226415094"/>
      <point x="211.73584905660377" y="146.71698113207546"/>
      <point x="201.58490566037733" y="163.32075471698113" type="curve"/>
      <point x="217.92452830188677" y="254.39622641509433"/>
      <point x="229.2641509433962" y="331.7169811320755"/>
      <point x="229.2641509433962" y="404.58490566037733" type="curve" smooth="yes"/>
      <point x="229.2641509433962" y="409.5849056603774" type="line" smooth="yes"/>
      <point x="229.2641509433962" y="516.2830188679245"/>
      <point x="188.1320754716981" y="544.132075471698"/>
    </contour>
    <contour>
      <point x="476.8490566037736" y="545.4339622641509" type="curve" smooth="yes"/>
      <point x="425.7358490566038" y="545.4339622641509"/>
      <point x="390.7547169811321" y="537.8867924528302"/>
      <point x="390.7547169811321" y="489.3207547169811" type="curve" smooth="yes"/>
      <point x="390.7547169811321" y="375.188679245283"/>
      <point x="390.7547169811321" y="260.05660377358487"/>
      <point x="390.7547169811321" y="145.92452830188677" type="curve" smooth="yes"/>
      <point x="390.7547169811321" y="65.0566037735849"/>
      <point x="441.8301886792453" y="-10.0"/>
      <point x="518.3962264150944" y="-10.0" type="curve" smooth="yes"/>
      <point x="521.3962264150944" y="-10.0" type="line" smooth="yes"/>
      <point x="558.4339622641509" y="-10.0"/>
      <point x="574.2830188679245" y="63.49056603773584"/>
      <point x="574.2830188679245" y="110.62264150943395" type="curve" smooth="yes"/>
      <point x="574.2830188679245" y="115.16981132075472"/>
      <point x="574.2830188679245" y="120.71698113207546"/>
      <point x="574.2830188679245" y="125.2641509433962" type="curve"/>
      <point x="570.8301886792453" y="125.2641509433962" type="line"/>
      <point x="566.7735849056604" y="124.20754716981129"/>
      <point x="562.0188679245283" y="123.75471698113205"/>
      <point x="557.5094339622642" y="123.75471698113205" type="curve" smooth="yes"/>
      <point x="549.0566037735849" y="123.75471698113205"/>
      <point x="541.754716981132" y="125.0566037735849"/>
      <point x="532.0566037735849" y="129.81132075471697" type="curve"/>
      <point x="530.9056603773586" y="142.05660377358487"/>
      <point x="529.9056603773585" y="155.60377358490564"/>
      <point x="529.9056603773585" y="170.75471698113205" type="curve" smooth="yes"/>
      <point x="529.9056603773585" y="294.1320754716981"/>
      <point x="529.9056603773585" y="416.66037735849056"/>
      <point x="529.9056603773585" y="540.0377358490566" type="curve"/>
      <point x="516.566037735849" y="543.5849056603773"/>
      <point x="497.2830188679245" y="545.4339622641509"/>
    </contour>
  </outline>
</glyph>
<glyph name="germandbls" format="2">
  <advance width="600.0"/>
  <unicode hex="00DF"/>
  <outline>
    <contour>
      <point x="311.1509433962264" y="768.4905660377359" type="curve" smooth="yes"/>
      <point x="153.56603773584908" y="768.4905660377359"/>
      <point x="67.9245283018868" y="683.1509433962265"/>
      <point x="67.9245283018868" y="538.6037735849056" type="curve" smooth="yes"/>
      <point x="67.9245283018868" y="394.68121891534713"/>
      <point x="67.9245283018868" y="249.30188679245282"/>
      <point x="67.9245283018868" y="105.69811320754717" type="curve" smooth="yes"/>
      <point x="67.9245283018868" y="62.98113207547169"/>
      <point x="59.981132075471706" y="28.30188679245283"/>
      <point x="49.584905660377366" y="-2.0" type="curve" smooth="yes"/>
      <point x="61.226415094339636" y="-6.547169811320754"/>
      <point x="76.86792452830188" y="-8.547169811320753"/>
      <point x="88.96226415094341" y="-8.547169811320753" type="curve"/>
      <point x="168.69811320754718" y="-8.547169811320753"/>
      <point x="211.32075471698113" y="25.92506738544905"/>
      <point x="211.32075471698113" y="86.0188679245283" type="curve"/>
      <point x="211.32075471698113" y="228.13141488790941"/>
      <point x="211.32075471698113" y="369.7798742138132"/>
      <point x="211.32075471698113" y="511.66037735849056" type="curve"/>
      <point x="211.32075471698113" y="566.1320754716982"/>
      <point x="214.52830188679243" y="594.245283018868"/>
      <point x="225.64150943396223" y="625.5471698113207" type="curve" smooth="yes"/>
      <point x="248.15094339622638" y="638.2641509433962"/>
      <point x="285.50943396226415" y="646.3207547169811"/>
      <point x="319.188679245283" y="646.3207547169811" type="curve" smooth="yes"/>
      <point x="358.6981132075472" y="646.3207547169811"/>
      <point x="391.41509433962267" y="635.0566037735849"/>
      <point x="409.24528301886795" y="612.8679245283018" type="curve"/>
      <point x="410.09433962264154" y="591.1509433962265"/>
      <point x="400.24528301886795" y="572.6037735849056"/>
      <point x="371.6792452830189" y="542.2452830188679" type="curve" smooth="yes"/>
      <point x="338.20754716981133" y="508.1320754716981" type="line" smooth="yes"/>
      <point x="304.54716981132077" y="472.8301886792453"/>
      <point x="287.3962264150943" y="436.52830188679246"/>
      <point x="287.3962264150943" y="403.5283018867924" type="curve" smooth="yes"/>
      <point x="287.3962264150943" y="396.5283018867924" type="line" smooth="yes"/>
      <point x="287.3962264150943" y="351.37735849056605"/>
      <point x="309.54716981132077" y="315.2830188679245"/>
      <point x="358.90566037735846" y="281.03773584905656" type="curve" smooth="yes"/>
      <point x="387.9056603773585" y="260.9433962264151" type="line" smooth="yes"/>
      <point x="438.7169811320755" y="226.54716981132074"/>
      <point x="454.5849056603774" y="206.0754716981132"/>
      <point x="454.5849056603774" y="174.50943396226413" type="curve"/>
      <point x="454.5849056603774" y="162.30188679245282"/>
      <point x="453.5849056603774" y="152.0"/>
      <point x="450.5849056603774" y="142.24528301886792" type="curve" smooth="yes"/>
      <point x="439.9811320754717" y="131.47169811320754"/>
      <point x="421.1132075471698" y="124.90566037735847"/>
      <point x="393.5849056603774" y="124.90566037735847" type="curve" smooth="yes"/>
      <point x="349.8679245283019" y="124.90566037735847"/>
      <point x="322.9622641509434" y="131.96226415094335"/>
      <point x="294.24528301886795" y="151.0377358490566" type="curve"/>
      <point x="288.24528301886795" y="151.0377358490566" type="line"/>
      <point x="284.6981132075472" y="138.54716981132074"/>
      <point x="282.0" y="121.50943396226414"/>
      <point x="282.0" y="98.77358490566037" type="curve" smooth="yes"/>
      <point x="282.0" y="58.45283018867925"/>
      <point x="292.49056603773585" y="30.415094339622645"/>
      <point x="307.8867924528302" y="15.018867924528305" type="curve" smooth="yes"/>
      <point x="323.9433962264151" y="-1.188679245283017"/>
      <point x="353.5094339622641" y="-11.69811320754717"/>
      <point x="398.6792452830189" y="-11.69811320754717" type="curve" smooth="yes"/>
      <point x="511.8490566037736" y="-11.69811320754717"/>
      <point x="570.6603773584906" y="53.13207547169811"/>
      <point x="570.6603773584906" y="150.0754716981132" type="curve" smooth="yes"/>
      <point x="570.6603773584906" y="161.47169811320754" type="line" smooth="yes"/>
      <point x="570.6603773584906" y="230.32075471698113"/>
      <point x="544.0" y="276.37735849056605"/>
      <point x="476.64150943396226" y="325.566037735849" type="curve" smooth="yes"/>
      <point x="449.88679245283015" y="344.9622641509434" type="line" smooth="yes"/>
      <point x="426.90566037735846" y="360.77358490566036"/>
      <point x="414.35849056603774" y="370.07547169811323"/>
      <point x="414.35849056603774" y="389.188679245283" type="curve" smooth="yes"/>
      <point x="414.35849056603774" y="404.3018867924528"/>
      <point x="428.57398342592444" y="423.2778658352453"/>
      <point x="463.811320754717" y="459.3018867924528" type="curve" smooth="yes"/>
      <point x="487.98113207547163" y="483.566037735849" type="line" smooth="yes"/>
      <point x="522.3584905660376" y="518.5849056603774"/>
      <point x="543.1509433962264" y="550.5283018867924"/>
      <point x="543.1509433962264" y="604.1698113207548" type="curve" smooth="yes"/>
      <point x="543.1509433962264" y="617.1698113207548" type="line" smooth="yes"/>
      <point x="543.1509433962264" y="690.6037735849056"/>
      <point x="471.18867924528297" y="768.4905660377359"/>
    </contour>
  </outline>
</glyph>
<glyph name="dcaron" format="2">
  <advance width="700.0"/>
  <unicode hex="010F"/>
  <outline>
    <contour>
      <point x="629.0377358490566" y="516.3207547169811" type="curve" smooth="yes"/>
      <point x="647.5283018867925" y="516.3207547169811"/>
      <point x="657.0754716981132" y="519.3207547169811"/>
      <point x="669.0188679245283" y="531.566037735849" type="curve" smooth="yes"/>
      <point x="702.6037735849056" y="566.0566037735849"/>
      <point x="716.5094339622641" y="621.1132075471697"/>
      <point x="716.5094339622642" y="674.2075471698113" type="curve" smooth="yes"/>
      <point x="716.5094339622642" y="701.4528301886793"/>
      <point x="692.0754716981132" y="718.3396226415094"/>
      <point x="647.9056603773585" y="718.3396226415094" type="curve" smooth="yes"/>
      <point x="630.1132075471698" y="718.3396226415094"/>
      <point x="616.622641509434" y="716.3396226415094"/>
      <point x="596.0377358490566" y="709.9433962264151" type="curve"/>
      <point x="596.0377358490566" y="622.1132075471697"/>
      <point x="592.433962264151" y="595.5094339622642"/>
      <point x="577.4716981132076" y="527.4150943396227" type="curve"/>
      <point x="592.811320754717" y="519.1698113207548"/>
      <point x="605.7547169811321" y="516.3207547169811"/>
    </contour>
    <contour>
      <point x="256.49056603773585" y="549.5849056603773" type="curve" smooth="yes"/>
      <point x="151.75471698113208" y="549.5849056603773"/>
      <point x="45.28301886792454" y="452.2830188679245"/>
      <point x="45.28301886792454" y="217.09433962264148" type="curve" smooth="yes"/>
      <point x="45.28301886792454" y="195.84905660377356" type="line" smooth="yes"/>
      <point x="45.28301886792454" y="81.58490566037736"/>
      <point x="119.71698113207547" y="-11.69811320754717"/>
      <point x="200.8867924528302" y="-11.69811320754717" type="curve" smooth="yes"/>
      <point x="277.49056603773585" y="-11.69811320754717"/>
      <point x="353.3396226415095" y="61.09433962264151"/>
      <point x="387.15094339622647" y="148.75471698113208" type="curve"/>
      <point x="403.6981132075472" y="148.75471698113208" type="line"/>
      <point x="403.6981132075472" y="324.0377358490566" type="line"/>
      <point x="358.3207547169811" y="182.0566037735849"/>
      <point x="296.66037735849056" y="132.54716981132074"/>
      <point x="216.2641509433962" y="132.54716981132074" type="curve" smooth="yes"/>
      <point x="206.83018867924528" y="132.54716981132074"/>
      <point x="198.60377358490567" y="135.2641509433962"/>
      <point x="191.0377358490566" y="141.8490566037736" type="curve" smooth="yes"/>
      <point x="185.58490566037733" y="163.56603773584905"/>
      <point x="184.43396226415092" y="187.37735849056602"/>
      <point x="184.43396226415092" y="225.77358490566039" type="curve" smooth="yes"/>
      <point x="184.43396226415092" y="236.47169811320754" type="line" smooth="yes"/>
      <point x="184.43396226415092" y="355.6415094339623"/>
      <point x="222.84905660377356" y="419.7735849056604"/>
      <point x="302.28301886792457" y="419.7735849056604" type="curve" smooth="yes"/>
      <point x="348.75471698113205" y="419.7735849056604"/>
      <point x="380.11320754716985" y="404.5660377358491"/>
      <point x="408.7924528301887" y="372.52830188679246" type="curve"/>
      <point x="408.7924528301887" y="471.54716981132077" type="line"/>
      <point x="388.00000000000006" y="471.54716981132077" type="line"/>
      <point x="366.33962264150944" y="512.3962264150944"/>
      <point x="316.5849056603774" y="549.5849056603773"/>
    </contour>
    <contour>
      <point x="415.2830188679245" y="756.3018867924528" type="curve"/>
      <point x="401.79245283018867" y="756.3018867924528"/>
      <point x="388.15094339622647" y="753.6037735849056"/>
      <point x="374.66037735849056" y="750.7547169811321" type="curve"/>
      <point x="387.9056603773585" y="726.3018867924528"/>
      <point x="393.3018867924529" y="688.6792452830189"/>
      <point x="393.3018867924529" y="653.566037735849" type="curve"/>
      <point x="393.3018867924529" y="465.60377358490564"/>
      <point x="393.3018867924529" y="339.3207547169811"/>
      <point x="393.3018867924529" y="142.01886792452828" type="curve"/>
      <point x="393.3018867924529" y="65.54716981132074"/>
      <point x="421.09433962264154" y="-6.547169811320754"/>
      <point x="495.188679245283" y="-6.547169811320754" type="curve" smooth="yes"/>
      <point x="512.9245283018868" y="-6.547169811320754"/>
      <point x="526.566037735849" y="-3.0"/>
      <point x="544.3018867924528" y="0.6981132075471694" type="curve"/>
      <point x="531.9056603773585" y="39.58490566037736"/>
      <point x="528.2075471698113" y="73.81132075471697"/>
      <point x="528.2075471698113" y="114.86792452830188" type="curve" smooth="yes"/>
      <point x="528.2075471698113" y="273.9622641509434"/>
      <point x="528.2075471698113" y="429.1132075471698"/>
      <point x="528.2075471698113" y="595.0" type="curve"/>
      <point x="528.2075471698113" y="719.3207547169811"/>
      <point x="474.0943396226415" y="756.3018867924528"/>
    </contour>
  </outline>
</glyph>
<glyph name="Hbar" format="2">
  <advance width="650.0"/>
  <unicode hex="0126"/>
  <outline>
    <contour>
      <point x="16.056603773584907" y="583.6603773584906" type="line"/>
      <point x="15.905660377358492" y="579.811320754717"/>
      <point x="15.754716981132077" y="575.2075471698113"/>
      <point x="15.754716981132077" y="570.2075471698113" type="curve" smooth="yes"/>
      <point x="15.754716981132077" y="502.90566037735846"/>
      <point x="27.150943396226417" y="489.50943396226415"/>
      <point x="58.79245283018868" y="489.50943396226415" type="curve" smooth="yes"/>
      <point x="630.5471698113207" y="489.50943396226415" type="line"/>
      <point x="632.3962264150944" y="501.8490566037736"/>
      <point x="634.2452830188679" y="516.6415094339623"/>
      <point x="634.2452830188679" y="528.433962264151" type="curve" smooth="yes"/>
      <point x="634.2452830188679" y="569.4150943396227"/>
      <point x="622.8490566037736" y="583.6603773584906"/>
      <point x="586.9622641509434" y="583.6603773584906" type="curve"/>
    </contour>
    <component base="H"/>
  </outline>
</glyph>
<glyph name="Eng" format="2">
  <advance width="700.0"/>
  <unicode hex="014A"/>
  <outline>
    <contour>
      <point x="396.66037735849056" y="-115.09433962264153" type="curve" smooth="yes"/>
      <point x="351.7547169811321" y="-115.09433962264153"/>
      <point x="316.811320754717" y="-106.39622641509436"/>
      <point x="274.50943396226415" y="-85.18867924528303" type="curve"/>
      <point x="268.50943396226415" y="-85.18867924528303" type="line"/>
      <point x="265.811320754717" y="-96.13207547169813"/>
      <point x="264.811320754717" y="-107.67924528301887"/>
      <point x="264.811320754717" y="-120.62264150943399" type="curve" smooth="yes"/>
      <point x="264.811320754717" y="-160.09433962264154"/>
      <point x="274.60377358490564" y="-200.811320754717"/>
      <point x="293.49056603773585" y="-219.69811320754718" type="curve" smooth="yes"/>
      <point x="309.79245283018867" y="-236.0"/>
      <point x="338.1132075471698" y="-250.0"/>
      <point x="395.66037735849056" y="-250.0" type="curve" smooth="yes"/>
      <point x="545.2830188679245" y="-250.0"/>
      <point x="622.2641509433963" y="-138.33962264150944"/>
      <point x="622.2641509433963" y="-1.0566037735849072" type="curve"/>
      <point x="605.2830188679246" y="26.283018867924525"/>
      <point x="573.6415094339623" y="42.075471698113205"/>
      <point x="501.09433962264154" y="42.075471698113205" type="curve"/>
      <point x="501.09433962264154" y="-81.60377358490567"/>
      <point x="467.5660377358491" y="-115.09433962264153"/>
    </contour>
    <component base="N" xOffset="21.509433962264154"/>
  </outline>
</glyph>
<glyph name="eng" format="2">
  <advance width="600.0"/>
  <unicode hex="014B"/>
  <outline>
    <contour>
      <point x="308.96226415094344" y="-115.09433962264153" type="curve" smooth="yes"/>
      <point x="242.32075471698116" y="-115.09433962264153"/>
      <point x="203.67924528301887" y="-104.69811320754718"/>
      <point x="162.22641509433964" y="-85.18867924528303" type="curve"/>
      <point x="158.22641509433961" y="-85.18867924528303" type="line"/>
      <point x="155.52830188679246" y="-96.13207547169813"/>
      <point x="154.52830188679246" y="-107.6792452830189"/>
      <point x="154.52830188679246" y="-120.62264150943398" type="curve" smooth="yes"/>
      <point x="154.52830188679246" y="-160.0943396226415"/>
      <point x="164.32075471698113" y="-200.81132075471697"/>
      <point x="183.2075471698113" y="-219.69811320754715" type="curve" smooth="yes"/>
      <point x="200.35849056603772" y="-236.84905660377356"/>
      <point x="241.41509433962267" y="-250.0"/>
      <point x="305.75471698113205" y="-250.0" type="curve" smooth="yes"/>
      <point x="437.1132075471698" y="-250.0"/>
      <point x="524.622641509434" y="-171.88679245283018"/>
      <point x="524.622641509434" y="-58.339622641509436" type="curve" smooth="yes"/>
      <point x="524.622641509434" y="-47.283018867924525"/>
      <point x="524.622641509434" y="-32.33962264150943"/>
      <point x="524.622641509434" y="0.0" type="curve"/>
      <point x="420.3962264150943" y="27.73584905660377" type="line"/>
      <point x="420.3962264150943" y="-89.71698113207549"/>
      <point x="376.79245283018867" y="-115.09433962264153"/>
    </contour>
    <contour>
      <point x="413.20754716981133" y="549.7358490566038" type="curve" smooth="yes"/>
      <point x="330.05660377358487" y="549.7358490566038"/>
      <point x="257.6981132075472" y="474.6792452830188"/>
      <point x="218.83018867924528" y="375.566037735849" type="curve"/>
      <point x="192.3396226415094" y="375.566037735849" type="line"/>
      <point x="192.79245283018867" y="149.8867924528302" type="line"/>
      <point x="245.03773584905662" y="337.22641509433964"/>
      <point x="301.8301886792453" y="400.39622641509436"/>
      <point x="364.811320754717" y="400.39622641509436" type="curve" smooth="yes"/>
      <point x="380.94339622641513" y="400.39622641509436"/>
      <point x="393.50943396226415" y="392.0188679245283"/>
      <point x="404.4150943396226" y="375.7169811320755" type="curve" smooth="yes"/>
      <point x="387.1698113207547" y="284.33962264150944"/>
      <point x="375.8301886792453" y="206.16981132075472"/>
      <point x="375.8301886792453" y="121.60377358490565" type="curve" smooth="yes"/>
      <point x="375.8301886792453" y="20.037735849056602"/>
      <point x="414.8490566037736" y="-5.396226415094339"/>
      <point x="490.9433962264151" y="-5.396226415094339" type="curve" smooth="yes"/>
      <point x="506.1320754716981" y="-5.396226415094339"/>
      <point x="515.377358490566" y="-2.6981132075471694"/>
      <point x="524.622641509434" y="0.0" type="curve"/>
      <point x="524.622641509434" y="55.58490566037736"/>
      <point x="524.622641509434" y="92.28301886792454"/>
      <point x="524.622641509434" y="153.71698113207546" type="curve" smooth="yes"/>
      <point x="524.622641509434" y="231.1320754716981"/>
      <point x="524.622641509434" y="308.54716981132077"/>
      <point x="524.622641509434" y="385.9622641509434" type="curve" smooth="yes"/>
      <point x="524.622641509434" y="462.66037735849056"/>
      <point x="474.377358490566" y="549.7358490566038"/>
    </contour>
    <contour>
      <point x="93.11320754716981" y="543.8867924528302" type="curve" smooth="yes"/>
      <point x="79.62264150943398" y="543.8867924528302"/>
      <point x="65.9811320754717" y="541.188679245283"/>
      <point x="52.49056603773585" y="538.3396226415094" type="curve"/>
      <point x="65.73584905660378" y="513.8867924528302"/>
      <point x="71.13207547169813" y="476.26415094339626"/>
      <point x="71.13207547169813" y="441.1509433962264" type="curve" smooth="yes"/>
      <point x="71.13207547169813" y="325.62264150943395"/>
      <point x="71.13207547169813" y="212.49056603773585"/>
      <point x="71.13207547169813" y="78.28301886792451" type="curve" smooth="yes"/>
      <point x="71.13207547169813" y="28.86792452830188"/>
      <point x="94.22641509433963" y="-3.3018867924528306"/>
      <point x="167.16981132075472" y="-3.3018867924528306" type="curve" smooth="yes"/>
      <point x="180.35849056603774" y="-3.3018867924528306"/>
      <point x="197.0943396226415" y="-3.3018867924528306"/>
      <point x="212.83018867924525" y="-0.7547169811320762" type="curve"/>
      <point x="212.83018867924525" y="110.9433962264151"/>
      <point x="212.83018867924525" y="250.50943396226415"/>
      <point x="212.83018867924525" y="382.5849056603774" type="curve" smooth="yes"/>
      <point x="212.83018867924525" y="506.45283018867923"/>
      <point x="158.62264150943395" y="543.8867924528302"/>
    </contour>
  </outline>
</glyph>
<glyph name="OE" format="2">
  <advance width="800.0"/>
  <unicode hex="0152"/>
  <outline>
    <contour>
      <point x="260.07547169811323" y="709.3962264150944" type="curve" smooth="yes"/>
      <point x="131.0188679245283" y="709.3962264150944"/>
      <point x="53.77358490566038" y="583.622641509434"/>
      <point x="53.77358490566038" y="340.94339622641513" type="curve" smooth="yes"/>
      <point x="53.77358490566038" y="322.8301886792453" type="line" smooth="yes"/>
      <point x="53.77358490566038" y="96.32075471698113"/>
      <point x="125.32075471698114" y="-9.39622641509434"/>
      <point x="262.07547169811323" y="-9.39622641509434" type="curve" smooth="yes"/>
      <point x="335.7169811320755" y="-9.39622641509434"/>
      <point x="388.5660377358491" y="25.754716981132077"/>
      <point x="415.47169811320754" y="93.05660377358491" type="curve"/>
      <point x="396.2264150943396" y="95.35849056603773" type="line"/>
      <point x="396.2264150943396" y="73.96226415094338" type="line" smooth="yes"/>
      <point x="411.50943396226415" y="27.79245283018868"/>
      <point x="440.03773584905656" y="0.0"/>
      <point x="473.9622641509434" y="0.0" type="curve" smooth="yes"/>
      <point x="750.8490566037736" y="0.0" type="line"/>
      <point x="754.245283018868" y="13.18867924528302"/>
      <point x="755.9433962264152" y="30.77358490566037"/>
      <point x="755.9433962264152" y="50.75471698113206" type="curve" smooth="yes"/>
      <point x="755.9433962264152" y="111.71698113207545"/>
      <point x="740.3018867924528" y="134.90566037735846"/>
      <point x="699.8301886792453" y="134.90566037735846" type="curve" smooth="yes"/>
      <point x="516.6981132075471" y="134.90566037735846" type="line"/>
      <point x="516.6981132075471" y="248.8356754941321"/>
      <point x="516.6981132075471" y="364.1509433962264"/>
      <point x="516.6981132075471" y="477.7735849056604" type="curve" smooth="yes"/>
      <point x="516.6981132075471" y="516.6603773584906"/>
      <point x="506.75471698113205" y="542.8490566037736"/>
      <point x="482.3207547169811" y="559.3962264150944" type="curve"/>
      <point x="490.7169811320755" y="585.5283018867924" type="line"/>
      <point x="390.2830188679245" y="585.5283018867924" type="line"/>
      <point x="390.2830188679245" y="454.8301886792453"/>
      <point x="390.2830188679245" y="324.2830188679245"/>
      <point x="390.2830188679245" y="193.88679245283015" type="curve"/>
      <point x="361.62264150943395" y="130.18867924528303"/>
      <point x="335.41509433962267" y="110.77358490566037"/>
      <point x="287.60377358490564" y="110.77358490566037" type="curve" smooth="yes"/>
      <point x="225.84905660377356" y="110.77358490566037"/>
      <point x="188.67924528301884" y="163.56603773584905"/>
      <point x="188.67924528301884" y="300.9622641509434" type="curve" smooth="yes"/>
      <point x="188.67924528301884" y="315.47169811320754" type="line" smooth="yes"/>
      <point x="188.67924528301884" y="491.0943396226415"/>
      <point x="226.0" y="583.2830188679246"/>
      <point x="286.3962264150943" y="583.2830188679246" type="curve" smooth="yes"/>
      <point x="336.66037735849056" y="583.2830188679246"/>
      <point x="361.8679245283019" y="562.0188679245283"/>
      <point x="390.2830188679245" y="509.0" type="curve"/>
      <point x="444.6981132075472" y="565.0943396226414" type="line"/>
      <point x="749.5471698113208" y="565.0943396226414" type="line"/>
      <point x="754.0943396226415" y="577.7358490566037"/>
      <point x="755.9433962264152" y="594.7735849056604"/>
      <point x="755.9433962264152" y="613.5094339622642" type="curve" smooth="yes"/>
      <point x="755.9433962264152" y="671.1698113207548"/>
      <point x="735.0566037735849" y="700.0"/>
      <point x="694.1320754716982" y="700.0" type="curve"/>
      <point x="390.2830188679245" y="700.0" type="line"/>
      <point x="390.2830188679245" y="633.9433962264151" type="line"/>
      <point x="359.8867924528302" y="686.9811320754717"/>
      <point x="308.54716981132077" y="709.3962264150944"/>
    </contour>
    <contour>
      <point x="473.0754716981132" y="366.9811320754717" type="line"/>
      <point x="473.0754716981132" y="249.0566037735849" type="line"/>
      <point x="722.7547169811321" y="249.0566037735849" type="line"/>
      <point x="725.6037735849056" y="259.84905660377365"/>
      <point x="727.4528301886793" y="272.49056603773585"/>
      <point x="727.4528301886793" y="286.8301886792453" type="curve" smooth="yes"/>
      <point x="727.4528301886793" y="342.64150943396226"/>
      <point x="711.1132075471698" y="366.9811320754717"/>
      <point x="672.1886792452831" y="366.9811320754717" type="curve"/>
    </contour>
  </outline>
</glyph>
<glyph name="Nhookleft" format="2">
  <advance width="650.0"/>
  <unicode hex="019D"/>
  <outline>
    <contour>
      <point x="8.245283018867923" y="-60.28301886792454" type="curve" smooth="yes"/>
      <point x="-15.113207547169814" y="-60.28301886792454"/>
      <point x="-23.962264150943398" y="-56.67924528301887"/>
      <point x="-43.113207547169814" y="-48.62264150943397" type="curve"/>
      <point x="-47.113207547169814" y="-48.62264150943397" type="line"/>
      <point x="-49.9622641509434" y="-63.113207547169814"/>
      <point x="-50.9622641509434" y="-76.9056603773585"/>
      <point x="-50.9622641509434" y="-91.54716981132074" type="curve" smooth="yes"/>
      <point x="-50.9622641509434" y="-138.2075471698113"/>
      <point x="-40.320754716981135" y="-166.49056603773585"/>
      <point x="-21.283018867924536" y="-185.52830188679243" type="curve" smooth="yes"/>
      <point x="-10.830188679245289" y="-195.9811320754717"/>
      <point x="3.377358490566035" y="-201.9811320754717"/>
      <point x="18.43396226415094" y="-201.9811320754717" type="curve" smooth="yes"/>
      <point x="27.679245283018865" y="-201.9811320754717" type="line" smooth="yes"/>
      <point x="121.50943396226415" y="-201.9811320754717"/>
      <point x="193.67924528301884" y="-120.9622641509434"/>
      <point x="193.67924528301884" y="-10.0" type="curve" smooth="yes"/>
      <point x="193.67924528301884" y="8.792452830188678" type="line" smooth="yes"/>
      <point x="193.67924528301884" y="45.169811320754704"/>
      <point x="123.09433962264151" y="95.86792452830187"/>
      <point x="67.26415094339623" y="95.86792452830187" type="curve"/>
      <point x="67.26415094339623" y="38.45283018867923" type="line" smooth="yes"/>
      <point x="67.26415094339623" y="-28.64150943396227"/>
      <point x="47.75471698113208" y="-60.28301886792454"/>
    </contour>
    <component base="N" xOffset="-1.5094339622641524"/>
  </outline>
</glyph>
<glyph name="DZcaron" format="2">
  <advance width="1250.0"/>
  <unicode hex="01C4"/>
  <outline>
    <contour>
      <point x="307.20754716981133" y="720.0" type="curve"/>
      <point x="212.8490566037736" y="720.0"/>
      <point x="120.05660377358491" y="714.4528301886793"/>
      <point x="32.64150943396228" y="700.0" type="curve"/>
      <point x="29.245283018867937" y="685.1132075471697"/>
      <point x="27.547169811320767" y="670.0754716981132"/>
      <point x="27.547169811320767" y="650.0943396226415" type="curve"/>
      <point x="27.547169811320767" y="591.9811320754718"/>
      <point x="39.64150943396228" y="565.0943396226415"/>
      <point x="68.9811320754717" y="565.0943396226415" type="curve" smooth="yes"/>
      <point x="89.67924528301889" y="565.0943396226415"/>
      <point x="163.39622641509436" y="585.0943396226415"/>
      <point x="287.433962264151" y="585.0943396226415" type="curve" smooth="yes"/>
      <point x="351.3018867924528" y="585.0943396226415"/>
      <point x="393.7169811320755" y="575.7358490566037"/>
      <point x="433.3207547169812" y="553.3207547169812" type="curve" smooth="yes"/>
      <point x="450.09433962264154" y="516.4528301886793"/>
      <point x="457.54716981132077" y="474.6792452830189"/>
      <point x="457.54716981132077" y="401.188679245283" type="curve" smooth="yes"/>
      <point x="457.54716981132077" y="391.188679245283" type="line" smooth="yes"/>
      <point x="457.54716981132077" y="221.49056603773585"/>
      <point x="363.5660377358491" y="129.1509433962264"/>
      <point x="249.01886792452828" y="129.1509433962264" type="curve" smooth="yes"/>
      <point x="240.79245283018867" y="129.1509433962264"/>
      <point x="231.60377358490564" y="129.9056603773585"/>
      <point x="225.18867924528303" y="131.11320754716982" type="curve"/>
      <point x="225.18867924528303" y="252.28301886792454"/>
      <point x="225.18867924528303" y="374.0566037735849"/>
      <point x="225.18867924528303" y="493.41509433962267" type="curve" smooth="yes"/>
      <point x="225.18867924528303" y="531.0"/>
      <point x="213.69811320754718" y="556.4905660377358"/>
      <point x="189.81132075471697" y="574.8867924528303" type="curve"/>
      <point x="199.71698113207546" y="603.3396226415094" type="line"/>
      <point x="81.7924528301887" y="603.3396226415094" type="line"/>
      <point x="81.7924528301887" y="440.13207547169816"/>
      <point x="81.7924528301887" y="277.1698113207547"/>
      <point x="81.7924528301887" y="103.33962264150942" type="curve"/>
      <point x="81.7924528301887" y="74.90566037735849"/>
      <point x="87.18867924528303" y="65.2075471698113"/>
      <point x="111.16981132075473" y="41.226415094339615" type="curve" smooth="yes"/>
      <point x="145.90566037735852" y="6.792452830188678"/>
      <point x="207.33962264150944" y="-10.0"/>
      <point x="265.60377358490564" y="-10.0" type="curve" smooth="yes"/>
      <point x="444.5660377358491" y="-10.0"/>
      <point x="599.2452830188679" y="142.35849056603774"/>
      <point x="599.2452830188679" y="398.0188679245283" type="curve" smooth="yes"/>
      <point x="599.2452830188679" y="416.0943396226415" type="line" smooth="yes"/>
      <point x="599.2452830188679" y="621.5094339622642"/>
      <point x="476.0943396226415" y="720.0"/>
    </contour>
    <contour>
      <point x="1148.5094339622642" y="0.0" type="line"/>
      <point x="1150.5094339622642" y="7.69811320754717"/>
      <point x="1151.5094339622642" y="17.24528301886793"/>
      <point x="1151.5094339622642" y="29.188679245283012" type="curve" smooth="yes"/>
      <point x="1151.5094339622642" y="90.33962264150942"/>
      <point x="1135.0188679245282" y="134.9056603773585"/>
      <point x="1074.811320754717" y="134.9056603773585" type="curve"/>
      <point x="977.9622641509434" y="134.9056603773585" type="line"/>
      <point x="933.2830188679245" y="134.9056603773585"/>
      <point x="883.6603773584906" y="134.0566037735849"/>
      <point x="797.377358490566" y="125.66037735849055" type="curve"/>
      <point x="826.4716981132076" y="107.71698113207545" type="line"/>
      <point x="825.566037735849" y="161.84905660377356" type="line"/>
      <point x="801.0754716981132" y="114.1132075471698" type="line"/>
      <point x="854.9433962264152" y="157.41509433962264"/>
      <point x="907.2830188679245" y="205.8679245283019"/>
      <point x="952.7547169811321" y="255.96226415094338" type="curve" smooth="yes"/>
      <point x="1064.2075471698113" y="372.9056603773585"/>
      <point x="1150.6603773584905" y="496.8679245283019"/>
      <point x="1151.5094339622642" y="552.3584905660377" type="curve"/>
      <point x="1151.5094339622642" y="560.4528301886793" type="line" smooth="yes"/>
      <point x="1151.5094339622642" y="660.4150943396227"/>
      <point x="1132.0566037735848" y="700.0"/>
      <point x="1081.1698113207547" y="700.0" type="curve"/>
      <point x="714.5283018867925" y="700.0" type="line"/>
      <point x="698.6415094339624" y="651.4905660377359"/>
      <point x="717.9245283018868" y="569.3396226415094"/>
      <point x="774.433962264151" y="569.3396226415094" type="curve"/>
      <point x="905.6226415094338" y="569.3396226415094" type="line"/>
      <point x="960.3584905660376" y="569.3396226415094"/>
      <point x="994.7358490566039" y="573.8867924528303"/>
      <point x="1036.6603773584907" y="587.6792452830189" type="curve"/>
      <point x="1005.6981132075471" y="610.622641509434" type="line"/>
      <point x="1010.3773584905659" y="535.4528301886792" type="line"/>
      <point x="1022.9056603773585" y="605.5283018867925" type="line"/>
      <point x="994.9622641509434" y="539.4716981132076"/>
      <point x="962.7358490566037" y="479.2641509433962"/>
      <point x="925.0943396226414" y="423.66037735849056" type="curve" smooth="yes"/>
      <point x="852.4905660377359" y="313.4150943396226"/>
      <point x="768.0754716981132" y="223.05660377358487"/>
      <point x="654.5283018867925" y="126.41509433962263" type="curve"/>
      <point x="654.5283018867925" y="112.16981132075469" type="line" smooth="yes"/>
      <point x="654.5283018867925" y="42.471698113207545"/>
      <point x="673.1132075471698" y="0.0"/>
      <point x="735.2641509433962" y="0.0" type="curve" smooth="yes"/>
    </contour>
    <contour>
      <point x="800.754716981132" y="507.84905660377365" type="curve"/>
      <point x="800.754716981132" y="611.1320754716982"/>
      <point x="826.0566037735848" y="657.2075471698114"/>
      <point x="826.2075471698113" y="713.4150943396227" type="curve"/>
      <point x="826.3584905660376" y="740.7547169811321"/>
      <point x="795.0754716981131" y="758.4905660377359"/>
      <point x="713.433962264151" y="758.4905660377359" type="curve"/>
      <point x="685.4905660377359" y="700.2452830188679"/>
      <point x="667.5471698113208" y="630.1509433962265"/>
      <point x="667.5471698113208" y="558.5660377358491" type="curve"/>
      <point x="667.5471698113208" y="516.7924528301887"/>
      <point x="689.3396226415094" y="502.4528301886793"/>
      <point x="749.2452830188679" y="502.4528301886793" type="curve" smooth="yes"/>
      <point x="769.5283018867925" y="502.4528301886793"/>
      <point x="787.5660377358491" y="504.3018867924529"/>
    </contour>
    <contour>
      <point x="958.5660377358491" y="777.2641509433962" type="curve"/>
      <point x="1009.7735849056603" y="799.811320754717"/>
      <point x="1059.7735849056603" y="836.1132075471697"/>
      <point x="1092.830188679245" y="873.8679245283018" type="curve" smooth="yes"/>
      <point x="1111.4339622641508" y="895.1698113207547"/>
      <point x="1118.433962264151" y="912.1698113207548"/>
      <point x="1118.433962264151" y="920.867924528302" type="curve" smooth="yes"/>
      <point x="1118.433962264151" y="936.8113207547169"/>
      <point x="1091.2075471698113" y="949.6037735849056"/>
      <point x="1016.0188679245282" y="949.6037735849056" type="curve" smooth="yes"/>
      <point x="1010.0188679245284" y="949.6037735849056" type="line"/>
      <point x="987.5094339622641" y="921.2830188679245"/>
      <point x="949.1886792452831" y="886.8679245283018"/>
      <point x="882.4150943396226" y="846.4716981132075" type="curve"/>
      <point x="937.867924528302" y="861.8679245283018" type="line"/>
      <point x="915.0188679245283" y="861.8679245283018"/>
      <point x="893.0188679245283" y="861.8679245283018"/>
      <point x="870.1698113207548" y="861.8679245283018" type="curve"/>
      <point x="926.4716981132076" y="847.4716981132075" type="line"/>
      <point x="867.0" y="879.3207547169811"/>
      <point x="842.9811320754717" y="897.1886792452831"/>
      <point x="817.8679245283018" y="924.4528301886793" type="curve" smooth="yes"/>
      <point x="803.4150943396226" y="940.0566037735848"/>
      <point x="788.0754716981132" y="949.1509433962265"/>
      <point x="755.6981132075472" y="949.1509433962265" type="curve" smooth="yes"/>
      <point x="722.4716981132075" y="949.1509433962265"/>
      <point x="700.0377358490566" y="945.4528301886792"/>
      <point x="675.7547169811321" y="936.0566037735849" type="curve"/>
      <point x="710.2075471698113" y="877.0566037735849"/>
      <point x="749.2830188679246" y="839.5471698113208"/>
      <point x="798.622641509434" y="806.9056603773585" type="curve" smooth="yes"/>
      <point x="837.0188679245283" y="781.6603773584906"/>
      <point x="861.6037735849056" y="777.2641509433962"/>
      <point x="902.867924528302" y="777.2641509433962" type="curve" smooth="yes"/>
      <point x="921.1509433962265" y="777.2641509433962"/>
      <point x="940.2830188679245" y="777.2641509433962"/>
    </contour>
  </outline>
</glyph>
<glyph name="Lj" format="2">
  <advance width="850.0"/>
  <unicode hex="01C8"/>
  <outline>
    <contour>
      <point x="159.9811320754717" y="0.0" type="curve" smooth="yes"/>
      <point x="464.75471698113205" y="0.0" type="line"/>
      <point x="474.09433962264154" y="91.1320754716981"/>
      <point x="454.50943396226415" y="134.9056603773585"/>
      <point x="401.8490566037736" y="134.9056603773585" type="curve" smooth="yes"/>
      <point x="214.73584905660374" y="134.9056603773585" type="line"/>
      <point x="214.73584905660374" y="300.9433962264151"/>
      <point x="214.73584905660374" y="474.8679245283019"/>
      <point x="214.73584905660374" y="623.9245283018868" type="curve"/>
      <point x="214.73584905660374" y="689.6792452830189"/>
      <point x="194.05660377358487" y="709.3962264150944"/>
      <point x="128.33962264150944" y="709.3962264150944" type="curve" smooth="yes"/>
      <point x="101.66037735849058" y="709.3962264150944"/>
      <point x="79.67924528301887" y="705.8490566037735"/>
      <point x="59.24528301886794" y="700.4528301886793" type="curve"/>
      <point x="67.7924528301887" y="666.3018867924528"/>
      <point x="71.33962264150944" y="632.7169811320755"/>
      <point x="71.33962264150944" y="591.5094339622641" type="curve" smooth="yes"/>
      <point x="71.33962264150944" y="441.1698113207548"/>
      <point x="71.33962264150944" y="291.377358490566"/>
      <point x="71.33962264150944" y="143.0" type="curve" smooth="yes"/>
      <point x="71.33962264150944" y="78.33962264150942"/>
      <point x="98.92452830188681" y="0.0"/>
    </contour>
    <contour>
      <point x="392.7169811320755" y="229.1509433962264" type="curve"/>
      <point x="392.7169811320755" y="112.98113207547169"/>
      <point x="367.41509433962267" y="59.84905660377358"/>
      <point x="367.26415094339626" y="-4.0" type="curve" smooth="yes"/>
      <point x="367.11320754716985" y="-27.094339622641513"/>
      <point x="392.4528301886793" y="-42.283018867924525"/>
      <point x="459.35849056603774" y="-42.283018867924525" type="curve"/>
      <point x="490.6981132075472" y="23.60377358490566"/>
      <point x="517.433962264151" y="99.45283018867923"/>
      <point x="517.433962264151" y="177.83018867924528" type="curve" smooth="yes"/>
      <point x="517.433962264151" y="219.60377358490564"/>
      <point x="497.73584905660374" y="234.2452830188679"/>
      <point x="443.47169811320754" y="234.2452830188679" type="curve" smooth="yes"/>
      <point x="423.49056603773585" y="234.2452830188679"/>
      <point x="405.9056603773585" y="232.54716981132074"/>
    </contour>
    <contour>
      <point x="639.0566037735849" y="547.8867924528302" type="curve" smooth="yes"/>
      <point x="610.1320754716982" y="547.8867924528302"/>
      <point x="570.0188679245283" y="545.2830188679245"/>
      <point x="537.0566037735849" y="541.2830188679245" type="curve"/>
      <point x="533.3584905660377" y="527.7924528301887"/>
      <point x="531.5094339622641" y="509.7547169811321"/>
      <point x="531.5094339622641" y="489.0188679245283" type="curve" smooth="yes"/>
      <point x="531.5094339622641" y="436.45283018867923"/>
      <point x="545.4528301886793" y="406.37735849056605"/>
      <point x="572.3396226415094" y="406.37735849056605" type="curve" smooth="yes"/>
      <point x="591.2452830188679" y="406.37735849056605"/>
      <point x="611.0754716981132" y="411.8301886792453"/>
      <point x="633.0566037735849" y="421.7735849056604" type="curve"/>
      <point x="639.0566037735849" y="417.9245283018868" type="line"/>
      <point x="639.0566037735849" y="277.18867924528297"/>
      <point x="639.0566037735849" y="175.60377358490564"/>
      <point x="639.0566037735849" y="34.867924528301884" type="curve" smooth="yes"/>
      <point x="639.0566037735849" y="-6.509433962264161"/>
      <point x="637.6981132075472" y="-40.71698113207549"/>
      <point x="629.622641509434" y="-69.22641509433963" type="curve"/>
      <point x="620.1132075471698" y="-73.03773584905662"/>
      <point x="610.0" y="-75.09433962264151"/>
      <point x="596.0377358490565" y="-75.09433962264151" type="curve" smooth="yes"/>
      <point x="565.2830188679245" y="-75.09433962264151"/>
      <point x="544.188679245283" y="-70.7924528301887"/>
      <point x="514.9433962264151" y="-57.18867924528305" type="curve"/>
      <point x="509.0943396226415" y="-57.18867924528305" type="line"/>
      <point x="506.0943396226415" y="-68.28301886792454"/>
      <point x="505.0943396226415" y="-79.52830188679248"/>
      <point x="505.0943396226415" y="-92.92452830188681" type="curve" smooth="yes"/>
      <point x="505.0943396226415" y="-129.54716981132077"/>
      <point x="515.7358490566038" y="-169.41509433962264"/>
      <point x="533.0754716981132" y="-186.75471698113208" type="curve" smooth="yes"/>
      <point x="551.3207547169811" y="-205.0"/>
      <point x="573.2264150943396" y="-210.0"/>
      <point x="605.4716981132075" y="-210.0" type="curve" smooth="yes"/>
      <point x="701.188679245283" y="-210.0"/>
      <point x="773.9622641509435" y="-109.32075471698113"/>
      <point x="773.9622641509435" y="-11.339622641509422" type="curve" smooth="yes"/>
      <point x="773.9622641509435" y="194.03773584905662"/>
      <point x="773.9622641509435" y="320.35849056603774"/>
      <point x="773.9622641509435" y="485.8301886792452" type="curve" smooth="yes"/>
      <point x="773.9622641509435" y="525.9056603773586"/>
      <point x="730.0377358490566" y="547.8867924528302"/>
    </contour>
    <contour>
      <point x="613.0188679245283" y="754.8490566037736" type="curve"/>
      <point x="613.0188679245283" y="699.4528301886792" type="line" smooth="yes"/>
      <point x="613.0188679245283" y="650.2830188679245"/>
      <point x="658.3396226415094" y="619.4528301886793"/>
      <point x="722.4528301886792" y="619.4528301886793" type="curve" smooth="yes"/>
      <point x="751.433962264151" y="619.4528301886793"/>
      <point x="779.2641509433962" y="624.6981132075472"/>
      <point x="801.6981132075472" y="634.3396226415094" type="curve"/>
      <point x="801.6981132075472" y="703.3207547169811" type="line" smooth="yes"/>
      <point x="801.6981132075472" y="752.4905660377359"/>
      <point x="760.7735849056604" y="769.7358490566038"/>
      <point x="702.4528301886793" y="769.7358490566038" type="curve" smooth="yes"/>
      <point x="670.9245283018868" y="769.7358490566038"/>
      <point x="635.4528301886793" y="763.6415094339623"/>
    </contour>
  </outline>
</glyph>
<glyph name="nj" format="2">
  <advance width="900.0"/>
  <unicode hex="01CC"/>
  <outline>
    <contour>
      <point x="697.5471698113207" y="547.8867924528302" type="curve" smooth="yes"/>
      <point x="668.622641509434" y="547.8867924528302"/>
      <point x="628.5094339622642" y="545.2830188679245"/>
      <point x="595.5471698113208" y="541.2830188679245" type="curve"/>
      <point x="591.8490566037736" y="527.7924528301887"/>
      <point x="590.0" y="509.7547169811321"/>
      <point x="590.0" y="489.0188679245283" type="curve" smooth="yes"/>
      <point x="590.0" y="436.45283018867923"/>
      <point x="603.9433962264151" y="406.37735849056605"/>
      <point x="630.8301886792453" y="406.37735849056605" type="curve" smooth="yes"/>
      <point x="649.7358490566037" y="406.37735849056605"/>
      <point x="669.5660377358491" y="411.8301886792453"/>
      <point x="691.5471698113207" y="421.7735849056604" type="curve"/>
      <point x="697.5471698113208" y="417.9245283018868" type="line"/>
      <point x="697.5471698113208" y="277.18867924528297"/>
      <point x="697.5471698113208" y="175.60377358490564"/>
      <point x="697.5471698113208" y="34.867924528301884" type="curve" smooth="yes"/>
      <point x="697.5471698113208" y="-6.509433962264161"/>
      <point x="696.1886792452831" y="-40.71698113207549"/>
      <point x="688.1132075471698" y="-69.22641509433963" type="curve"/>
      <point x="678.6037735849056" y="-73.03773584905662"/>
      <point x="668.4905660377359" y="-75.09433962264151"/>
      <point x="654.5283018867924" y="-75.09433962264151" type="curve" smooth="yes"/>
      <point x="623.7735849056604" y="-75.09433962264151"/>
      <point x="602.6792452830189" y="-70.7924528301887"/>
      <point x="573.4339622641509" y="-57.18867924528305" type="curve"/>
      <point x="567.5849056603773" y="-57.18867924528305" type="line"/>
      <point x="564.5849056603773" y="-68.28301886792454"/>
      <point x="563.5849056603773" y="-79.52830188679248"/>
      <point x="563.5849056603773" y="-92.92452830188681" type="curve" smooth="yes"/>
      <point x="563.5849056603773" y="-129.54716981132077"/>
      <point x="574.2264150943397" y="-169.41509433962264"/>
      <point x="591.566037735849" y="-186.75471698113208" type="curve" smooth="yes"/>
      <point x="609.8113207547169" y="-205.0"/>
      <point x="631.7169811320754" y="-210.0"/>
      <point x="663.9622641509434" y="-210.0" type="curve" smooth="yes"/>
      <point x="759.6792452830189" y="-210.0"/>
      <point x="832.4528301886793" y="-109.32075471698113"/>
      <point x="832.4528301886793" y="-11.339622641509422" type="curve" smooth="yes"/>
      <point x="832.4528301886793" y="194.03773584905662"/>
      <point x="832.4528301886793" y="320.35849056603774"/>
      <point x="832.4528301886793" y="485.8301886792452" type="curve" smooth="yes"/>
      <point x="832.4528301886793" y="525.9056603773586"/>
      <point x="788.5283018867925" y="547.8867924528302"/>
    </contour>
    <contour>
      <point x="671.5094339622642" y="754.8490566037736" type="curve"/>
      <point x="671.5094339622642" y="699.4528301886792" type="line" smooth="yes"/>
      <point x="671.5094339622642" y="650.2830188679245"/>
      <point x="716.8301886792453" y="619.4528301886793"/>
      <point x="780.9433962264151" y="619.4528301886793" type="curve" smooth="yes"/>
      <point x="809.9245283018868" y="619.4528301886793"/>
      <point x="837.7547169811321" y="624.6981132075472"/>
      <point x="860.188679245283" y="634.3396226415094" type="curve"/>
      <point x="860.188679245283" y="703.3207547169811" type="line" smooth="yes"/>
      <point x="860.188679245283" y="752.4905660377359"/>
      <point x="819.2641509433962" y="769.7358490566038"/>
      <point x="760.9433962264151" y="769.7358490566038" type="curve" smooth="yes"/>
      <point x="729.4150943396227" y="769.7358490566038"/>
      <point x="693.9433962264152" y="763.6415094339623"/>
    </contour>
    <contour>
      <point x="544.566037735849" y="0.0" type="curve"/>
      <point x="529.3207547169811" y="56.58490566037736"/>
      <point x="524.622641509434" y="92.28301886792454"/>
      <point x="524.622641509434" y="153.71698113207546" type="curve" smooth="yes"/>
      <point x="524.622641509434" y="231.1320754716981"/>
      <point x="524.622641509434" y="308.54716981132077"/>
      <point x="524.622641509434" y="385.9622641509434" type="curve" smooth="yes"/>
      <point x="524.622641509434" y="462.66037735849056"/>
      <point x="474.377358490566" y="549.7358490566038"/>
      <point x="413.20754716981133" y="549.7358490566038" type="curve"/>
      <point x="330.05660377358487" y="549.7358490566038"/>
      <point x="250.9056603773585" y="474.6792452830188"/>
      <point x="212.0377358490566" y="375.566037735849" type="curve"/>
      <point x="185.54716981132074" y="375.566037735849" type="line"/>
      <point x="186.0" y="149.8867924528302" type="line"/>
      <point x="238.24528301886792" y="337.22641509433964"/>
      <point x="301.8301886792453" y="400.39622641509436"/>
      <point x="364.811320754717" y="400.39622641509436" type="curve" smooth="yes"/>
      <point x="380.94339622641513" y="400.39622641509436"/>
      <point x="393.50943396226415" y="392.0188679245283"/>
      <point x="404.4150943396226" y="375.7169811320755" type="curve" smooth="yes"/>
      <point x="387.1698113207547" y="284.33962264150944"/>
      <point x="375.8301886792453" y="206.16981132075472"/>
      <point x="375.8301886792453" y="129.1509433962264" type="curve" smooth="yes"/>
      <point x="375.8301886792453" y="22.452830188679247"/>
      <point x="416.9622641509434" y="-5.396226415094339"/>
      <point x="493.05660377358487" y="-5.396226415094339" type="curve" smooth="yes"/>
      <point x="511.64150943396226" y="-5.396226415094339"/>
      <point x="526.8301886792453" y="-3.547169811320754"/>
    </contour>
    <contour>
      <point x="206.0377358490566" y="-0.7547169811320762" type="curve"/>
      <point x="206.0377358490566" y="110.9433962264151"/>
      <point x="206.0377358490566" y="250.50943396226415"/>
      <point x="206.0377358490566" y="382.5849056603774" type="curve" smooth="yes"/>
      <point x="206.0377358490566" y="506.45283018867923"/>
      <point x="158.62264150943395" y="543.8867924528302"/>
      <point x="93.11320754716981" y="543.8867924528302" type="curve"/>
      <point x="79.62264150943398" y="543.8867924528302"/>
      <point x="65.9811320754717" y="541.188679245283"/>
      <point x="52.49056603773585" y="538.3396226415094" type="curve"/>
      <point x="65.73584905660378" y="513.8867924528302"/>
      <point x="71.13207547169813" y="476.26415094339626"/>
      <point x="71.13207547169813" y="441.1509433962264" type="curve" smooth="yes"/>
      <point x="71.13207547169813" y="325.62264150943395"/>
      <point x="71.13207547169813" y="212.49056603773585"/>
      <point x="71.13207547169813" y="78.28301886792451" type="curve" smooth="yes"/>
      <point x="71.13207547169813" y="28.86792452830188"/>
      <point x="94.22641509433963" y="-3.3018867924528306"/>
      <point x="167.16981132075472" y="-3.3018867924528306" type="curve" smooth="yes"/>
      <point x="180.35849056603774" y="-3.3018867924528306"/>
      <point x="190.30188679245282" y="-3.3018867924528306"/>
    </contour>
  </outline>
</glyph>
<glyph name="nhookleft" format="2">
  <advance width="600.0"/>
  <unicode hex="0272"/>
  <outline>
    <contour>
      <point x="14.66037735849057" y="-60.28301886792454" type="curve" smooth="yes"/>
      <point x="-8.69811320754717" y="-60.28301886792454"/>
      <point x="-17.547169811320757" y="-56.67924528301887"/>
      <point x="-36.698113207547166" y="-48.62264150943397" type="curve"/>
      <point x="-40.698113207547166" y="-48.62264150943397" type="line"/>
      <point x="-43.54716981132076" y="-63.113207547169814"/>
      <point x="-44.54716981132076" y="-76.9056603773585"/>
      <point x="-44.54716981132076" y="-91.54716981132074" type="curve" smooth="yes"/>
      <point x="-44.54716981132076" y="-138.2075471698113"/>
      <point x="-33.905660377358494" y="-166.49056603773585"/>
      <point x="-14.867924528301891" y="-185.52830188679243" type="curve" smooth="yes"/>
      <point x="-4.415094339622645" y="-195.9811320754717"/>
      <point x="9.792452830188678" y="-201.9811320754717"/>
      <point x="24.849056603773583" y="-201.9811320754717" type="curve" smooth="yes"/>
      <point x="34.09433962264151" y="-201.9811320754717" type="line" smooth="yes"/>
      <point x="135.0243981782547" y="-201.9811320754717"/>
      <point x="206.0377358490566" y="-120.11320754716981"/>
      <point x="206.0377358490566" y="-10.0" type="curve" smooth="yes"/>
      <point x="206.0377358490566" y="8.792452830188678" type="line" smooth="yes"/>
      <point x="206.0377358490566" y="28.188679245283016"/>
      <point x="132.05660377358492" y="76.33962264150942"/>
      <point x="71.13207547169813" y="76.33962264150942" type="curve"/>
      <point x="71.13207547169813" y="38.452830188679236" type="line" smooth="yes"/>
      <point x="71.13207547169813" y="-28.641509433962277"/>
      <point x="54.16981132075472" y="-60.28301886792454"/>
    </contour>
    <component base="n"/>
  </outline>
</glyph>
<glyph name="ringhalfrightmod" format="2">
  <advance width="200.0"/>
  <unicode hex="02BE"/>
  <outline>
    <contour>
      <point x="54.886792452830186" y="594.1132075471698" type="curve" smooth="yes"/>
      <point x="125.07547169811319" y="594.1132075471698"/>
      <point x="183.56603773584905" y="649.1509433962264"/>
      <point x="183.56603773584905" y="727.2830188679245" type="curve" smooth="yes"/>
      <point x="183.56603773584905" y="734.132075471698" type="line" smooth="yes"/>
      <point x="183.56603773584905" y="810.1132075471697"/>
      <point x="127.37735849056604" y="860.7547169811321"/>
      <point x="51.490566037735846" y="860.7547169811321" type="curve"/>
      <point x="43.0" y="841.4150943396227"/>
      <point x="37.905660377358494" y="822.2264150943397"/>
      <point x="37.905660377358494" y="803.4339622641509" type="curve" smooth="yes"/>
      <point x="37.905660377358494" y="791.4905660377359"/>
      <point x="42.301886792452834" y="784.3962264150942"/>
      <point x="52.54716981132076" y="784.3962264150942" type="curve" smooth="yes"/>
      <point x="67.64150943396226" y="784.3962264150942"/>
      <point x="80.49056603773585" y="782.2452830188679"/>
      <point x="89.49056603773585" y="774.6981132075472" type="curve"/>
      <point x="96.90566037735849" y="766.0943396226415"/>
      <point x="99.66037735849058" y="754.8867924528303"/>
      <point x="99.66037735849058" y="739.0754716981131" type="curve" smooth="yes"/>
      <point x="99.66037735849058" y="734.7735849056604" type="line" smooth="yes"/>
      <point x="99.66037735849058" y="703.811320754717"/>
      <point x="78.45283018867926" y="685.7547169811321"/>
      <point x="47.73584905660377" y="683.2075471698113" type="curve"/>
      <point x="40.09433962264151" y="660.4716981132076"/>
      <point x="35.84905660377359" y="636.8867924528302"/>
      <point x="35.84905660377359" y="620.0943396226414" type="curve" smooth="yes"/>
      <point x="35.84905660377359" y="600.3584905660377"/>
      <point x="41.24528301886792" y="594.1132075471698"/>
    </contour>
  </outline>
</glyph>
<glyph name="verticallinemod" format="2">
  <advance width="200.0"/>
  <unicode hex="02C8"/>
  <outline>
    <contour>
      <point x="173.39622641509433" y="444.79245283018867" type="curve"/>
      <point x="173.39622641509433" y="707.1698113207548" type="line" smooth="yes"/>
      <point x="173.39622641509433" y="741.7547169811321"/>
      <point x="153.81132075471697" y="754.0"/>
      <point x="97.45283018867924" y="754.0" type="curve" smooth="yes"/>
      <point x="69.32075471698114" y="754.0"/>
      <point x="41.09433962264152" y="752.1509433962265"/>
      <point x="19.50943396226417" y="750.1509433962265" type="curve"/>
      <point x="23.05660377358492" y="734.7547169811321"/>
      <point x="24.905660377358508" y="718.811320754717"/>
      <point x="24.905660377358508" y="693.1132075471698" type="curve" smooth="yes"/>
      <point x="24.905660377358508" y="484.58490566037733" type="line" smooth="yes"/>
      <point x="24.905660377358508" y="450.39622641509436"/>
      <point x="48.73584905660378" y="439.6981132075472"/>
      <point x="102.84905660377359" y="439.6981132075472" type="curve" smooth="yes"/>
      <point x="123.33962264150944" y="439.6981132075472"/>
      <point x="151.71698113207546" y="441.39622641509436"/>
    </contour>
  </outline>
</glyph>
<glyph name="circumflexcomb" format="2">
  <unicode hex="0302"/>
  <anchor x="0.0" y="546.8867924528302" name="_top"/>
  <anchor x="185.47169811320754" y="717.9811320754717" name="side"/>
  <anchor x="0.0" y="739.0377358490566" name="top"/>
  <outline>
    <contour>
      <point x="-34.16981132075471" y="811.5094339622642" type="curve"/>
      <point x="-81.13207547169812" y="790.3584905660377"/>
      <point x="-143.86792452830187" y="743.9622641509434"/>
      <point x="-174.37735849056602" y="699.6603773584906" type="curve" smooth="yes"/>
      <point x="-191.2830188679245" y="674.5094339622642"/>
      <point x="-198.2830188679245" y="656.5094339622641"/>
      <point x="-198.2830188679245" y="645.1132075471698" type="curve" smooth="yes"/>
      <point x="-198.2830188679245" y="627.3207547169811"/>
      <point x="-165.1132075471698" y="612.6792452830189"/>
      <point x="-104.35849056603774" y="612.6792452830189" type="curve" smooth="yes"/>
      <point x="-98.35849056603774" y="612.6792452830189" type="line"/>
      <point x="-78.39622641509435" y="647.8490566037735"/>
      <point x="-43.32075471698113" y="685.4150943396226"/>
      <point x="20.754716981132077" y="731.1132075471697" type="curve"/>
      <point x="-32.849056603773576" y="713.8679245283018" type="line"/>
      <point x="33.0" y="713.8679245283018" type="line"/>
      <point x="-22.452830188679247" y="729.2641509433962" type="line"/>
      <point x="32.77358490566038" y="696.5094339622642"/>
      <point x="57.64150943396228" y="673.0943396226414"/>
      <point x="76.81132075471699" y="647.622641509434" type="curve" smooth="yes"/>
      <point x="98.05660377358492" y="619.8301886792453"/>
      <point x="110.00000000000001" y="613.1320754716982"/>
      <point x="138.13207547169813" y="613.1320754716982" type="curve" smooth="yes"/>
      <point x="168.811320754717" y="613.1320754716982"/>
      <point x="191.24528301886792" y="617.6792452830189"/>
      <point x="212.1320754716981" y="630.622641509434" type="curve"/>
      <point x="180.22641509433964" y="696.622641509434"/>
      <point x="135.2075471698113" y="745.0754716981132"/>
      <point x="87.56603773584904" y="779.7169811320755" type="curve" smooth="yes"/>
      <point x="50.018867924528294" y="807.1132075471698"/>
      <point x="32.22641509433962" y="811.5094339622642"/>
      <point x="-2.245283018867923" y="811.5094339622642" type="curve" smooth="yes"/>
      <point x="-17.13207547169811" y="811.5094339622642"/>
      <point x="-25.226415094339615" y="811.5094339622642"/>
    </contour>
  </outline>
</glyph>
<glyph name="dieresiscomb" format="2">
  <unicode hex="0308"/>
  <anchor x="0.0" y="546.8867924528302" name="_top"/>
  <anchor x="0.0" y="741.5094339622642" name="top"/>
  <outline>
    <contour>
      <point x="-180.75471698113205" y="764.7358490566037" type="curve"/>
      <point x="-180.75471698113205" y="666.0377358490566" type="line" smooth="yes"/>
      <point x="-180.75471698113205" y="625.3584905660377"/>
      <point x="-136.2830188679245" y="617.4528301886793"/>
      <point x="-95.94339622641508" y="617.4528301886793" type="curve" smooth="yes"/>
      <point x="-78.0" y="617.4528301886793"/>
      <point x="-55.26415094339623" y="617.6037735849058"/>
      <point x="-36.22641509433963" y="621.3018867924529" type="curve"/>
      <point x="-36.22641509433963" y="720.8490566037735" type="line" smooth="yes"/>
      <point x="-36.22641509433963" y="761.5283018867924"/>
      <point x="-80.54716981132076" y="767.7358490566037"/>
      <point x="-121.88679245283018" y="767.7358490566037" type="curve" smooth="yes"/>
      <point x="-138.9811320754717" y="767.7358490566037"/>
      <point x="-161.7169811320755" y="766.7358490566037"/>
    </contour>
    <contour>
      <point x="36.22641509433963" y="764.7358490566037" type="curve"/>
      <point x="36.22641509433963" y="666.0377358490566" type="line" smooth="yes"/>
      <point x="36.22641509433963" y="625.3584905660377"/>
      <point x="80.69811320754717" y="617.4528301886793"/>
      <point x="121.0377358490566" y="617.4528301886793" type="curve" smooth="yes"/>
      <point x="138.9811320754717" y="617.4528301886793"/>
      <point x="161.7169811320755" y="617.6037735849058"/>
      <point x="180.75471698113205" y="621.3018867924529" type="curve"/>
      <point x="180.75471698113205" y="720.8490566037735" type="line" smooth="yes"/>
      <point x="180.75471698113205" y="761.5283018867924"/>
      <point x="136.43396226415092" y="767.7358490566037"/>
      <point x="95.09433962264148" y="767.7358490566037" type="curve" smooth="yes"/>
      <point x="78.0" y="767.7358490566037"/>
      <point x="55.26415094339623" y="766.7358490566037"/>
    </contour>
  </outline>
</glyph>
<glyph name="dotbelowcomb" format="2">
  <unicode hex="0323"/>
  <anchor x="0.0" y="-11.0" name="_bottom"/>
  <anchor x="0.0" y="-145.24528301886792" name="_dot"/>
  <outline>
    <contour>
      <point x="-85.84905660377356" y="-79.62264150943398" type="curve"/>
      <point x="-85.84905660377356" y="-157.9433962264151" type="line" smooth="yes"/>
      <point x="-85.84905660377356" y="-207.11320754716982"/>
      <point x="-41.37735849056604" y="-215.8679245283019"/>
      <point x="15.094339622641506" y="-215.8679245283019" type="curve" smooth="yes"/>
      <point x="36.43396226415094" y="-215.8679245283019"/>
      <point x="63.41509433962264" y="-214.0188679245283"/>
      <point x="85.84905660377356" y="-210.32075471698113" type="curve"/>
      <point x="85.84905660377356" y="-132.0" type="line" smooth="yes"/>
      <point x="85.84905660377356" y="-82.8301886792453"/>
      <point x="41.52830188679244" y="-74.07547169811322"/>
      <point x="-15.094339622641506" y="-74.07547169811322" type="curve" smooth="yes"/>
      <point x="-36.43396226415094" y="-74.07547169811322"/>
      <point x="-63.41509433962264" y="-75.9245283018868"/>
    </contour>
  </outline>
</glyph>
<glyph name="cedillacomb" format="2">
  <unicode hex="0327"/>
  <anchor x="0.15094339622641528" y="0.0" name="_bottom"/>
  <outline>
    <contour>
      <point x="33.094339622641506" y="32.18867924528302" type="curve"/>
      <point x="-17.377358490566035" y="32.79245283018868"/>
      <point x="-30.52830188679245" y="26.641509433962266"/>
      <point x="-36.22641509433962" y="17.79245283018868" type="curve" smooth="yes"/>
      <point x="-49.471698113207545" y="-1.9056603773584904"/>
      <point x="-54.77358490566037" y="-51.226415094339615"/>
      <point x="-54.77358490566037" y="-67.33962264150944" type="curve" smooth="yes"/>
      <point x="-54.77358490566037" y="-75.09433962264151"/>
      <point x="-50.56603773584905" y="-78.30188679245283"/>
      <point x="-42.207547169811306" y="-78.30188679245283" type="curve" smooth="yes"/>
      <point x="-11.0566037735849" y="-78.30188679245283"/>
      <point x="3.094339622641515" y="-89.90566037735849"/>
      <point x="3.094339622641515" y="-108.41509433962266" type="curve" smooth="yes"/>
      <point x="3.094339622641515" y="-132.9245283018868"/>
      <point x="-15.509433962264144" y="-142.8867924528302"/>
      <point x="-45.075471698113205" y="-142.8867924528302" type="curve" smooth="yes"/>
      <point x="-77.92452830188678" y="-142.8867924528302"/>
      <point x="-93.77358490566037" y="-136.58490566037736"/>
      <point x="-113.62264150943396" y="-121.67924528301887" type="curve"/>
      <point x="-119.62264150943396" y="-121.67924528301887" type="line"/>
      <point x="-126.16981132075472" y="-139.47169811320754"/>
      <point x="-130.56603773584905" y="-157.50943396226415"/>
      <point x="-130.56603773584905" y="-176.0" type="curve" smooth="yes"/>
      <point x="-130.56603773584905" y="-213.58490566037736"/>
      <point x="-106.41509433962263" y="-243.37735849056602"/>
      <point x="-38.43396226415094" y="-243.37735849056602" type="curve" smooth="yes"/>
      <point x="56.94339622641509" y="-243.37735849056602"/>
      <point x="113.22641509433961" y="-203.0754716981132"/>
      <point x="113.22641509433961" y="-127.94339622641509" type="curve" smooth="yes"/>
      <point x="113.22641509433961" y="-76.84905660377359"/>
      <point x="75.49056603773585" y="-45.15094339622641"/>
      <point x="23.18867924528302" y="-40.301886792452834" type="curve"/>
      <point x="23.18867924528302" y="-34.60377358490566" type="line"/>
      <point x="25.490566037735846" y="-21.69811320754717"/>
      <point x="29.490566037735846" y="18.679245283018865"/>
    </contour>
  </outline>
</glyph>
<glyph name="quotedblleft" format="2">
  <advance width="600.0"/>
  <unicode hex="201C"/>
  <outline>
    <contour>
      <point x="303.58490566037733" y="727.6792452830189" type="curve"/>
      <point x="280.3962264150943" y="744.1698113207548"/>
      <point x="251.8679245283019" y="750.5660377358491"/>
      <point x="220.5849056603774" y="750.5660377358491" type="curve" smooth="yes"/>
      <point x="197.69811320754718" y="750.5660377358491"/>
      <point x="185.90566037735852" y="746.0188679245283"/>
      <point x="173.9622641509434" y="734.0754716981132" type="curve"/>
      <point x="131.60377358490567" y="691.8679245283018"/>
      <point x="93.09433962264151" y="589.2264150943396"/>
      <point x="93.09433962264151" y="501.62264150943395" type="curve"/>
      <point x="93.09433962264151" y="443.2075471698113"/>
      <point x="126.43396226415095" y="430.1132075471698"/>
      <point x="179.69811320754718" y="430.1132075471698" type="curve" smooth="yes"/>
      <point x="204.88679245283018" y="430.1132075471698"/>
      <point x="219.1320754716981" y="432.1132075471698"/>
      <point x="236.77358490566039" y="437.2641509433962" type="curve"/>
      <point x="236.77358490566039" y="548.3584905660377"/>
      <point x="258.8679245283019" y="643.566037735849"/>
    </contour>
    <contour>
      <point x="546.0377358490566" y="727.6792452830189" type="curve"/>
      <point x="522.8490566037735" y="744.1698113207548"/>
      <point x="494.3207547169811" y="750.5660377358491"/>
      <point x="463.0377358490566" y="750.5660377358491" type="curve" smooth="yes"/>
      <point x="440.1509433962264" y="750.5660377358491"/>
      <point x="428.35849056603774" y="746.0188679245283"/>
      <point x="416.41509433962267" y="734.0754716981132" type="curve"/>
      <point x="374.0566037735849" y="691.8679245283018"/>
      <point x="335.54716981132077" y="589.2264150943396"/>
      <point x="335.54716981132077" y="501.62264150943395" type="curve"/>
      <point x="335.54716981132077" y="443.2075471698113"/>
      <point x="368.8867924528302" y="430.1132075471698"/>
      <point x="422.1509433962264" y="430.1132075471698" type="curve" smooth="yes"/>
      <point x="447.3396226415094" y="430.1132075471698"/>
      <point x="461.58490566037733" y="432.1132075471698"/>
      <point x="479.2264150943396" y="437.2641509433962" type="curve"/>
      <point x="479.2264150943396" y="548.3584905660377"/>
      <point x="501.3207547169811" y="643.566037735849"/>
    </contour>
  </outline>
</glyph>
<glyph name="ellipsis" format="2">
  <advance width="600.0"/>
  <unicode hex="2026"/>
  <outline>
    <contour>
      <point x="168.1509433962264" y="-2.8867924528301865" type="curve"/>
      <point x="168.1509433962264" y="115.84905660377356" type="line" smooth="yes"/>
      <point x="168.1509433962264" y="174.4716981132075"/>
      <point x="131.24764150943395" y="185.2830188679245"/>
      <point x="85.81132075471699" y="185.2830188679245" type="curve"/>
      <point x="67.96952104496226" y="185.2830188679245"/>
      <point x="46.772415269160376" y="181.98471851849996"/>
      <point x="28.86792452830189" y="178.07547169811318" type="curve"/>
      <point x="28.86792452830189" y="59.339622641509436" type="line" smooth="yes"/>
      <point x="28.86792452830189" y="0.7169811320754764"/>
      <point x="65.77122641509433" y="-10.094339622641508"/>
      <point x="111.20754716981132" y="-10.094339622641508" type="curve" smooth="yes"/>
      <point x="129.04934687956606" y="-10.094339622641508"/>
      <point x="150.24645265536793" y="-6.79603927321698"/>
    </contour>
    <contour>
      <point x="369.64150943396226" y="-2.8867924528301865" type="curve"/>
      <point x="369.64150943396226" y="115.84905660377356" type="line" smooth="yes"/>
      <point x="369.64150943396226" y="174.4716981132075"/>
      <point x="331.623820754717" y="185.2830188679245"/>
      <point x="287.3018867924528" y="185.2830188679245" type="curve"/>
      <point x="269.4600870826981" y="185.2830188679245"/>
      <point x="248.2629813068962" y="181.98471851849996"/>
      <point x="230.35849056603774" y="178.07547169811318" type="curve"/>
      <point x="230.35849056603774" y="59.339622641509436" type="line" smooth="yes"/>
      <point x="230.35849056603774" y="0.7169811320754764"/>
      <point x="267.26179245283015" y="-10.094339622641508"/>
      <point x="312.6981132075472" y="-10.094339622641508" type="curve" smooth="yes"/>
      <point x="330.5399129173019" y="-10.094339622641508"/>
      <point x="351.7370186931038" y="-6.79603927321698"/>
    </contour>
    <contour>
      <point x="571.1320754716982" y="-2.8867924528301865" type="curve"/>
      <point x="571.1320754716982" y="115.84905660377356" type="line" smooth="yes"/>
      <point x="571.1320754716982" y="174.4716981132075"/>
      <point x="533.6981132075472" y="185.2830188679245"/>
      <point x="489.64150943396226" y="185.2830188679245" type="curve"/>
      <point x="471.8867924528302" y="185.2830188679245"/>
      <point x="450.79245283018867" y="181.98113207547166"/>
      <point x="432.6981132075471" y="178.07547169811318" type="curve"/>
      <point x="432.6981132075471" y="59.339622641509436" type="line" smooth="yes"/>
      <point x="432.6981132075471" y="0.7169811320754764"/>
      <point x="470.1320754716981" y="-10.094339622641508"/>
      <point x="514.188679245283" y="-10.094339622641508" type="curve" smooth="yes"/>
      <point x="531.9433962264151" y="-10.094339622641508"/>
      <point x="553.0377358490566" y="-6.792452830188678"/>
    </contour>
  </outline>
</glyph>
<glyph name="guilsinglleft" format="2">
  <advance width="600.0"/>
  <unicode hex="2039"/>
  <outline>
    <contour>
      <point x="465.03773584905656" y="99.11320754716982" type="line"/>
      <point x="368.49056603773585" y="172.45283018867923"/>
      <point x="309.7547169811321" y="228.49056603773585"/>
      <point x="270.24528301886795" y="300.1509433962264" type="curve"/>
      <point x="316.60377358490564" y="378.35849056603774"/>
      <point x="367.49056603773585" y="430.09433962264154"/>
      <point x="465.03773584905656" y="500.8867924528302" type="curve"/>
      <point x="465.03773584905656" y="506.8867924528302" type="line"/>
      <point x="437.60377358490564" y="515.2830188679245"/>
      <point x="387.0943396226415" y="518.9811320754717"/>
      <point x="355.66037735849056" y="518.9811320754717" type="curve" smooth="yes"/>
      <point x="320.5849056603774" y="518.9811320754717"/>
      <point x="302.79245283018867" y="514.2830188679245"/>
      <point x="283.09433962264154" y="500.4339622641509" type="curve" smooth="yes"/>
      <point x="220.15094339622644" y="453.0377358490566"/>
      <point x="178.45283018867926" y="403.39622641509436"/>
      <point x="131.69811320754718" y="325.0" type="curve"/>
      <point x="131.69811320754718" y="317.00679245283015"/>
      <point x="131.69811320754718" y="309.0"/>
      <point x="131.69811320754718" y="301.0" type="curve" smooth="yes"/>
      <point x="131.69811320754718" y="276.0"/>
      <point x="137.69811320754718" y="257.50943396226415"/>
      <point x="160.69811320754718" y="222.81132075471697" type="curve" smooth="yes"/>
      <point x="208.8490566037736" y="153.41509433962264"/>
      <point x="245.03773584905662" y="120.37735849056604"/>
      <point x="276.0377358490566" y="101.62264150943398" type="curve" smooth="yes"/>
      <point x="300.188679245283" y="86.01886792452831"/>
      <point x="318.5849056603774" y="81.01886792452831"/>
      <point x="357.66037735849056" y="81.01886792452831" type="curve" smooth="yes"/>
      <point x="391.9433962264151" y="81.01886792452831"/>
      <point x="440.45283018867923" y="84.71698113207547"/>
      <point x="465.03773584905656" y="93.11320754716982" type="curve"/>
    </contour>
  </outline>
</glyph>
<glyph name="zerosuperior" format="2">
  <advance width="600.0"/>
  <unicode hex="2070"/>
  <outline>
    <contour>
      <point x="301.8490566037736" y="738.6792452830189" type="curve" smooth="yes"/>
      <point x="208.9622641509434" y="738.6792452830189"/>
      <point x="157.8679245283019" y="659.433962264151"/>
      <point x="157.8679245283019" y="563.2830188679245" type="curve" smooth="yes"/>
      <point x="157.8679245283019" y="525.5094339622641" type="line" smooth="yes"/>
      <point x="157.8679245283019" y="438.1509433962264"/>
      <point x="210.1509433962264" y="367.9622641509434"/>
      <point x="300.8490566037736" y="367.9622641509434" type="curve" smooth="yes"/>
      <point x="389.73584905660374" y="367.9622641509434"/>
      <point x="442.1320754716981" y="440.50943396226415"/>
      <point x="442.1320754716981" y="521.9622641509434" type="curve" smooth="yes"/>
      <point x="442.1320754716981" y="558.8867924528302" type="line" smooth="yes"/>
      <point x="442.1320754716981" y="662.2452830188679"/>
      <point x="395.79245283018867" y="738.6792452830189"/>
    </contour>
    <contour>
      <point x="309.24528301886795" y="657.8679245283018" type="curve" smooth="yes"/>
      <point x="321.90566037735846" y="657.8679245283018"/>
      <point x="334.20754716981133" y="655.7169811320755"/>
      <point x="343.1132075471698" y="652.1132075471698" type="curve" smooth="yes"/>
      <point x="355.1132075471698" y="637.1132075471697"/>
      <point x="361.86792452830184" y="606.2452830188679"/>
      <point x="361.86792452830184" y="568.8301886792453" type="curve" smooth="yes"/>
      <point x="361.86792452830184" y="539.7547169811321" type="line" smooth="yes"/>
      <point x="361.86792452830184" y="474.5849056603774"/>
      <point x="327.9622641509434" y="449.62264150943395"/>
      <point x="291.35849056603774" y="449.62264150943395" type="curve" smooth="yes"/>
      <point x="281.09433962264154" y="449.62264150943395"/>
      <point x="273.1320754716981" y="450.2264150943396"/>
      <point x="262.77358490566036" y="453.4339622641509" type="curve" smooth="yes"/>
      <point x="248.22641509433961" y="467.64150943396226"/>
      <point x="239.83018867924528" y="493.30188679245276"/>
      <point x="239.83018867924528" y="522.1698113207548" type="curve" smooth="yes"/>
      <point x="239.83018867924528" y="558.1886792452831" type="line" smooth="yes"/>
      <point x="239.83018867924528" y="624.5660377358491"/>
      <point x="270.79245283018867" y="657.8679245283018"/>
    </contour>
    <contour>
      <point x="377.45283018867923" y="662.2452830188679" type="line"/>
      <point x="332.4528301886793" y="623.2452830188679"/>
      <point x="305.4528301886793" y="598.7924528301887"/>
      <point x="282.0" y="577.0377358490566" type="curve" smooth="yes"/>
      <point x="261.88679245283015" y="558.4716981132076"/>
      <point x="244.9811320754717" y="536.566037735849"/>
      <point x="237.9811320754717" y="515.7169811320755" type="curve"/>
      <point x="259.2830188679245" y="529.7169811320755" type="line"/>
      <point x="216.28301886792454" y="529.7169811320755" type="line"/>
      <point x="216.28301886792454" y="468.52830188679246" type="line"/>
      <point x="255.9811320754717" y="486.52830188679246"/>
      <point x="292.377358490566" y="508.9811320754717"/>
      <point x="320.88679245283015" y="533.6415094339623" type="curve" smooth="yes"/>
      <point x="340.2452830188679" y="550.1509433962264"/>
      <point x="355.50943396226415" y="572.6603773584906"/>
      <point x="360.8679245283019" y="600.7169811320755" type="curve"/>
      <point x="338.50943396226415" y="585.7169811320755" type="line"/>
      <point x="378.50943396226415" y="585.7169811320755" type="line"/>
    </contour>
  </outline>
</glyph>
<glyph name="fivesuperior" format="2">
  <advance width="600.0"/>
  <unicode hex="2075"/>
  <outline>
    <contour>
      <point x="167.2075471698113" y="734.433962264151" type="line"/>
      <point x="165.35849056603772" y="724.1886792452831"/>
      <point x="163.50943396226413" y="704.4528301886793"/>
      <point x="163.50943396226415" y="689.6603773584906" type="curve" smooth="yes"/>
      <point x="163.50943396226415" y="662.3207547169811"/>
      <point x="173.20754716981133" y="656.1698113207547"/>
      <point x="206.49056603773585" y="656.1698113207547" type="curve" smooth="yes"/>
      <point x="416.24528301886795" y="656.1698113207547" type="line"/>
      <point x="418.39622641509436" y="663.8679245283018"/>
      <point x="420.24528301886795" y="678.6603773584907"/>
      <point x="420.24528301886795" y="690.7547169811321" type="curve" smooth="yes"/>
      <point x="420.24528301886795" y="722.3396226415094"/>
      <point x="399.45283018867923" y="734.433962264151"/>
      <point x="365.20754716981133" y="734.433962264151" type="curve"/>
    </contour>
    <contour>
      <point x="434.79245283018867" y="483.09433962264154" type="curve" smooth="yes"/>
      <point x="434.79245283018867" y="489.09433962264154" type="line" smooth="yes"/>
      <point x="434.79245283018867" y="544.5849056603773"/>
      <point x="393.7924528301887" y="591.7358490566038"/>
      <point x="323.73584905660374" y="591.7358490566038" type="curve" smooth="yes"/>
      <point x="287.0377358490566" y="591.7358490566038"/>
      <point x="266.8867924528302" y="586.433962264151"/>
      <point x="245.73584905660377" y="572.2830188679245" type="curve"/>
      <point x="274.8867924528302" y="580.2830188679245" type="line"/>
      <point x="242.88679245283018" y="580.2830188679245" type="line"/>
      <point x="251.88679245283018" y="558.8867924528302" type="line"/>
      <point x="254.88679245283018" y="575.6981132075472"/>
      <point x="256.88679245283015" y="594.5094339622641"/>
      <point x="259.8867924528302" y="611.3207547169812" type="curve" smooth="yes"/>
      <point x="263.58490566037733" y="630.3207547169811"/>
      <point x="261.73584905660374" y="641.1698113207547"/>
      <point x="252.33962264150944" y="652.1698113207547" type="curve"/>
      <point x="256.33962264150944" y="664.3207547169811" type="line"/>
      <point x="245.24528301886792" y="674.7169811320755"/>
      <point x="228.24528301886792" y="680.4150943396227"/>
      <point x="207.45283018867923" y="681.2641509433963" type="curve"/>
      <point x="188.86792452830187" y="645.1509433962265"/>
      <point x="180.86792452830187" y="614.3962264150944"/>
      <point x="172.22641509433964" y="552.2452830188679" type="curve" smooth="yes"/>
      <point x="168.67924528301887" y="528.5094339622641"/>
      <point x="182.67924528301887" y="522.1132075471698"/>
      <point x="218.11320754716982" y="522.1132075471698" type="curve" smooth="yes"/>
      <point x="249.56603773584908" y="522.1132075471698" type="line"/>
      <point x="268.50943396226415" y="522.1132075471698"/>
      <point x="282.50943396226415" y="522.1132075471698"/>
      <point x="296.66037735849056" y="522.1132075471698" type="curve" smooth="yes"/>
      <point x="323.92452830188677" y="522.1132075471698"/>
      <point x="346.5849056603774" y="512.6037735849056"/>
      <point x="358.2830188679245" y="484.8490566037736" type="curve" smooth="yes"/>
      <point x="358.2830188679245" y="482.84905660377353" type="line" smooth="yes"/>
      <point x="353.1320754716981" y="464.22641509433964"/>
      <point x="326.37735849056605" y="449.92452830188677"/>
      <point x="284.50943396226415" y="449.92452830188677" type="curve" smooth="yes"/>
      <point x="244.50943396226415" y="449.92452830188677"/>
      <point x="203.66037735849056" y="458.377358490566"/>
      <point x="178.20754716981133" y="480.188679245283" type="curve"/>
      <point x="172.20754716981133" y="480.188679245283" type="line"/>
      <point x="166.66037735849056" y="467.0943396226415"/>
      <point x="164.81132075471697" y="454.0"/>
      <point x="164.81132075471697" y="441.75471698113205" type="curve" smooth="yes"/>
      <point x="164.81132075471697" y="420.5660377358491"/>
      <point x="167.81132075471697" y="406.7169811320755"/>
      <point x="181.35849056603774" y="393.1698113207547" type="curve" smooth="yes"/>
      <point x="197.45283018867923" y="377.92452830188677"/>
      <point x="242.18867924528303" y="367.9622641509434"/>
      <point x="295.4528301886793" y="367.9622641509434" type="curve" smooth="yes"/>
      <point x="384.9433962264151" y="367.9622641509434"/>
      <point x="434.79245283018867" y="417.6037735849057"/>
    </contour>
  </outline>
</glyph>
